<?xml version="1.0" ?><svg id="Layer_1" style="enable-background:new 0 0 1024 1024;" version="1.1" viewBox="0 0 1024 1024" xml:space="preserve" xmlns="http://www.w3.org/2000/svg" xmlns:xlink="http://www.w3.org/1999/xlink"><g><path d="M914.91,584.33c-4.03-0.45-8.1-1.05-12.2-1.81c-15.56-2.85-31.63-7.85-48.11-14.96c-77.57-33.5-131.48-40.92-145.69-42.38   c-0.01,0-0.01,0-0.01,0c-3.11,1.05-7.68,2.47-13.78,4.07c6.12,7.46,11.52,15.72,14.53,24.2l-37.68,13.41   c-2.9-8.15-13.87-19.69-24.01-28.45c-13.84,1.94-30,3.67-48.6,4.88c8.7,14.35,16.65,33.25,19.3,56.64l-39.74,4.52   c-3.63-31.96-20.76-51.84-28.61-59.41c0,0,0,0-0.01,0c-2.66,0.02-5.36,0.03-8.1,0.03c-23.64,0-49.96-0.84-79.08-2.85   c-5.92,4.72-22.9,21.26-30.67,60.61l-39.24-7.75c4.93-24.96,13.11-43.52,21.54-57.04c-14.67-1.51-29.94-3.31-45.83-5.41   c-6.19,4.36-19.04,15.17-25.43,33.15l-37.69-13.41c3.73-10.51,8.8-19.45,14.26-26.92c-0.26-0.04-0.52-0.09-0.79-0.13   c-2.56,0.63-5.53,1.26-9.05,2.02c-20.69,4.41-63.74,13.61-135.31,45.51c-17.77,7.92-33.95,12.4-48.41,14.55   c-4.4,0.65-8.64,1.09-12.72,1.34c-3.02,0.19-5.94,0.28-8.78,0.28c-1.68,0-3.33-0.03-4.95-0.09c17.02,17.69,41.66,42.26,69.42,66.59   c48.75,42.73,94.61,66.45,148.72,76.9c49,9.47,107.08,8.51,194.01-3.24c47.79,6.46,86.84,9.66,120.48,9.66   c27.55-0.01,51.47-2.15,73.53-6.42c54.11-10.45,99.97-34.17,148.72-76.9c29.72-26.05,55.87-52.37,72.91-70.24   C923.58,585.14,919.26,584.83,914.91,584.33z M287.87,663.46c-16.55-7.74-32.76-17.94-49.56-31.15l18.55-23.58   c14.97,11.78,29.28,20.8,43.73,27.56L287.87,663.46z M392.65,684.27c-24.82,0-45.79-2.28-65.12-6.93l7.02-29.16   c26.93,6.47,58.22,7.72,101.46,4.05l2.54,29.89C421.78,683.55,406.61,684.27,392.65,684.27z"/><path d="M944.7,544.82c-3.63,0.4-7.7,0.64-12.19,0.59c-4.08-0.03-8.51-0.28-13.29-0.84c-13.51-1.57-29.8-5.55-48.76-13.73   c-32.35-13.97-60.87-23.71-84.64-30.5c5.37-5.82,10.28-12.75,14.11-20.97l-36.26-16.89c-7.36,15.8-23.4,23.28-30.01,25.78   c-10.77-1.85-18.45-2.7-22.7-3.07c0,0,0,0-0.01,0c-5.78-2.4-11.6-4.69-17.48-6.85c11.69-11.79,22.84-28.05,27.27-49.39l-39.17-8.13   c-4.86,23.41-24.83,37.57-34.28,43.07c-14.48-3.76-29.2-6.87-44.11-9.32c6.61-13.24,13.01-30.83,14.91-51.57l-39.83-3.66   c-2.15,23.34-12.39,41.39-18.25,50.01H560c-24.51-1.94-49.48-2.18-74.68-0.72c-3.87-3.56-17.78-18.29-22.02-48.82l-39.62,5.51   c2.82,20.29,8.91,36.04,15.45,47.82c-1.34,0.19-2.69,0.38-4.03,0.57c-20.78,3.01-39.58,6.84-55.91,10.83   c-9.95-8.94-25.36-26.07-26.57-42.53l-39.89,2.96c1.52,20.59,12.2,38.64,23.11,52c-13.09,4.37-21.58,7.85-24.58,9.12   c-1.85,0.51-5.68,1.33-9.39,2.13c-3.96,0.85-8.69,1.86-14.23,3.14c-8.79-7.03-19.42-18.15-20.32-28.23l-39.84,3.54   c1.27,14.36,7.95,26.84,15.92,36.9c-22.55,7.2-50.63,17.52-84.78,32.75c-23.37,10.42-42.43,13.2-56.93,12.75   c-4.33-0.13-8.25-0.55-11.75-1.14c-4.12-0.69-7.67-1.62-10.64-2.59c36.3-46.99,59.49-76.8,80.04-103.2   c15.2-19.53,29.56-37.98,47.16-60.73c26.59-34.38,57.67-60,92.38-76.13c28.21-13.12,58.81-20,90.93-20.47   c54.9-0.79,97.21,17.31,104.74,21.84c8.85,5.31,16.91,5.76,17.61,5.79c0.81-0.03,8.86-0.49,17.69-5.79   c0.41-0.25,43.3-24.4,103.49-24.54h0.51c31.83,0,62.28,6.79,90.52,20.17c34.87,16.52,66.36,43.17,93.6,79.22   c23.2,30.7,40.78,53.13,63.03,81.53C898.24,485.04,917.67,509.85,944.7,544.82z"/></g></svg>