<?xml version="1.0" encoding="UTF-8"?>
<svg xmlns="http://www.w3.org/2000/svg" viewBox="0 0 64 64" width="512" height="512"><g id="Artboard_19" data-name="Artboard 19"><path d="M62.32,11A7,7,0,0,0,53,1.68,7,7,0,0,0,50,1a6.89,6.89,0,0,0-3.49,1A6.9,6.9,0,0,0,43,1a7,7,0,0,0-3.5,1,7.1,7.1,0,0,0-7,0,7.11,7.11,0,0,0-7,0,7,7,0,0,0-7,0,7.1,7.1,0,0,0-7,0A6.9,6.9,0,0,0,8,1,7,7,0,0,0,1.69,11a7,7,0,0,0,.56,7,7,7,0,0,0,0,8,7,7,0,0,0,0,8,7,7,0,0,0,0,8A7,7,0,0,0,8,53a7.66,7.66,0,0,0,1.26-.11,7,7,0,0,0,5.74,5V62a1,1,0,0,0,1,1h4a1,1,0,0,0,1-1V55.9A7,7,0,0,0,16,44a7.66,7.66,0,0,0-1.26.11,7,7,0,0,0-1-2.12,7,7,0,0,0,0-8,6.9,6.9,0,0,0,0-8A7,7,0,0,0,15,22a6.91,6.91,0,0,0-1.27-4,6.9,6.9,0,0,0,1.19-3H15a7,7,0,0,0,3.49-.95A6.94,6.94,0,0,0,22,15a7,7,0,0,0,3.52-.95,6.87,6.87,0,0,0,7,0,7,7,0,0,0,7,0A6.9,6.9,0,0,0,43,15a7,7,0,0,0,3.49-.95,7,7,0,0,0,2.57.89,7,7,0,0,0,1.21,3,7,7,0,0,0,0,8,7,7,0,0,0,0,8,7,7,0,0,0,0,8,6.82,6.82,0,0,0-1,2.11A7.66,7.66,0,0,0,48,44a7,7,0,0,0-5,11.9V62a1,1,0,0,0,1,1h4a1,1,0,0,0,1-1V57.93a7,7,0,0,0,5.74-5A6.64,6.64,0,0,0,56,53a7,7,0,0,0,5.74-11,7,7,0,0,0,0-8,7,7,0,0,0,0-8,7,7,0,0,0,0-8,7,7,0,0,0,.59-7ZM56,51a4.88,4.88,0,0,1-1-.11A6.78,6.78,0,0,0,54.72,49l-1.92.56A5,5,0,0,1,48,56a1,1,0,0,0-1,1v4H45V55.47a1,1,0,0,0-.33-.74A5,5,0,0,1,48,46a4.85,4.85,0,0,1,1.65.28l.21.06A1,1,0,0,0,51,45.6a.51.51,0,0,0,0-.17,5,5,0,0,1,2.67-3.87l-.93-1.77a6.58,6.58,0,0,0-1.09.71,5,5,0,0,1,.59-5.83,1,1,0,0,0,0-1.34,5,5,0,0,1,.83-7.4L51.94,24.3c-.09.06-.17.14-.26.21A5,5,0,0,1,51,22a4.94,4.94,0,0,1,.68-2.5,7.08,7.08,0,0,0,.85.58l1-1.74a5,5,0,0,1-2.43-3.44,7,7,0,0,0,4.31-2.45l-1.54-1.27A5,5,0,0,1,50,13a5,5,0,0,1-4.34-2.52l-1.74,1a6.78,6.78,0,0,0,.87,1.18,5.08,5.08,0,0,1-4.7-.59,1,1,0,0,0-1.17,0,5,5,0,0,1-7.35-1.73l-1.76.93a7.2,7.2,0,0,0,1,1.39,5.1,5.1,0,0,1-3.57,0,6.36,6.36,0,0,0,.89-1.22l-1.74-1a5,5,0,0,1-8.79-.12l-1.76.93a6.63,6.63,0,0,0,1,1.4A5.17,5.17,0,0,1,15,13a5,5,0,0,1-4.59-3l-1.83.79a7,7,0,0,0,4.36,3.91,5.11,5.11,0,0,1-.62,1.82A7.06,7.06,0,0,0,9.6,15.18l-.45,1.95a5,5,0,0,1,3.17,7.38,6.62,6.62,0,0,0-1.07-.71l-.93,1.77a5,5,0,0,1,0,8.86l.93,1.77a6.62,6.62,0,0,0,1.07-.71,5,5,0,0,1-1.91,6.89l1,1.76a7.89,7.89,0,0,0,1-.64,4.84,4.84,0,0,1,.65,2,1,1,0,0,0,1.33.83A5.19,5.19,0,0,1,16,46a5,5,0,0,1,3.44,8.63C19,54.88,19,55.52,19,61H17V57a1,1,0,0,0-1-1,5,5,0,0,1-5-4.46,1,1,0,0,0-.47-.74,1,1,0,0,0-.86-.09A5.19,5.19,0,0,1,8,51a5,5,0,0,1-2.52-9.32L4.47,40a7.4,7.4,0,0,0-.79.55,5,5,0,0,1,.59-5.83,1,1,0,0,0,0-1.34,5,5,0,0,1-.59-5.83,6.14,6.14,0,0,0,.72.5l1-1.71a5,5,0,0,1-1.16-7.62,1,1,0,0,0,0-1.34A5,5,0,0,1,3,14a5.08,5.08,0,0,1,.12-1,6.63,6.63,0,0,0,.54.52L4.9,11.92a5,5,0,0,1-1.26-1.48l-.88.49.88-.49A4.94,4.94,0,0,1,3,8,5,5,0,0,1,8,3a4.94,4.94,0,0,1,2.92.94,1,1,0,0,0,1.16,0,5.08,5.08,0,0,1,5.84,0,1,1,0,0,0,1.17,0A4.89,4.89,0,0,1,22,3a5,5,0,0,1,4.36,2.55l1.74-1a6.36,6.36,0,0,0-.89-1.22,5.1,5.1,0,0,1,4.71.59,1,1,0,0,0,.58.19,1,1,0,0,0,.58-.19,5.09,5.09,0,0,1,4.7-.59,4.63,4.63,0,0,0-.4.48L39,5a5,5,0,0,1,8.15.16l1.65-1.13a6.48,6.48,0,0,0-.56-.71A4.86,4.86,0,0,1,50,3a5,5,0,0,1,4,2l1.59-1.2A7.68,7.68,0,0,0,55,3.11,4.62,4.62,0,0,1,56,3a5,5,0,0,1,5,5,4.79,4.79,0,0,1-.11,1,5.66,5.66,0,0,0-.44-.4l-1.27,1.54A5,5,0,0,1,59,18l1.19,1.61.17-.14A4.94,4.94,0,0,1,61,22a5,5,0,0,1-.68,2.5,6,6,0,0,0-.71-.5l-1,1.72A5,5,0,0,1,61,30a5,5,0,0,1-3.55,4.79L58,36.7a7.05,7.05,0,0,0,2.29-1.2,5,5,0,0,1-2.14,7l.88,1.8a6.61,6.61,0,0,0,1.26-.81A5,5,0,0,1,56,51Z"/></g></svg>
