<?xml version="1.0" encoding="UTF-8"?>
<svg xmlns="http://www.w3.org/2000/svg" viewBox="0 0 64 64" width="512" height="512"><g id="Artboard_27" data-name="Artboard 27"><path d="M18.71,22.71l-1.42-1.42A36.35,36.35,0,0,0,7,41.86l2,.28a34.36,34.36,0,0,1,9.72-19.43Z"/><path d="M16.13,30.5a58,58,0,0,0-3,6.11A59,59,0,0,0,9,50.85l2,.3a56.76,56.76,0,0,1,3.93-13.76,54.87,54.87,0,0,1,3-5.89Z"/><path d="M18.19,17a7.76,7.76,0,0,1,5.31.89l1-1.74A9.82,9.82,0,0,0,17.81,15a9.65,9.65,0,0,0-5.58,3.35l1.54,1.26A7.91,7.91,0,0,1,18.19,17Z"/><path d="M58.5,21.64l-2.25-4.06a12.81,12.81,0,0,0-17.41-5l-2.36,1.31L36,2a1,1,0,0,0-1-1H29a1,1,0,0,0-1,1l-.48,12-2.36-1.31a12.81,12.81,0,0,0-17.41,5L5.5,21.64A35.87,35.87,0,0,0,1,39c0,.28,0,.56,0,.83A19.53,19.53,0,0,0,6.84,52.26l1.69,1.68a7,7,0,0,0,5,2.06h5.13A9.24,9.24,0,0,0,25,53.46a10.9,10.9,0,0,1,3.18,3.09A8.71,8.71,0,0,1,30,62h2a10.62,10.62,0,0,0-2.17-6.55,12.76,12.76,0,0,0-3.53-3.53,9.32,9.32,0,0,0,1.28-2.83l0-.17.18-.07a10,10,0,0,1,3.38,3,16.72,16.72,0,0,1,2.82,10V62h2v-.16a21,21,0,0,0-.85-6.27c.23-.74.48-1.48.78-2.19a23.56,23.56,0,0,1,1.18-2.49A9.24,9.24,0,0,0,45.37,56H50.5a7,7,0,0,0,5-2.06l1.69-1.68A19.53,19.53,0,0,0,63,39.83c0-.27,0-.55,0-.83A35.87,35.87,0,0,0,58.5,21.64ZM30,3H34L35,26.41a1.9,1.9,0,0,1-.14.81l-1,2.55a1.95,1.95,0,0,1-3.62,0l-1-2.55A1.92,1.92,0,0,1,29,26.4ZM28.23,46.58,31.78,33,32,33l.22,0,3.55,13.6A13.08,13.08,0,0,0,28.23,46.58ZM15.64,49.92,14.28,54H13.5a5,5,0,0,1-3.56-1.47L8.26,50.84A17.52,17.52,0,0,1,3,39.7c0-.23,0-.46,0-.7A33.78,33.78,0,0,1,7.25,22.62L9.5,18.55a10.81,10.81,0,0,1,14.69-4.19l3.24,1.8L27,26.32c0,.07,0,.15,0,.23L23.1,29.31A9.09,9.09,0,0,0,19.38,35L19,36.8a1,1,0,0,0,.21.83A1,1,0,0,0,20,38h3.92a.47.47,0,0,1,.4.21.48.48,0,0,1,.07.45.5.5,0,0,1-.47.34H21a2.51,2.51,0,0,0-2.33,1.57l-1.62,4.06A1,1,0,0,0,18,46h2.44a1,1,0,0,1,.79.38,1,1,0,0,1,.18.86,1,1,0,0,1-1,.76H18.31A2.8,2.8,0,0,0,15.64,49.92Zm3,4.08H16.39l1.15-3.44a.8.8,0,0,1,.77-.56h2.13a3,3,0,0,0,0-6h-1l1.07-2.69A.5.5,0,0,1,21,41h2.9a2.5,2.5,0,1,0,0-5h-2.7l.12-.59A7.09,7.09,0,0,1,24.25,31l3.32-2.33.76,1.89a3.87,3.87,0,0,0,1.54,1.86L25.64,48.58A7.24,7.24,0,0,1,18.63,54Zm15.44-1.38,0,.13a17.38,17.38,0,0,0-1.21-2,12,12,0,0,0-2.47-2.56,11,11,0,0,1,5.65.62A28.26,28.26,0,0,0,34.07,52.62ZM45.37,54a7.24,7.24,0,0,1-7-5.42L34.13,32.37a3.87,3.87,0,0,0,1.54-1.86l.76-1.89L39.75,31a7.09,7.09,0,0,1,2.91,4.46l.12.59h-2.7a2.5,2.5,0,0,0,0,5H43a.5.5,0,0,1,.47.31L44.52,44h-1a3,3,0,1,0,0,6h2.13a.8.8,0,0,1,.77.56L47.61,54ZM61,39.7a17.52,17.52,0,0,1-5.24,11.14l-1.68,1.69A5,5,0,0,1,50.5,54h-.78l-1.36-4.08A2.8,2.8,0,0,0,45.69,48H43.56a1,1,0,0,1-1-.76,1,1,0,0,1,.18-.86,1,1,0,0,1,.79-.38H46a1,1,0,0,0,.93-1.37l-1.62-4.06A2.51,2.51,0,0,0,43,39h-2.9a.5.5,0,0,1-.47-.34.48.48,0,0,1,.07-.45.47.47,0,0,1,.4-.21H44a1,1,0,0,0,.77-.37A1,1,0,0,0,45,36.8L44.62,35a9.09,9.09,0,0,0-3.72-5.71L37,26.55c0-.08,0-.15,0-.23l-.4-10.16,3.24-1.8A10.81,10.81,0,0,1,54.5,18.55l2.25,4.07A33.78,33.78,0,0,1,61,39C61,39.24,61,39.47,61,39.7Z"/><path d="M46.71,21.29l-1.42,1.42A34.36,34.36,0,0,1,55,42.14l2-.28a36.39,36.39,0,0,0-4.11-12.34A36.69,36.69,0,0,0,46.71,21.29Z"/><path d="M47.87,30.5l-1.74,1a54.87,54.87,0,0,1,2.95,5.89A56.76,56.76,0,0,1,53,51.15l2-.3a59,59,0,0,0-4.07-14.24A58,58,0,0,0,47.87,30.5Z"/><path d="M50.23,19.63l1.54-1.26A9.65,9.65,0,0,0,46.19,15a9.88,9.88,0,0,0-6.69,1.11l1,1.74A7.76,7.76,0,0,1,45.81,17,7.91,7.91,0,0,1,50.23,19.63Z"/></g></svg>
