<?xml version="1.0" encoding="UTF-8"?>
<svg xmlns="http://www.w3.org/2000/svg" viewBox="0 0 64 64" width="512" height="512"><g id="Artboard_20" data-name="Artboard 20"><path d="M62,33.61a7,7,0,0,0-10-9.35A7,7,0,0,0,48,23a6.93,6.93,0,0,0-4,1.26,6.94,6.94,0,0,0-8,0,7,7,0,0,0-8,0,7.19,7.19,0,0,0-8,0,7.18,7.18,0,0,0-5.1-1.15A6.72,6.72,0,0,0,15,22a7,7,0,0,0-1.06-3.7A7.11,7.11,0,0,0,17,19a6.94,6.94,0,0,0,4.5-1.65,6.93,6.93,0,0,0,9,0,7,7,0,0,0,9,0,7,7,0,0,0,9,0A7,7,0,1,0,56,5.67V2a1,1,0,0,0-1-1H51a1,1,0,0,0-.71.29A1,1,0,0,0,50,2V5.67a6.57,6.57,0,0,0-1.5,1A7,7,0,0,0,44,5a6.94,6.94,0,0,0-4.49,1.66,7,7,0,0,0-9,0,7,7,0,0,0-9,0,7,7,0,0,0-9,0A7,7,0,0,0,3.12,17a7,7,0,0,0-.86,9A7,7,0,0,0,8,37a6.94,6.94,0,0,0,4-1.26,6.94,6.94,0,0,0,8,0,7,7,0,0,0,8,0A7,7,0,0,0,32,37a6.93,6.93,0,0,0,4-1.27,6.93,6.93,0,0,0,8,0,6.88,6.88,0,0,0,5,1.19,2.11,2.11,0,0,0,0,.25,7,7,0,0,0,1.2,3.92A7,7,0,0,0,49,45c0,.1,0,.2,0,.31a6.91,6.91,0,0,0-6.53,1.34,7,7,0,0,0-9,0,7,7,0,0,0-9,0A7,7,0,1,0,16,57.75V62a1,1,0,0,0,1,1h4a1,1,0,0,0,1-1V58.71a6.85,6.85,0,0,0,2.5-1.36,7,7,0,0,0,9,0,7,7,0,0,0,9,0,7,7,0,0,0,9,0,7,7,0,0,0,10.55-8.86,6.93,6.93,0,0,0-.25-7.4,6.92,6.92,0,0,0,.2-7.48ZM56,57a5,5,0,0,1-4.59-3l-1.84.79a7.2,7.2,0,0,0,.6,1.09A5,5,0,0,1,42.41,54l-1.84.79a6.74,6.74,0,0,0,.6,1.09,5,5,0,0,1-6.92-.55,1,1,0,0,0-1.5,0,5,5,0,0,1-8.26-1.16L22.68,55a7.32,7.32,0,0,0,.49.86,5.05,5.05,0,0,1-2.34,1.06,1,1,0,0,0-.83,1V61H18V57.2a1,1,0,0,0-.5-.87,5,5,0,1,1,7-6.44l1.81-.84a7.33,7.33,0,0,0-.51-.91,5,5,0,0,1,6.33,0,7.22,7.22,0,0,0-.63,1.16l1.84.78A5,5,0,0,1,38,47a4.94,4.94,0,0,1,3.17,1.15c-.12.18-.25.37-.36.57l1.77.94a5,5,0,0,1,8.17-1l1.5-1.32a7.12,7.12,0,0,0-1-.95A4.84,4.84,0,0,1,51,45a5,5,0,0,1,1.21-3.26,1,1,0,0,0,0-1.31A5,5,0,0,1,51,37.17a5.49,5.49,0,0,1,.09-.9,6.82,6.82,0,0,0,2.24-1.73l-1.52-1.3a5,5,0,0,1-6.31,1.08,7.11,7.11,0,0,0,.5-.72l-1.71-1a5,5,0,0,1-6.79,1.75,5.78,5.78,0,0,0,.59-.87l-1.74-1A5,5,0,0,1,32,35a4.94,4.94,0,0,1-2.5-.68,7.44,7.44,0,0,0,.95-1.59L28.61,32A5,5,0,0,1,24,35a4.91,4.91,0,0,1-2.51-.69A6.73,6.73,0,0,0,22.31,33l-1.8-.87A5,5,0,0,1,16,35a4.94,4.94,0,0,1-2.5-.68,7.08,7.08,0,0,0,1.19-2.24l-1.91-.59a5,5,0,1,1-7.57-5.64L4.09,24.2a4,4,0,0,0-.41.31A5,5,0,0,1,6.4,17.26l-.64-1.89a6,6,0,0,0-1,.43,5,5,0,1,1,7.9-5.65l1.86-.74a6.93,6.93,0,0,0-.68-1.26,5,5,0,0,1,6.34,0c-.13.2-.25.39-.36.6l1.76.93a5,5,0,0,1,7.6-1.53,7.72,7.72,0,0,0-.62,1.13l1.84.78a5,5,0,0,1,7.78-1.91,7,7,0,0,0-.92,2l1.93.53a5,5,0,0,1,8-2.52,7.24,7.24,0,0,0-.73,1.41l1.87.7a5,5,0,0,1,3-3A1,1,0,0,0,52,6.34V3h2V6.34a1,1,0,0,0,.67,1,5,5,0,1,1-4.84,8.57,7.33,7.33,0,0,0,.86-1.78l-1.91-.59a5,5,0,0,1-8.53,1.82A1,1,0,0,0,39.5,15h0a1,1,0,0,0-.75.34,5,5,0,0,1-6.93.54,6.66,6.66,0,0,0,.79-1.55l-1.89-.66A5,5,0,0,1,26,17a4.94,4.94,0,0,1-3.17-1.15,7.46,7.46,0,0,0,.67-1.25l-1.86-.74A5,5,0,0,1,17,17a5,5,0,0,1-3.71-1.64.85.85,0,0,0-.16-.17,1,1,0,0,0-1.38.12,4.64,4.64,0,0,1-1,.85,1,1,0,0,0-.45.84,1,1,0,0,0,.44.83A5,5,0,0,1,13,22a4.84,4.84,0,0,1-.49,2.15l.88.42.44.92a5.09,5.09,0,0,1,5.5.78,1,1,0,0,0,1.34,0,5.12,5.12,0,0,1,6.66,0,1,1,0,0,0,1.34,0,5.16,5.16,0,0,1,5.84-.58A6.73,6.73,0,0,0,33.69,27l1.8.87a5,5,0,0,1,7-2.15,5.46,5.46,0,0,0-.36.48l1.67,1.09a5,5,0,0,1,6.69-1.57,5.07,5.07,0,0,0-.35.46l1.67,1.11a5,5,0,1,1,6.36,7.24l.88,1.8a7.49,7.49,0,0,0,1.54-1,4.93,4.93,0,0,1,.39,1.9,5,5,0,0,1-1.21,3.26,1,1,0,0,0,0,1.31A5,5,0,0,1,61,45a5.17,5.17,0,0,1-.34,1.79,6.83,6.83,0,0,0-1.39-1l-.93,1.77A5,5,0,0,1,56,57Z"/></g></svg>
