<?xml version="1.0" encoding="UTF-8"?>
<svg xmlns="http://www.w3.org/2000/svg" viewBox="0 0 64 64" width="512" height="512"><g id="Artboard_17" data-name="Artboard 17"><path d="M41.64,22.08A1.3,1.3,0,0,1,42.93,21H50a3.29,3.29,0,0,0,3-3.5A3.29,3.29,0,0,0,50,14H43.77a19.91,19.91,0,0,0-5.32-3.89A19.41,19.41,0,0,0,36,9.1V2H34V14.86a10.62,10.62,0,0,0-3.59,2.5l-3.53,3.75c0-.94-.08-1.84-.13-2.72C28.51,17,31,14.45,31,11V2H29v9a7,7,0,0,1-2.4,4.86A122.86,122.86,0,0,0,25,1.8l-2,.4a140,140,0,0,1,1.92,21l-4.28,4.54A13.44,13.44,0,0,0,17,37v1a25.64,25.64,0,0,0,.22,3.3A17.2,17.2,0,0,1,13,30a27.86,27.86,0,0,1,3.9-13.66A15.73,15.73,0,0,0,19,8.42V2H17V8.42a13.62,13.62,0,0,1-1.83,6.91A29.94,29.94,0,0,0,11,30a19.89,19.89,0,0,0,7,14.87A25.12,25.12,0,0,0,42.09,63,8.92,8.92,0,0,0,51,54.09V37.92A6.15,6.15,0,0,0,46.48,32L42,30.77a2,2,0,0,1-1.48-2.35ZM51,17.5c0,.8-.47,1.5-1,1.5s-1-.7-1-1.5.47-1.5,1-1.5S51,16.7,51,17.5ZM36,11.22a16.45,16.45,0,0,1,1.55.67A18.57,18.57,0,0,1,40.79,14H38.18a10.54,10.54,0,0,0-2.18.23Zm3.67,10.5L39,25.28a7,7,0,0,0-3.52.85,8,8,0,0,0-2.62,2.61,7.36,7.36,0,0,1-2.39,2.39,7.53,7.53,0,0,1-4.42.87l-.16,2,.93,0a9.25,9.25,0,0,0,4.65-1.16,9.2,9.2,0,0,0,3-3l0-.06a6.25,6.25,0,0,1-.42,5.65l1.72,1A8.34,8.34,0,0,0,37,33.1a8.56,8.56,0,0,0-1-4.89,4.26,4.26,0,0,1,.49-.34,5,5,0,0,1,2.17-.59l-.14.78a4,4,0,0,0,2.93,4.64L46,33.93a4.14,4.14,0,0,1,3,4V53.59a6.87,6.87,0,0,1-4.15,2.32,5.51,5.51,0,0,1-4.25-.8,3.83,3.83,0,0,1-1.21-1.62,5.62,5.62,0,0,0-1.8-2.31A7,7,0,0,0,32.94,50l.12,2a5.05,5.05,0,0,1,3.35.79,3.86,3.86,0,0,1,1.19,1.58,5.7,5.7,0,0,0,1.8,2.34A6.85,6.85,0,0,0,43.63,58a10.54,10.54,0,0,0,1.52-.12,8.51,8.51,0,0,0,3.37-1.27A6.93,6.93,0,0,1,42.09,61a23,23,0,0,1-17.76-8.36,9.07,9.07,0,0,1,4.05-3.72,10.19,10.19,0,0,1,2.22-.57,18.5,18.5,0,0,0,4.8-1.44,10.26,10.26,0,0,0,3.85-2.58,6.05,6.05,0,0,1,1.25.54,7,7,0,0,1,2.63,2.63l1.74-1a9.22,9.22,0,0,0-3.37-3.37,10.09,10.09,0,0,0-1.15-.55c.09-.22.19-.45.27-.68A8.12,8.12,0,0,0,41,39.3V37H39v2.3a6.05,6.05,0,0,1-.28,2,5.28,5.28,0,0,1-.56,1.2c-.56.88-1.37,1.66-3.57,2.63-.37.16-.71.3-1,.42A8.5,8.5,0,0,0,34,43a8.75,8.75,0,0,0-1.13-4.52l-1.74,1A6.65,6.65,0,0,1,31,46.23l-.79.15a11.7,11.7,0,0,0-2.63.7A10.59,10.59,0,0,0,23.05,51,23,23,0,0,1,19,37.91V37a11.45,11.45,0,0,1,3.12-7.87l9.75-10.35A8.67,8.67,0,0,1,38.18,16H47.3a3.9,3.9,0,0,0,0,3H42.93A3.31,3.31,0,0,0,39.67,21.72Z"/><path d="M15,31.06l2-.12A20.79,20.79,0,0,1,18,23.3a21,21,0,0,1,2.87-5.72l-1.64-1.16A23,23,0,0,0,15,31.06Z"/></g></svg>
