<?xml version="1.0" encoding="UTF-8"?>
<svg xmlns="http://www.w3.org/2000/svg" viewBox="0 0 64 64" width="512" height="512"><g id="Artboard_07" data-name="Artboard 07"><path d="M62.71,25.29l-3-3a1,1,0,0,0-1.42,0l-5.06,5.08A12.28,12.28,0,0,1,47.83,30a14.6,14.6,0,0,1-6.63-.74c-.72-1.09-1.54-2.22-2.4-3.35l.79-.49A3,3,0,0,0,41,22.89V20a3,3,0,0,0-3-3H37V2a1,1,0,0,0-1-1H28a1,1,0,0,0-1,1V17H26a3,3,0,0,0-3,3v2.89a3,3,0,0,0,1.41,2.55l.79.49c-.86,1.13-1.68,2.26-2.4,3.35a14.6,14.6,0,0,1-6.63.74,12,12,0,0,1-5.46-2.73l-5-5a1,1,0,0,0-1.42,0l-3,3a1,1,0,0,0,0,1.42L5.59,31l-2.3,2.29a1,1,0,0,0,0,1.42l3,3a1,1,0,0,0,1.42,0l2.49-2.5A20.79,20.79,0,0,0,19,36.68,15.81,15.81,0,0,0,18,41H6a1,1,0,0,0-1,1v4a1,1,0,0,0,1,1h5v1.59l-2.71,2.7a1,1,0,0,0,0,1.42l3,3a1,1,0,0,0,1.42,0L19,49.41V62a1,1,0,0,0,1,1h4a1,1,0,0,0,1-1V44c0-5.67,3.36-11.39,5.7-14.69a2.73,2.73,0,0,0,2.6,0c2.34,3.3,5.7,9,5.7,14.69V62a1,1,0,0,0,1,1h4a1,1,0,0,0,1-1V49.41l6.29,6.3a1,1,0,0,0,1.42,0l3-3a1,1,0,0,0,0-1.42L53,48.59V47h5a1,1,0,0,0,1-1V42a1,1,0,0,0-1-1H46a15.81,15.81,0,0,0-1-4.32,20.59,20.59,0,0,0,8.77-1.47l2.49,2.5a1,1,0,0,0,1.42,0l3-3a1,1,0,0,0,0-1.42L58.41,31l4.3-4.29A1,1,0,0,0,62.71,25.29ZM35,9H29V7h6Zm0,2v2H29V11Zm0-8V5H29V3ZM29,15h6v2H29ZM23,44V61H21V47a1,1,0,0,0-.62-.92,1,1,0,0,0-1.09.21L12,53.59,10.41,52l2.3-2.29A1,1,0,0,0,13,49V46a1,1,0,0,0-1-1H7V43H19a1,1,0,0,0,.75-.35,1,1,0,0,0,.24-.8s-.25-2,1.38-5.79a1,1,0,0,0,.09-.6,1,1,0,0,0-1.06-.84c-6.52.45-9.86-1.46-9.89-1.48a1,1,0,0,0-1.22.15L7,35.59,5.41,34l2.3-2.29a1,1,0,0,0,0-1.42L3.41,26,5,24.41l4.23,4.22A13.41,13.41,0,0,0,15.83,32a16.47,16.47,0,0,0,8-.91,1,1,0,0,0,.51-.41C25.06,29.48,26,28.24,26.9,27L29,28.29C26.49,31.81,23,37.87,23,44Zm8.47-16.51-6-3.75a1,1,0,0,1-.47-.85V20a1,1,0,0,1,1-1H38a1,1,0,0,1,1,1v2.89a1,1,0,0,1-.47.85l-6,3.75A1,1,0,0,1,31.47,27.49Zm24.82,2.8a1,1,0,0,0,0,1.42L58.59,34,57,35.59l-2.29-2.3a1,1,0,0,0-1.22-.15s-3.37,1.93-9.89,1.48a1,1,0,0,0-1.06.84,1,1,0,0,0,.08.58c1.64,3.84,1.39,5.79,1.39,5.8a1,1,0,0,0,.23.81A1,1,0,0,0,45,43H57v2H52a1,1,0,0,0-1,1v3a1,1,0,0,0,.29.71L53.59,52,52,53.59l-7.29-7.3a1,1,0,0,0-1.09-.21A1,1,0,0,0,43,47V61H41V44c0-6.13-3.49-12.19-6-15.71L37.1,27c.95,1.25,1.84,2.49,2.61,3.67a1,1,0,0,0,.51.41,16.47,16.47,0,0,0,8,.91,13.59,13.59,0,0,0,6.54-3.27L59,24.41,60.59,26Z"/></g></svg>
