<?xml version="1.0" encoding="UTF-8"?>
<svg xmlns="http://www.w3.org/2000/svg" viewBox="0 0 64 64" width="512" height="512"><g id="Artboard_24" data-name="Artboard 24"><path d="M32,1A31,31,0,1,0,63,32,31,31,0,0,0,32,1Zm0,60A29,29,0,1,1,61,32,29,29,0,0,1,32,61Z"/><path d="M32,5A27,27,0,1,0,59,32,27,27,0,0,0,32,5Zm0,52A25,25,0,1,1,57,32,25,25,0,0,1,32,57Z"/><path d="M41.93,31.15a.9.9,0,0,1,.07.37V36a3,3,0,0,0,6,0V30.52a3,3,0,0,0-.38-1.46,1.08,1.08,0,0,0-.18-.24l-3-2.82,3-2.82a1.08,1.08,0,0,0,.18-.24A3,3,0,0,0,48,21.48V16a3,3,0,0,0-6,0v4.48a.9.9,0,0,1-.07.37L40.5,22.21l-1.43-1.36a.9.9,0,0,1-.07-.37V16a3,3,0,0,0-6,0v5.48a3,3,0,0,0,.38,1.46,1.08,1.08,0,0,0,.18.24l3,2.82-3,2.82a1.08,1.08,0,0,0-.18.24A3,3,0,0,0,33,30.52V36a3,3,0,0,0,6,0V31.52a.9.9,0,0,1,.07-.37l1.43-1.36Zm4-1a.9.9,0,0,1,.07.37V36a1,1,0,0,1-2,0V31.52a3,3,0,0,0-.38-1.46,1.08,1.08,0,0,0-.18-.24L42,28.41l1.07-1Zm-10.86-8.3a.9.9,0,0,1-.07-.37V16a1,1,0,0,1,2,0v4.48a3,3,0,0,0,.38,1.46,1.08,1.08,0,0,0,.18.24l1.49,1.41-1.07,1Zm2.49,8a1.08,1.08,0,0,0-.18.24A3,3,0,0,0,37,31.52V36a1,1,0,0,1-2,0V30.52a.9.9,0,0,1,.07-.37l8.37-8a1.08,1.08,0,0,0,.18-.24A3,3,0,0,0,44,20.48V16a1,1,0,0,1,2,0v5.48a.9.9,0,0,1-.07.37Z"/><path d="M28,45V39.52a3,3,0,0,0-.38-1.46,1.08,1.08,0,0,0-.18-.24l-3-2.82,3-2.82a1.08,1.08,0,0,0,.18-.24A3,3,0,0,0,28,30.48V25a3,3,0,0,0-6,0v4.48a.9.9,0,0,1-.07.37L20.5,31.21l-1.43-1.36a.9.9,0,0,1-.07-.37V25a3,3,0,0,0-6,0v5.48a3,3,0,0,0,.38,1.46,1.08,1.08,0,0,0,.18.24l3,2.82-3,2.82a1.08,1.08,0,0,0-.18.24A3,3,0,0,0,13,39.52V45a3,3,0,0,0,6,0V40.52a.9.9,0,0,1,.07-.37l1.43-1.36,1.43,1.36a.9.9,0,0,1,.07.37V45a3,3,0,0,0,6,0ZM23.44,31.18a1.08,1.08,0,0,0,.18-.24A3,3,0,0,0,24,29.48V25a1,1,0,0,1,2,0v5.48a.9.9,0,0,1-.07.37L23,33.62l-1.07-1Zm-5.88,7.64a1.08,1.08,0,0,0-.18.24A3,3,0,0,0,17,40.52V45a1,1,0,0,1-2,0V39.52a.9.9,0,0,1,.07-.37L18,36.38l1.07,1ZM26,45a1,1,0,0,1-2,0V40.52a3,3,0,0,0-.38-1.46,1.08,1.08,0,0,0-.18-.24l-8.37-8a.9.9,0,0,1-.07-.37V25a1,1,0,0,1,2,0v4.48a3,3,0,0,0,.38,1.46,1.08,1.08,0,0,0,.18.24l8.37,8a.9.9,0,0,1,.07.37Z"/><path d="M25,19a3,3,0,1,0-3-3A3,3,0,0,0,25,19Zm0-4a1,1,0,1,1-1,1A1,1,0,0,1,25,15Z"/><path d="M29,49a3,3,0,1,0,3,3A3,3,0,0,0,29,49Zm0,4a1,1,0,1,1,1-1A1,1,0,0,1,29,53Z"/><path d="M45,41a4,4,0,1,0,4,4A4,4,0,0,0,45,41Zm0,6a2,2,0,1,1,2-2A2,2,0,0,1,45,47Z"/><path d="M35,41a3,3,0,1,0,3,3A3,3,0,0,0,35,41Zm0,4a1,1,0,1,1,1-1A1,1,0,0,1,35,45Z"/></g></svg>
