<svg height="512" viewBox="0 0 64 64" width="512" xmlns="http://www.w3.org/2000/svg"><g id="Artboard_01" data-name="Artboard 01"><path d="m62 30v-2a37.15 37.15 0 0 0 -7.11.85l1.73-3.68a15 15 0 0 0 1.38-6.32 13.94 13.94 0 0 0 -4.15-10.19l-5-4.75a10.23 10.23 0 0 0 -7-2.91 10.07 10.07 0 0 0 -6.33 2.29l-3.52 2.76-3.45-2.76a10.07 10.07 0 0 0 -6.33-2.29 10.23 10.23 0 0 0 -7 2.91l-5 4.75a13.94 13.94 0 0 0 -4.22 10.19 15 15 0 0 0 1.38 6.32l1.73 3.68a37.15 37.15 0 0 0 -7.11-.85v2a36.79 36.79 0 0 1 8.17 1.16 66.32 66.32 0 0 1 4.92 16.11l2.23 12.81a3.33 3.33 0 0 0 3.12 2.92 3.25 3.25 0 0 0 3-2.48l5.35-18.46a2.59 2.59 0 0 1 2.34-2.06h1.74a2.59 2.59 0 0 1 2.31 2.06l5.35 18.46a3.25 3.25 0 0 0 3 2.48 3.33 3.33 0 0 0 3.12-2.92l2.23-12.81a66.32 66.32 0 0 1 4.92-16.11 36.79 36.79 0 0 1 8.2-1.16zm-15.06 16.93-2.23 12.81c-.13.73-.61 1.26-1.15 1.26a1.28 1.28 0 0 1 -1.11-1l-5.35-18.49a4.56 4.56 0 0 0 -4.23-3.51h-1.74a4.56 4.56 0 0 0 -4.23 3.51l-5.35 18.49a1.28 1.28 0 0 1 -1.11 1c-.54 0-1-.53-1.15-1.26l-2.23-12.81a68.46 68.46 0 0 0 -5.45-17.45l-2.42-5.16a13 13 0 0 1 -1.19-5.47 12.16 12.16 0 0 1 3.52-8.74l5-4.75a8.3 8.3 0 0 1 5.7-2.36 8.11 8.11 0 0 1 5.08 1.85l7.41 5.93 1.29-1.56-2.4-1.89 3.1-2.48a8.11 8.11 0 0 1 5.08-1.85 8.3 8.3 0 0 1 5.66 2.36l5 4.75a12.16 12.16 0 0 1 3.56 8.74 13 13 0 0 1 -1.19 5.47l-2.42 5.16a68.46 68.46 0 0 0 -5.45 17.45z"/><path d="m32 13c-4.88 0-8-1.78-8-3h-2c0 2.85 4.3 5 10 5s10-2.15 10-5h-2c0 1.22-3.12 3-8 3z"/></g></svg>