<?xml version="1.0" encoding="UTF-8"?>
<svg xmlns="http://www.w3.org/2000/svg" id="Artboard_30" data-name="Artboard 30" viewBox="0 0 64 64" width="512" height="512"><path d="M50.93,15a7.15,7.15,0,0,0-2.11.32l-3,.91a8.92,8.92,0,0,0,.9-2.23h.72A4.54,4.54,0,0,0,52,9.46a4.47,4.47,0,0,0-1.33-3.2l-.93-.93A2.52,2.52,0,0,1,49,3.54V2H47V3.54a4.47,4.47,0,0,0,1.33,3.2l.93.93A2.54,2.54,0,0,1,47.46,12H47C47,5.93,40.27,1,32,1S17,5.93,17,12h-.46a2.54,2.54,0,0,1-1.8-4.33l.93-.93A4.47,4.47,0,0,0,17,3.54V2H15V3.54a2.52,2.52,0,0,1-.74,1.79l-.93.93A4.47,4.47,0,0,0,12,9.46,4.54,4.54,0,0,0,16.54,14h.72a8.92,8.92,0,0,0,.9,2.23l-3-.91A7.27,7.27,0,0,0,13,15a9,9,0,0,0-9,9v4.58a9,9,0,0,0,1.51,5l1.31,2A7,7,0,0,1,8,39.42V53c0,5,3.59,9,8,9a7.31,7.31,0,0,0,3.68-1,2.66,2.66,0,0,0,.54-4.18l-.95-1a6,6,0,0,0,0-5.72l.89-.89a2.74,2.74,0,0,0,.78-2.31,2.68,2.68,0,0,0-1.35-2A7.27,7.27,0,0,0,14,44.28V39.63a13,13,0,0,0-2.18-7.21l-1.32-2a3,3,0,0,1-.5-1.66V24a3,3,0,0,1,3-3,5.25,5.25,0,0,1,1.63.26L22,23.73a5,5,0,0,0,3.09,4.2A5.4,5.4,0,0,0,25,29v16a6.1,6.1,0,0,1-.22,1.59L23.3,51.81A7.79,7.79,0,0,0,23,54a7.7,7.7,0,0,0,1.31,4.31l2.31,3.48A2.83,2.83,0,0,0,29,63h6a2.83,2.83,0,0,0,2.36-1.26l2.31-3.48A7.7,7.7,0,0,0,41,54a7.79,7.79,0,0,0-.3-2.14l-1.48-5.17A6.1,6.1,0,0,1,39,45.05V29a5.4,5.4,0,0,0-.12-1.07A5,5,0,0,0,42,23.73l7.4-2.47A5.25,5.25,0,0,1,51,21a3,3,0,0,1,3,3v4.79a3,3,0,0,1-.5,1.66l-1.32,2A13,13,0,0,0,50,39.63v4.65a7.27,7.27,0,0,0-5.59.68,2.68,2.68,0,0,0-1.35,2,2.74,2.74,0,0,0,.78,2.31l.89.89a6,6,0,0,0,0,5.72l-.95,1A2.66,2.66,0,0,0,44.32,61,7.31,7.31,0,0,0,48,62c4.41,0,8-4,8-9V39.42a7,7,0,0,1,1.18-3.88l1.31-2a9,9,0,0,0,1.51-5V24A9,9,0,0,0,50.93,15ZM19,12c0-5,5.83-9,13-9s13,4,13,9a7.26,7.26,0,0,1-2.47,5.25l-3.17,1a5,5,0,0,0-6.46-.13l-.9.71-.9-.71a5,5,0,0,0-6.46.13l-3.17-1A7.26,7.26,0,0,1,19,12ZM37,35.5l-1.58,1.19A6,6,0,0,0,33,41.52V61H31V41.52a6,6,0,0,0-2.42-4.83L27,35.5V29a3,3,0,0,1,3-3h4a3,3,0,0,1,3,3ZM18,53c0,1.63-.92,3-2,3s-2-1.37-2-3,.92-3,2-3S18,51.37,18,53ZM13,19a5,5,0,0,0-5,5v4.79a5,5,0,0,0,.84,2.77l1.31,2A11,11,0,0,1,12,39.63v6.14a1,1,0,0,0,.49.86,1,1,0,0,0,1,0,5.24,5.24,0,0,1,5.13.05.68.68,0,0,1,.35.51.75.75,0,0,1-.21.63l-.82.81A3.34,3.34,0,0,0,16,48c-2.21,0-4,2.24-4,5s1.79,5,4,5a3.34,3.34,0,0,0,1.93-.65l.88.87a.69.69,0,0,1,.19.56.68.68,0,0,1-.33.49A5.28,5.28,0,0,1,16,60c-3.31,0-6-3.14-6-7V39.42a9,9,0,0,0-1.51-5l-1.31-2A7,7,0,0,1,6,28.58V24a7,7,0,0,1,7.07-7,5.18,5.18,0,0,1,1.52.23l8.67,2.66-.4.6a4.84,4.84,0,0,0-.59,1.21l-7-2.33A7,7,0,0,0,13,19Zm12.93,7.11a3,3,0,0,1-1.42-4.5l.85-1.25A3,3,0,0,1,27.45,19a3.12,3.12,0,0,1,2.41.63l1.14.9V24H30a5,5,0,0,0-4.06,2.11Zm2.36,34.52L26,57.15A5.71,5.71,0,0,1,25,54a6.1,6.1,0,0,1,.22-1.59l1.48-5.17a7.79,7.79,0,0,0,.3-2.14V38l.38.29A4,4,0,0,1,29,41.52V61h0A.82.82,0,0,1,28.29,60.63ZM38,57.15l-2.32,3.48A.82.82,0,0,1,35,61h0V41.52a4,4,0,0,1,1.62-3.23L37,38v7a7.79,7.79,0,0,0,.3,2.14l1.48,5.17A6.1,6.1,0,0,1,39,54,5.71,5.71,0,0,1,38,57.15Zm0-31h0A5,5,0,0,0,34,24H33V20.57l1.14-.9A3.07,3.07,0,0,1,36.55,19a3,3,0,0,1,2.09,1.32l.85,1.25a3,3,0,0,1-1.42,4.5ZM46,53c0-1.63.92-3,2-3s2,1.37,2,3-.92,3-2,3S46,54.63,46,53ZM58,28.58a7,7,0,0,1-1.18,3.88l-1.31,2a9,9,0,0,0-1.51,5V53c0,3.86-2.69,7-6,7a5.28,5.28,0,0,1-2.67-.73.68.68,0,0,1-.33-.49.69.69,0,0,1,.19-.56l.88-.87A3.34,3.34,0,0,0,48,58c2.21,0,4-2.24,4-5s-1.79-5-4-5a3.34,3.34,0,0,0-1.93.65l-.82-.81a.75.75,0,0,1-.21-.63.68.68,0,0,1,.35-.51,5.24,5.24,0,0,1,5.13-.05,1,1,0,0,0,1,0,1,1,0,0,0,.49-.86V39.63a11,11,0,0,1,1.85-6.1l1.31-2A5,5,0,0,0,56,28.79V24a5,5,0,0,0-5-5,6.91,6.91,0,0,0-2.26.37l-7,2.33a4.84,4.84,0,0,0-.59-1.21l-.4-.6,8.67-2.66A5.31,5.31,0,0,1,51,17a7,7,0,0,1,7,7Z"/><path d="M38.38,8.79a8.64,8.64,0,0,1,2.69,3.59l1.86-.76a10.87,10.87,0,0,0-3.31-4.41A11.16,11.16,0,0,0,31.91,5l.18,2A9,9,0,0,1,38.38,8.79Z"/></svg>
