<?xml version="1.0" encoding="UTF-8"?>
<svg xmlns="http://www.w3.org/2000/svg" viewBox="0 0 64 64" width="512" height="512"><g id="Artboard_29" data-name="Artboard 29"><path d="M29.12,14.5l1.76-.94A4.41,4.41,0,0,0,26.43,11a4.76,4.76,0,0,0-3.32,2.53l1.78.91A2.79,2.79,0,0,1,26.71,13,2.47,2.47,0,0,1,29.12,14.5Z"/><path d="M37.29,13a2.79,2.79,0,0,1,1.82,1.46l1.78-.91A4.76,4.76,0,0,0,37.57,11a4.42,4.42,0,0,0-4.45,2.52l1.76.94A2.49,2.49,0,0,1,37.29,13Z"/><path d="M60.29,26.35l-2.9-5.81A6.37,6.37,0,0,0,51.66,17H49.09A5.09,5.09,0,0,0,44,22.09v1.29a7.11,7.11,0,0,1-.54,2.73l-1.31,3.12a10.89,10.89,0,0,1-4.15,5V23a6,6,0,0,1,3-5.16A8,8,0,0,0,45,11V2a1,1,0,0,0-1-1H40a1,1,0,0,0-1,1V6a5.15,5.15,0,0,0-6.07,0l-.93.7-.93-.7A5.15,5.15,0,0,0,25,6V2a1,1,0,0,0-1-1H20a1,1,0,0,0-1,1v9a8,8,0,0,0,4,6.9A6,6,0,0,1,26,23V34.22a10.89,10.89,0,0,1-4.15-5l-1.31-3.12A7.11,7.11,0,0,1,20,23.38V22.09A5.09,5.09,0,0,0,14.91,17H12.34a6.37,6.37,0,0,0-5.73,3.54l-2.9,5.81A25.62,25.62,0,0,0,7.26,54.6L13,61.16A5.32,5.32,0,0,0,17,63a5.38,5.38,0,0,0,5.33-4.93l.3-4A8.56,8.56,0,0,1,26,47.94V62a1,1,0,0,0,1,1H37a1,1,0,0,0,1-1V47.94a8.56,8.56,0,0,1,3.39,6.18l.3,4A5.38,5.38,0,0,0,47,63a5.32,5.32,0,0,0,4-1.84l5.69-6.56a25.62,25.62,0,0,0,3.55-28.25ZM36,26v2H28V26Zm-8,4h8v2H28ZM24,16.13A6,6,0,0,1,21,11V3h2V8a1,1,0,0,0,.55.89A1,1,0,0,0,24.6,8.8l1.53-1.15a3.15,3.15,0,0,1,3.74,0L31,8.5V11h2V8.5l1.13-.85a3.15,3.15,0,0,1,3.74,0L39.4,8.8a1,1,0,0,0,1.05.09A1,1,0,0,0,41,8V3h2v8a6,6,0,0,1-3,5.16A8,8,0,0,0,36,23v1H33V16H31v8H28V23A8,8,0,0,0,24,16.13ZM28,34h8v1.25a11,11,0,0,1-8,0Zm0,20h8v2H28Zm0-2V50h8v2Zm0-4V46.72l.49-.28A3.35,3.35,0,0,1,30.15,46h3.7a3.29,3.29,0,0,1,1.65.44l.5.28V48Zm0,13V58h8v3Zm27.23-7.71-5.69,6.56a3.34,3.34,0,0,1-5.85-1.93l-.31-4a10.53,10.53,0,0,0-5.27-8.35L36.5,44.7a5.38,5.38,0,0,0-2.65-.7h-3.7a5.38,5.38,0,0,0-2.65.7l-1.61.92A10.53,10.53,0,0,0,20.62,54l-.31,4a3.34,3.34,0,0,1-5.85,1.93L8.77,53.29a23.65,23.65,0,0,1-3.28-26L8.4,21.43A4.38,4.38,0,0,1,12.34,19h2.57A3.09,3.09,0,0,1,18,22.09v1.29a9.15,9.15,0,0,0,.7,3.5L20,30a13,13,0,0,0,24,0l1.3-3.12a9.15,9.15,0,0,0,.7-3.5V22.09A3.09,3.09,0,0,1,49.09,19h2.57a4.38,4.38,0,0,1,3.94,2.43l2.91,5.82a23.65,23.65,0,0,1-3.28,26Z"/><path d="M10.87,47.51A22.72,22.72,0,0,1,8,37L6,37a24.55,24.55,0,0,0,9.38,18.77l1.24-1.58A22.52,22.52,0,0,1,10.87,47.51Z"/><path d="M58,30.68a22.09,22.09,0,0,0-5.24-8.39l-1.42,1.42a19.81,19.81,0,0,1,4.76,7.61A20.8,20.8,0,0,1,57,39c0,.36,0,.69,0,1h2c0-.29,0-.62,0-1A22.57,22.57,0,0,0,58,30.68Z"/></g></svg>
