<svg height="512" viewBox="0 0 64 64" width="512" xmlns="http://www.w3.org/2000/svg"><g id="Artboard_23" data-name="Artboard 23"><path d="m32 1a31 31 0 1 0 31 31 31 31 0 0 0 -31-31zm0 60a29 29 0 1 1 29-29 29 29 0 0 1 -29 29z"/><path d="m32 5a27 27 0 1 0 27 27 27 27 0 0 0 -27-27zm0 52a25 25 0 1 1 25-25 25 25 0 0 1 -25 25z"/><path d="m53 28a19.19 19.19 0 0 0 -5.13-11.63 13.4 13.4 0 0 0 -8.35-4.27c-1.21-.1-3.47-.28-4.74 1.38a4.84 4.84 0 0 0 -.08 5.09c.42.76 1.12 1.55 5.3 3.42.88.39 1.54.66 2 .87 1.13.47 1.23.52 1.42.79a2.44 2.44 0 0 1 .37 1.51 14.34 14.34 0 0 0 .44 3.13c.49 2 .87 3.6 2.34 4.58a4.62 4.62 0 0 0 2.56.76 4 4 0 0 0 2.49-.81c1.03-.82 1.49-2.47 1.38-4.82zm-2.59 3.26a2.44 2.44 0 0 1 -2.68 0c-.79-.53-1.07-1.53-1.52-3.39a13.66 13.66 0 0 1 -.41-2.87 4.2 4.2 0 0 0 -.74-2.58 4.27 4.27 0 0 0 -2.27-1.42c-.49-.21-1.13-.47-2-.86-3.91-1.75-4.23-2.32-4.36-2.57a2.88 2.88 0 0 1 -.08-2.89c.61-.8 2.1-.68 3-.61a11.7 11.7 0 0 1 7.1 3.7 17.25 17.25 0 0 1 4.55 10.3c.11 2.45-.49 3.05-.61 3.15z"/><path d="m43 31a4 4 0 1 0 -4 4 4 4 0 0 0 4-4zm-6 0a2 2 0 1 1 2 2 2 2 0 0 1 -2-2z"/><path d="m40.43 37.82a5.44 5.44 0 0 0 -2.43 2.64c-.43.82-.65 1.19-1.3 1.36-2.36.61-4.73-.37-6.21-1a12.73 12.73 0 0 1 -2.4-1.28 8.22 8.22 0 0 0 -2.6-1.21c-1-.29-4.6-1.05-6.86 1.29a6.07 6.07 0 0 0 -1.19 6.56c2 5.19 10.11 5.8 13.82 5.8h1.85c.52 0 12.7-1 14.59-7.88.54-2 .36-4.71-1.3-6.13s-4.16-1.1-5.97-.15zm5.37 5.72c-1.52 5.46-12.69 6.4-12.8 6.46-3.24.24-12-.09-13.66-4.46a4.07 4.07 0 0 1 .76-4.54 3.89 3.89 0 0 1 2.9-1 7.64 7.64 0 0 1 2 .28 6.16 6.16 0 0 1 2 .95 14.23 14.23 0 0 0 2.8 1.48c1.54.64 4.4 1.83 7.41 1a3.91 3.91 0 0 0 2.57-2.36 3.57 3.57 0 0 1 1.56-1.8c1-.51 2.79-1 3.77-.12s1.07 2.73.69 4.11z"/><path d="m14 33a4 4 0 1 0 4 4 4 4 0 0 0 -4-4zm0 6a2 2 0 1 1 2-2 2 2 0 0 1 -2 2z"/><path d="m22.27 20.72a3.44 3.44 0 0 1 1.54 1.18c.75 1.07.54 2.68.22 3.84a2 2 0 0 1 -.56.94 7.71 7.71 0 0 0 -1.22 1.8c-.66 1.33-1.88 3.79-.84 5.69.72 1.3 2.41 1.83 4 1.83a5.79 5.79 0 0 0 2.19-.39 6.31 6.31 0 0 0 3.09-3.36c2.66-5.67 1.23-15.85-3.87-18.49-.56-.29-3.45-1.65-5.42.15a4.74 4.74 0 0 0 -1.11 4.92 3.39 3.39 0 0 0 1.98 1.89zm.47-5.34c1-.93 3.12.14 3.14.16 4.05 2.09 5.21 11.1 3 15.86a4.39 4.39 0 0 1 -2.06 2.36c-1.16.5-3.23.18-3.63-.55-.55-1 .41-2.91.87-3.85a5.8 5.8 0 0 1 .94-1.36 3.85 3.85 0 0 0 1-1.73c.61-2.26.42-4.16-.53-5.51a5.3 5.3 0 0 0 -2.31-1.83c-.61-.29-.84-.42-1-.82a2.78 2.78 0 0 1 .58-2.73z"/><path d="m18 28a4 4 0 1 0 -4-4 4 4 0 0 0 4 4zm0-6a2 2 0 1 1 -2 2 2 2 0 0 1 2-2z"/><path d="m31 14a3 3 0 1 0 -3-3 3 3 0 0 0 3 3zm0-4a1 1 0 1 1 -1 1 1 1 0 0 1 1-1z"/></g></svg>