<svg height="512" viewBox="0 0 64 64" width="512" xmlns="http://www.w3.org/2000/svg"><g id="Artboard_02" data-name="Artboard 02"><path d="m62.76 31.35-8.58-10.09a29.1 29.1 0 0 0 -44.36 0l-8.58 10.09a1 1 0 0 0 0 1.3l8.58 10.09a29.1 29.1 0 0 0 44.36 0l8.58-10.09a1 1 0 0 0 0-1.3zm-51.42-8.8a27.12 27.12 0 0 1 41.32 0l4.92 5.8-5.38-3.06a41.23 41.23 0 0 0 -40.4 0l-5.38 3.06zm36.66 9.45a16 16 0 1 1 -30.22-7.32c1-.39 2-.72 3-1a14 14 0 1 0 22.44 0c1 .3 2 .63 3 1a16 16 0 0 1 1.78 7.32zm-8.37-9.25a12 12 0 1 1 -15.26 0 39.57 39.57 0 0 1 15.26 0zm13 18.7a27.12 27.12 0 0 1 -41.32 0l-7.76-9.18 9.24-5.27c.76-.43 1.53-.83 2.31-1.21a18 18 0 1 0 33.8 0c.78.38 1.55.78 2.31 1.21l9.24 5.23z"/><path d="m32 38a6 6 0 0 1 -6-6 5.82 5.82 0 0 1 .58-2.57l-1.81-.86a8 8 0 1 0 14.46 0l-1.81.86a5.82 5.82 0 0 1 .58 2.57 6 6 0 0 1 -6 6z"/></g></svg>