<?xml version="1.0" encoding="UTF-8"?>
<svg xmlns="http://www.w3.org/2000/svg" viewBox="0 0 64 64" width="512" height="512"><g id="Artboard_14" data-name="Artboard 14"><path d="M59.94,27.66a43.49,43.49,0,0,0-2.77-6.16,37.74,37.74,0,0,1-2.24-4.85A47.67,47.67,0,0,1,52,2l-2,.1a49.09,49.09,0,0,0,3.06,15.3,41.62,41.62,0,0,0,2.34,5.09,41.06,41.06,0,0,1,2.66,5.9c1.56,4.31,3,8.37,2.94,13.64-.07,3.66-.19,9.78-4.71,14.31A16,16,0,0,1,45,61a7.47,7.47,0,0,1-2.92-.87A41.23,41.23,0,0,0,36.21,58a15.66,15.66,0,0,0-8.48,0,40.17,40.17,0,0,0-5.83,2.09A7.57,7.57,0,0,1,19,61,15.67,15.67,0,0,1,7.71,56.29C3.18,51.76,3.07,45.64,3,42c-.1-5.27,1.38-9.33,2.94-13.64a41.23,41.23,0,0,1,2.65-5.9,40,40,0,0,0,2.35-5.09A49.67,49.67,0,0,0,14,2.05L12,2a47.67,47.67,0,0,1-2.94,14.7A39.31,39.31,0,0,1,6.83,21.5a42.37,42.37,0,0,0-2.77,6.16C2.43,32.14.89,36.38,1,42c.07,4,.2,10.58,5.29,15.69A17.86,17.86,0,0,0,19,63a9.1,9.1,0,0,0,3.67-1,40.19,40.19,0,0,1,5.63-2,13.81,13.81,0,0,1,7.41,0,40.11,40.11,0,0,1,5.57,2A9.14,9.14,0,0,0,45,63h.36A17.87,17.87,0,0,0,57.7,57.71C62.8,52.6,62.92,46,63,42,63.1,36.38,61.56,32.14,59.94,27.66Z"/><path d="M10.14,26.49C8,30.08,7,34.82,7,41v1c0,8.27,5.38,15,12,15a10.21,10.21,0,0,0,5.81-1.87,2.73,2.73,0,0,0,1.17-2,2.81,2.81,0,0,0-.75-2.21l-.82-.86A13.1,13.1,0,0,0,27,42a13.74,13.74,0,0,0-1.68-6.72A3.6,3.6,0,0,0,27,32.62a3.42,3.42,0,0,0-1.17-3,10.64,10.64,0,0,0-5.16-2.5A59.73,59.73,0,0,0,25,15.21,75.92,75.92,0,0,0,26,2H24a73.94,73.94,0,0,1-1,12.79c-.89,4.18-3.74,11.12-4.83,12.62a1,1,0,0,0-.08,1.05A1,1,0,0,0,19,29a8.37,8.37,0,0,1,5.5,2.15A1.46,1.46,0,0,1,25,32.42a1.58,1.58,0,0,1-.8,1.22A6.87,6.87,0,0,0,19,31c-4.41,0-8,4.93-8,11s3.59,11,8,11a6.37,6.37,0,0,0,4-1.49l.78.81A.76.76,0,0,1,24,53a.72.72,0,0,1-.32.54A8.19,8.19,0,0,1,19,55C13.49,55,9,49.17,9,42V41c0-5.81.94-10.22,2.86-13.49a24.4,24.4,0,0,1,2.18-3,30.71,30.71,0,0,0,2.82-4c.22-.36.42-.72.62-1.08A30.31,30.31,0,0,0,21,5V2H19V5a28.16,28.16,0,0,1-3.28,13.46c-.18.34-.38.68-.58,1a28.48,28.48,0,0,1-2.66,3.73A26,26,0,0,0,10.14,26.49ZM13,42.38a4.46,4.46,0,0,1,1.71-1.25l3.57,3.58,1.42-1.42L17.44,41l.66,0a8.31,8.31,0,0,0,3.4-1.14l-1-1.72a6.25,6.25,0,0,1-2.6.86,5.88,5.88,0,0,1-1.34,0,5.5,5.5,0,0,0-1.75,0,5.13,5.13,0,0,0-1.59.63c.69-3.83,3-6.65,5.78-6.65,3.31,0,6,4,6,9s-2.69,9-6,9S13.15,47.16,13,42.38Z"/><path d="M39.59,50.08l-.82.86A2.81,2.81,0,0,0,38,53.15a2.73,2.73,0,0,0,1.17,2A10.24,10.24,0,0,0,45,57c6.62,0,12-6.73,12-15V41c0-6.18-1-10.92-3.14-14.51a26,26,0,0,0-2.34-3.27,30.5,30.5,0,0,1-2.66-3.73c-.2-.34-.4-.68-.58-1A28.27,28.27,0,0,1,45,5V2H43V5a30.28,30.28,0,0,0,3.52,14.42c.2.36.41.72.62,1.08a31.72,31.72,0,0,0,2.82,4,24.4,24.4,0,0,1,2.18,3C54.06,30.78,55,35.19,55,41v1c0,7.17-4.48,13-10,13a8.19,8.19,0,0,1-4.67-1.51A.72.72,0,0,1,40,53a.8.8,0,0,1,.21-.63l.78-.81A6.39,6.39,0,0,0,45,53c4.41,0,8-4.93,8-11s-3.59-11-8-11a6.87,6.87,0,0,0-5.19,2.64,1.58,1.58,0,0,1-.8-1.22,1.46,1.46,0,0,1,.49-1.27A8.37,8.37,0,0,1,45,29a1,1,0,0,0,.89-.54,1,1,0,0,0-.08-1.05C44.73,25.91,41.87,19,41,14.79A73.94,73.94,0,0,1,40,2H38a75.92,75.92,0,0,0,1,13.21,61,61,0,0,0,4.33,11.93,10.64,10.64,0,0,0-5.16,2.5,3.42,3.42,0,0,0-1.17,3,3.6,3.6,0,0,0,1.66,2.66A13.74,13.74,0,0,0,37,42,13.1,13.1,0,0,0,39.59,50.08ZM45,33c2.77,0,5.09,2.82,5.79,6.65a5.28,5.28,0,0,0-1.6-.63,5.5,5.5,0,0,0-1.75,0,5.86,5.86,0,0,1-1.34,0,6.16,6.16,0,0,1-2.59-.86l-1,1.72A8.31,8.31,0,0,0,45.9,41l.66,0-2.27,2.26,1.42,1.42,3.57-3.58A4.46,4.46,0,0,1,51,42.38C50.86,47.16,48.22,51,45,51s-6-4-6-9S41.69,33,45,33Z"/></g></svg>
