<svg height="512" viewBox="0 0 64 64" width="512" xmlns="http://www.w3.org/2000/svg"><g id="Artboard_18" data-name="Artboard 18"><path d="m16 30h2a1 1 0 0 0 1-1v-4a7 7 0 0 0 -14 0h2a5 5 0 0 1 10 0v3h-1a4 4 0 0 0 0 8h2v-2h-2a2 2 0 0 1 0-4z"/><path d="m46.38 35.07a10.87 10.87 0 0 0 -12.09 2.22c-4.52 4.53-8.92 3.76-9.09 3.73a1 1 0 0 0 -.83.21 1 1 0 0 0 -.37.77v1a1 1 0 0 1 -2 0v-5h-2v6.1a3.87 3.87 0 0 1 -3.5 3.9 3.87 3.87 0 0 1 -3.5-3.9 1.09 1.09 0 0 0 0-.26 6.08 6.08 0 0 0 -.36-1.44l-1.4-3.49a5.23 5.23 0 0 0 -1.73-2.18l-2.94-2.26a3.21 3.21 0 0 1 -.5-.46 12.16 12.16 0 0 1 -2.22-12.6c1.67-4.5 4.36-5.41 8.15-5.41 6.18 0 9 5.18 9 10h2v-4a1 1 0 0 1 2 0v1.2a7.37 7.37 0 0 0 10.66 6.59l1.68-.79a5.39 5.39 0 0 1 3.7-.41l9 2.24a7.11 7.11 0 0 0 1.78.22h10.18v-2.05h-10.22a5.26 5.26 0 0 1 -1.3-.16l-8.95-2.24a7.32 7.32 0 0 0 -5.08.56l-.47.23a10 10 0 0 1 5.24-3.39c2.86-.65 7 .11 10.3 1.91.46.25.87.5 1.26.74a6.58 6.58 0 0 0 4.27 1.35 6 6 0 1 0 -6-6h2a4 4 0 1 1 4 4h-.1c-1.12.11-1.89-.37-3.08-1.1-.41-.25-.85-.52-1.34-.79-3.76-2-8.36-2.87-11.7-2.09-4 .91-6.56 4-8.09 6.51a5.23 5.23 0 0 1 -1.8-.18 5.4 5.4 0 0 1 -3.94-5.15v-1.2a3 3 0 0 0 -3-3 3 3 0 0 0 -2.32 1.12 10.35 10.35 0 0 0 -9.68-6.12c-3.91 0-7.84.81-10 6.72a14.15 14.15 0 0 0 2.58 14.63 5.94 5.94 0 0 0 .77.71l2.91 2.25a3.3 3.3 0 0 1 1.1 1.36l1.39 3.48a3.38 3.38 0 0 1 .25 1.3 1 1 0 0 0 0 .24 5.84 5.84 0 0 0 5.5 5.31 5.76 5.76 0 0 0 5.27-4.28 3 3 0 0 0 1.23.28 3 3 0 0 0 3-2.92c1.95.05 5.82-.49 9.71-4.37a8.73 8.73 0 0 1 9.84-1.82h.1c.34.12 8.44 3.09 16.7 0l-.7-1.88c-7.3 2.79-14.74.25-15.27.06z"/><path d="m57 23v2a3 3 0 1 0 -3-3h2a1 1 0 1 1 1 1z"/></g></svg>