<svg height="512" viewBox="0 0 64 64" width="512" xmlns="http://www.w3.org/2000/svg"><g id="Artboard_11" data-name="Artboard 11"><path d="m20 25h12v2h-12z" transform="matrix(.707 -.707 .707 .707 -10.77 26)"/><path d="m62.71 18.87-5.58-5.58a1 1 0 0 0 -1.42 0l-4 4a18.86 18.86 0 0 1 -6.71 4.36l-3.68 1.35-.61.25c.08-.2.17-.4.25-.61l1.39-3.64a19 19 0 0 1 4.33-6.7l4-4a1 1 0 0 0 0-1.42l-5.55-5.59a1 1 0 0 0 -1.41 0l-4 4a18.87 18.87 0 0 1 -6.72 4.37l-3.66 1.39a31.45 31.45 0 0 0 -18.29 18.28l-1.39 3.67a18.87 18.87 0 0 1 -4.33 6.69l-4 4a1 1 0 0 0 -.29.71 1 1 0 0 0 .29.7l5.58 5.58a1 1 0 0 0 1.42 0l4-4a18.86 18.86 0 0 1 6.67-4.33l3.68-1.35.61-.25-.25.61-1.39 3.64a19 19 0 0 1 -4.33 6.7l-4 4a1 1 0 0 0 0 1.42l5.58 5.58a1 1 0 0 0 .7.29 1 1 0 0 0 .71-.29l4-4a18.87 18.87 0 0 1 6.69-4.36l3.67-1.34a31.45 31.45 0 0 0 18.33-18.33l1.34-3.67a18.87 18.87 0 0 1 4.33-6.69l4-4a1 1 0 0 0 .29-.71 1 1 0 0 0 -.25-.73zm-20.71 6.04 3.66-1.39a20.83 20.83 0 0 0 7.4-4.78l3.33-3.33 1.38 1.37-6.19 6.22-.76.31c-4.3 1.69-10.71 4.29-16.37 9.77a31.87 31.87 0 0 0 5-7c.84-.45 1.71-.84 2.55-1.17zm-10.37 18.09-4.25 4.2a39.71 39.71 0 0 1 7.84-12.09 40.28 40.28 0 0 1 12.67-8.42l-4.89 4.94 1.41 1.42 4.94-4.94a40.13 40.13 0 0 1 -8.42 12.66 39.68 39.68 0 0 1 -12.13 7.84l4.25-4.25zm-24.89-1.9a20.89 20.89 0 0 0 4.79-7.4l1.39-3.7a29.5 29.5 0 0 1 17.08-17.08l3.66-1.39a20.89 20.89 0 0 0 7.4-4.79l3.33-3.33 1.41 1.38-6.22 6.21-.75.3c-4.46 1.79-11.21 4.49-17 10.41-5.46 5.56-8 12-9.73 16.27l-.35.89-6.96 6.93-1.38-1.37zm12.9-10.1-4.25 4.26a39.41 39.41 0 0 1 7.84-12.09 39.88 39.88 0 0 1 12.67-8.47l-4.9 4.94 1.42 1.41 4.94-4.93a40.29 40.29 0 0 1 -8.43 12.66 39.56 39.56 0 0 1 -12.13 7.84l4.25-4.25zm2.36 8.09-3.66 1.39a20.83 20.83 0 0 0 -7.4 4.78l-3.36 3.33-1.38-1.37 6.93-6.93.89-.36c4.26-1.7 10.71-4.27 16.27-9.73 5.92-5.82 8.62-12.56 10.4-17l.3-.75 6.23-6.25 1.37 1.38-3.33 3.33a20.83 20.83 0 0 0 -4.78 7.4l-1.39 3.69a29.5 29.5 0 0 1 -17.09 17.09zm-3.23 14a20.83 20.83 0 0 0 4.78-7.4l1.36-3.69c.33-.88.72-1.74 1.13-2.58a31.59 31.59 0 0 0 7.28-5.24c-5.13 5.48-7.61 11.66-9.26 15.82l-.35.89-6.93 6.91-1.37-1.38zm38.49-30.19a20.89 20.89 0 0 0 -4.79 7.4l-1.39 3.7a29.5 29.5 0 0 1 -17.08 17.08l-3.7 1.39a20.89 20.89 0 0 0 -7.4 4.79l-3.33 3.33-1.37-1.38 6.93-6.93.88-.35c4.27-1.7 10.71-4.27 16.27-9.73 5.92-5.82 8.62-12.57 10.41-17l.3-.75 6.22-6.22 1.38 1.37z"/><path d="m32 37h12v2h-12z" transform="matrix(.707 -.707 .707 .707 -15.74 38)"/></g></svg>