<?xml version="1.0" encoding="UTF-8"?>
<svg xmlns="http://www.w3.org/2000/svg" viewBox="0 0 64 64" width="512" height="512"><g id="Artboard_12" data-name="Artboard 12"><path d="M62,11H51a4,4,0,0,1-4-4V2H45V7a6,6,0,0,0,3,5.22A7,7,0,0,0,45,18V44.08a3.87,3.87,0,0,0,.49,1.85A10.22,10.22,0,0,1,39,48a9.8,9.8,0,0,1-3.8-.9A12.4,12.4,0,0,0,43,35.62V18.38a7.36,7.36,0,0,0-3.21-6.08A6,6,0,0,0,43,7V2H41V7a4,4,0,0,1-4,4H36v0l-.37,0h-11A23.7,23.7,0,0,0,1,34.68V58.9a4.1,4.1,0,0,0,8.14.66A11.34,11.34,0,0,0,14.77,56a11.43,11.43,0,0,0,2.57-7.74A4,4,0,0,1,20,52V62h2V52a6,6,0,0,0-1.53-4h5.08A6,6,0,0,0,24,52V62h2V52a4,4,0,0,1,4-4h.6a13.16,13.16,0,0,0,1.9-.16A11.94,11.94,0,0,0,39,50h.4a12.51,12.51,0,0,0,7.51-2.61A4.07,4.07,0,0,0,49,48a5,5,0,0,0,4.29-2.29c3.59-5.63,3.83-17.72,3.76-22.66a1.26,1.26,0,0,1,1.08-1.23C62,21.1,63,18.35,63,17V12A1,1,0,0,0,62,11ZM13.23,54.7a9.24,9.24,0,0,1-3.75,2.65c.66-3.65,2.21-8.07,5.86-9.11A9.34,9.34,0,0,1,13.23,54.7ZM18,46h-.49A6.52,6.52,0,0,1,11,39.49V38H9v1.49a8.52,8.52,0,0,0,4.31,7.39C9,49.12,7.64,55.19,7.19,59.13A2.1,2.1,0,0,1,3,58.9V34.68A21.71,21.71,0,0,1,24.68,13h11A5.38,5.38,0,0,1,41,18.38V35.62c0,.1,0,.2,0,.3a21.49,21.49,0,0,0-5.46-4.77,21.88,21.88,0,0,0-2.88-1.48,8.48,8.48,0,0,0,.33-4.9,8.25,8.25,0,0,0-.29-.92A9.69,9.69,0,0,1,37.15,22l-.3-2a11.74,11.74,0,0,0-5.11,2,9.6,9.6,0,0,0-3.28-2.94l-.92,1.78A6.9,6.9,0,0,1,31,25.23,6.52,6.52,0,0,1,30.75,29a22.45,22.45,0,0,0-7.61-1,6.14,6.14,0,0,1-3.29-2.52A5.89,5.89,0,0,1,19,22.91l-2,.18A7.81,7.81,0,0,0,22,29.68c-.14,1.37-.52,2.87-1.48,3.47a2.91,2.91,0,0,1-1.41.35,7.1,7.1,0,0,0-2.48.59,7.63,7.63,0,0,0-3.46,3.43l1.76,1a5.63,5.63,0,0,1,2.54-2.57,5.18,5.18,0,0,1,1.83-.42,4.83,4.83,0,0,0,2.28-.64c1.34-.83,2.14-2.48,2.39-4.88a19.88,19.88,0,0,1,10.56,2.88,19.6,19.6,0,0,1,6.05,5.84A10.39,10.39,0,0,1,30.62,46ZM61,17c0,.23-.15,2.29-3.24,2.86a3.27,3.27,0,0,0-2.71,3.23c.07,4.75-.14,16.38-3.45,21.56A3.12,3.12,0,0,1,48.93,46,1.93,1.93,0,0,1,47,44.08V18A5,5,0,0,1,52,13h9Z"/></g></svg>
