<?xml version="1.0" encoding="UTF-8"?>
<svg xmlns="http://www.w3.org/2000/svg" viewBox="0 0 64 64" width="512" height="512"><g id="Artboard_16" data-name="Artboard 16"><path d="M52.29,17a7.19,7.19,0,0,0-3.63-1h-1a5,5,0,0,0-3.49,1.45,15.54,15.54,0,0,0-4.06,7.21l-1.91,7.67A15,15,0,0,1,37,27V2a1,1,0,0,0-1-1H28a1,1,0,0,0-1,1V27a15,15,0,0,1-1.24,5.33l-1.91-7.67a15.54,15.54,0,0,0-4.06-7.21A5,5,0,0,0,16.3,16h-1a7.19,7.19,0,0,0-3.63,1C8.49,18.86,1,24.88,1,40V58.59A4.41,4.41,0,0,0,5.4,63H8.62a6.13,6.13,0,0,0,3-.8l4.64-2.66a4,4,0,0,1,2-.54A6.05,6.05,0,0,0,24,54.85l1.81-5.45A28.59,28.59,0,0,0,27,41.55a24.1,24.1,0,0,0,5-8.07,24.1,24.1,0,0,0,5,8.07,28.59,28.59,0,0,0,1.16,7.85L40,54.85A6.05,6.05,0,0,0,45.73,59a4,4,0,0,1,2,.54l4.65,2.66a6.07,6.07,0,0,0,3,.8H58.6A4.41,4.41,0,0,0,63,58.59V40C63,24.88,55.51,18.86,52.29,17ZM35,21H29V19h6Zm0-4H29V15h6Zm0-4H29V11h6Zm0-4H29V7h6Zm0-6V5H29V3ZM23.92,48.77l-1.81,5.45A4,4,0,0,1,18.27,57a6.07,6.07,0,0,0-3,.8l-4.64,2.66a4,4,0,0,1-2,.54H5.4A2.41,2.41,0,0,1,3,58.59V40c0-14.09,6.8-19.59,9.72-21.3a5.19,5.19,0,0,1,2.62-.7h1a2.94,2.94,0,0,1,2.07.86,13.63,13.63,0,0,1,3.54,6.28L24,33.71l-4.85,1.21-5.64-3.75-1.1,1.66,2,1.35a18.94,18.94,0,0,0-2.22,2.17,19.24,19.24,0,0,0-1.57,2.11l1.69,1.08a15.4,15.4,0,0,1,1.4-1.89,15.79,15.79,0,0,1,2.47-2.29l2.22,1.47A1,1,0,0,0,19,37a1,1,0,0,0,.24,0l5.27-1.32A25.77,25.77,0,0,1,25,41.37l-4.81.6-3.39-1.71-.9,1.79,2.43,1.22-4.56,4.56L9.37,46.07l-.74,1.86,3.91,1.56-2.4,4,1.72,1,2.93-4.89,1.76-1.76,1.59,2.65,1.72-1L18,46.41,20.46,44l4.43-.55A23.88,23.88,0,0,1,23.92,48.77ZM33,28.93V28H31v.93a10.82,10.82,0,0,1-.73,3.47,21.57,21.57,0,0,1-3.35,6.15,23.39,23.39,0,0,0-.43-3.23A17.93,17.93,0,0,0,29,27V23h6v4a17.93,17.93,0,0,0,2.51,8.32,23.39,23.39,0,0,0-.43,3.23,21.57,21.57,0,0,1-3.35-6.15A10.82,10.82,0,0,1,33,28.93ZM61,58.59A2.41,2.41,0,0,1,58.6,61H55.38a4,4,0,0,1-2-.54L48.73,57.8a6.07,6.07,0,0,0-3-.8,4,4,0,0,1-3.84-2.78l-1.81-5.45a23.88,23.88,0,0,1-1-5.37l4.43.55L46,46.41l-1.85,3.08,1.72,1,1.59-2.65,1.76,1.76,2.93,4.89,1.72-1-2.4-4,3.91-1.56-.74-1.86-4.39,1.76-4.56-4.56,2.43-1.22-.9-1.79L43.82,42,39,41.37a25.77,25.77,0,0,1,.48-5.72L44.76,37A1,1,0,0,0,45,37a1,1,0,0,0,.55-.17l2.22-1.47a15.79,15.79,0,0,1,2.47,2.29,15.4,15.4,0,0,1,1.4,1.89l1.69-1.08a19.24,19.24,0,0,0-1.57-2.11,18.2,18.2,0,0,0-2.22-2.17l2-1.35-1.1-1.66-5.64,3.75L40,33.71l2.13-8.57a13.63,13.63,0,0,1,3.54-6.28A2.94,2.94,0,0,1,47.7,18h1a5.19,5.19,0,0,1,2.62.7C54.2,20.41,61,25.91,61,40Z"/></g></svg>
