<?xml version="1.0" encoding="UTF-8"?>
<svg xmlns="http://www.w3.org/2000/svg" viewBox="0 0 64 64" width="512" height="512"><g id="Artboard_15" data-name="Artboard 15"><path d="M7.15,24.47a14.26,14.26,0,0,0,0,15.06l1.7-1.06a12.24,12.24,0,0,1,0-12.94Z"/><path d="M56.42,16.35c-3.06-2.5-6.83-3.75-9.62-3.18A8.08,8.08,0,0,0,40,21.25a7.74,7.74,0,0,0,.68,2.8l-2.25.9a1,1,0,0,1-1-.1A1,1,0,0,1,37,24V2H35V24a3,3,0,0,0,3,3,3.15,3.15,0,0,0,1.13-.22l2.38-.95c.31.61.59,1.21.85,1.82l-3.59,1.8A6.84,6.84,0,0,0,35,35.64V62h2V42.81a21.59,21.59,0,0,1,5.48-3l-.11.21C41.26,42.14,40,44.51,40,47s2.12,4.91,5.14,6.21A9.78,9.78,0,0,0,49,54a8.15,8.15,0,0,0,5.68-2.25C58.58,48.06,63,43.87,63,31A18.37,18.37,0,0,0,56.42,16.35ZM39.7,31.27l3.42-1.71c.14.44.27.89.38,1.33.07.24.12.48.18.71s.09.52.13.78a21,21,0,0,0-6.79,3A4.85,4.85,0,0,1,39.7,31.27ZM37,37.81a20.23,20.23,0,0,1,7-3.41,12.28,12.28,0,0,1-.48,3.06A21.43,21.43,0,0,0,37,40.38ZM53.31,50.29a6.65,6.65,0,0,1-7.38,1C43.69,50.37,42,48.49,42,47c0-2,1.09-4,2.14-6l.14-.26.18-.19a22.65,22.65,0,0,1,4.92-3.62l-.76-1.84a16.81,16.81,0,0,0-3,1.84,13.76,13.76,0,0,0,0-5.75c-.06-.25-.12-.51-.19-.78-.11-.43-.24-.86-.37-1.28a11.69,11.69,0,0,0,4.46.9H50L50,28a9.58,9.58,0,0,1-4.53-.9,9.84,9.84,0,0,1-1.49-.9q-.36-.79-.78-1.59A8.16,8.16,0,0,1,42,21.25a6.12,6.12,0,0,1,5.2-6.12c1.82-.37,5,.34,7.95,2.76A16.43,16.43,0,0,1,61,31C61,43,57.09,46.71,53.31,50.29Z"/><path d="M56.85,24.47l-1.7,1.06a12.24,12.24,0,0,1,0,12.94l1.7,1.06a14.26,14.26,0,0,0,0-15.06Z"/><path d="M31,28.94a1.07,1.07,0,0,1-.47.89,1.05,1.05,0,0,1-1,.1L29,29.72V2H27V29.11A7.45,7.45,0,0,0,25.75,29H24.18a3.18,3.18,0,0,1-2.58-1.32c.3-.71.63-1.42,1-2.12A9.82,9.82,0,0,0,24,21.25a8.08,8.08,0,0,0-6.8-8.08c-2.79-.57-6.56.68-9.62,3.18A18.37,18.37,0,0,0,1,31C1,43.87,5.42,48.06,9.31,51.75A8.15,8.15,0,0,0,15,54a9.78,9.78,0,0,0,3.87-.83c3-1.3,5.14-3.85,5.14-6.21a9.27,9.27,0,0,0-.52-2.89,4.07,4.07,0,0,1,1.18.38A4.21,4.21,0,0,1,27,48.24V62h2V48.24a6.19,6.19,0,0,0-3.45-5.58A6.26,6.26,0,0,0,22.76,42h-.13c-.33-.67-.67-1.33-1-2l0,0H23a6,6,0,0,0,5.58-3.84A5.92,5.92,0,0,1,31,40.92V62h2V40.92A7.92,7.92,0,0,0,25.08,33h-2a6,6,0,0,0-3.07.83,12,12,0,0,1,.27-2.23c.06-.23.11-.47.18-.71s.21-.76.32-1.13A5.23,5.23,0,0,0,24.18,31h1.57a5.48,5.48,0,0,1,2,.39l1,.4A3.08,3.08,0,0,0,33,28.94V2H31ZM22,47c0,1.53-1.69,3.41-3.93,4.37a6.65,6.65,0,0,1-7.38-1C6.91,46.71,3,43,3,31A16.43,16.43,0,0,1,8.85,17.89a11.65,11.65,0,0,1,7-2.85,5.06,5.06,0,0,1,1,.09A6.12,6.12,0,0,1,22,21.25a8.16,8.16,0,0,1-1.16,3.36q-.42.8-.78,1.59a9.84,9.84,0,0,1-1.49.9A9.58,9.58,0,0,1,14,28L14,30h.51a11.69,11.69,0,0,0,4.46-.9c-.13.42-.26.85-.37,1.28-.07.27-.13.53-.19.78a13.76,13.76,0,0,0,0,5.75,16.81,16.81,0,0,0-3-1.84l-.76,1.84a22.63,22.63,0,0,1,4.91,3.61l.19.2.14.26C20.91,43,22,45,22,47Zm1.12-12h2a5.88,5.88,0,0,1,1.72.26A4,4,0,0,1,23,38H20.71a11.23,11.23,0,0,1-.47-1.79A4.08,4.08,0,0,1,23.12,35Z"/></g></svg>
