<?xml version="1.0" encoding="UTF-8"?>
<svg xmlns="http://www.w3.org/2000/svg" viewBox="0 0 64 64" width="512" height="512"><g id="Artboard_21" data-name="Artboard 21"><path d="M52.61,11.66C46.59,5.89,38.8,5.09,36,5V2a1,1,0,0,0-1-1H21a1,1,0,0,0-1,1,23.57,23.57,0,0,0,1.71,7.43,11.53,11.53,0,0,0-5.61,5.13c-1.38,2.76-1.4,6,0,9.78A30.1,30.1,0,0,0,23.47,35.5C26.1,38.25,28,40.24,28,44v2a9.42,9.42,0,0,1-5.38-1.65A14.91,14.91,0,0,0,14,42a9.34,9.34,0,0,0-8.35,4.47A11.39,11.39,0,0,0,4,52.53V62a1,1,0,0,0,1,1h5a1,1,0,0,0,1-1V55c0-.41.19-4,5-4a4.44,4.44,0,0,1,2.87,1.06l7.2,6.17A19.81,19.81,0,0,0,58,48.77,61.34,61.34,0,0,0,60,32C60,23.21,57.51,16.36,52.61,11.66Zm3.44,36.55a17.81,17.81,0,0,1-28.68,8.5l-7.2-6.17A6.43,6.43,0,0,0,16,49c-5.54,0-7,3.92-7,6v6H6V52.53a9.42,9.42,0,0,1,1.35-5A7.35,7.35,0,0,1,14,44a13.08,13.08,0,0,1,7.62,2.08A11.41,11.41,0,0,0,28,48h3a11.58,11.58,0,0,0,4.27-.82l3.12-1.25-.74-1.86L34.5,45.32A9.42,9.42,0,0,1,31,46H30V44c0-4.56-2.35-7-5.08-9.88a28,28,0,0,1-7-10.46c-1.16-3.19-1.18-5.94-.06-8.18A9.86,9.86,0,0,1,23.29,11a1,1,0,0,0,.61-.53,1,1,0,0,0,0-.8A27.79,27.79,0,0,1,22.09,3H34V6a1,1,0,0,0,.31.72A1,1,0,0,0,35,7c.1,0,9.52-.3,16.2,6.12C55.73,17.43,58,23.78,58,32A59.61,59.61,0,0,1,56.05,48.21Z"/><path d="M48.32,53.26A15.35,15.35,0,0,1,40.81,57l.38,2a17.39,17.39,0,0,0,8.49-4.24A17.64,17.64,0,0,0,55,45.19l-2-.38A15.49,15.49,0,0,1,48.32,53.26Z"/><path d="M26.41,13.91l-.82-1.82A9,9,0,0,0,20,20c0,2.92,1.17,6.79,4.47,8.85l1.06-1.7C22.93,25.52,22,22.39,22,20A7,7,0,0,1,26.41,13.91Z"/></g></svg>
