<?xml version="1.0" encoding="UTF-8"?>
<svg xmlns="http://www.w3.org/2000/svg" viewBox="0 0 64 64" width="512" height="512"><g id="Artboard_26" data-name="Artboard 26"><path d="M54.65,19.23c2.12-6.77,8-13.5,8.1-13.57A1,1,0,0,0,62.6,4.2l-4-3a1,1,0,0,0-1.4.2L52.37,7.84a13.82,13.82,0,0,0-2.66-3.55C46.45,1,40.26,1,40,1a1,1,0,0,0-1,1V6a1,1,0,0,0,.31.72A1,1,0,0,0,40,7a5.59,5.59,0,0,1,4.22,1.67,5.12,5.12,0,0,1,1.13,2.15L43,9.42l-.1-.05a4.29,4.29,0,0,0-4.78.93,4.68,4.68,0,0,0-1,2,4.74,4.74,0,0,0,.42,3.29L38,17l-.52-.22a9.8,9.8,0,0,0-9.19.87,8.33,8.33,0,0,1-1.57.74L13,23.19A18,18,0,0,0,4,30.13l-.93,1.4A12.53,12.53,0,0,0,1,38.5v.1a12.27,12.27,0,0,0,2.08,6.82l.13.2a15.44,15.44,0,0,0,17.4,6.13l.18-.06a10.14,10.14,0,0,0,7-8.29L29,34.23c.27-.81,2.27-6.83,3.21-9.95a2.94,2.94,0,0,1,1.91-1.93,3,3,0,0,1,2.09.09l3.39,1.47,1.4.7a3.81,3.81,0,0,0,4.63-1.1l1.07-1.42a.23.23,0,0,1,.2-.09.24.24,0,0,1,.2.12L48.15,24A35.66,35.66,0,0,1,53,41.89V62a1,1,0,0,0,1,1h8a1,1,0,0,0,1-1V48.42A55,55,0,0,0,54.65,19.23ZM41,5v-2c1.74.15,5.31.68,7.29,2.66C50.88,8.29,51,10,51,10a1,1,0,0,0,1.8.6l5.4-7.2,2.35,1.76a47.27,47.27,0,0,0-7.29,12A19,19,0,0,0,47.58,12a7.13,7.13,0,0,0-1.84-4.65A7.34,7.34,0,0,0,41,5ZM27.05,33.68a1.29,1.29,0,0,0,0,.19l-1.24,9.27a8.12,8.12,0,0,1-5.59,6.65l-.17.05A13.4,13.4,0,0,1,4.88,44.51l-.14-.2A10.28,10.28,0,0,1,3,38.6v-.1a10.54,10.54,0,0,1,1.77-5.86l.94-1.4a15.9,15.9,0,0,1,7.94-6.16l13.76-4.82a9.47,9.47,0,0,0,1-.43A6.37,6.37,0,0,1,30.17,21a6.62,6.62,0,0,1,.94,1.16,4.85,4.85,0,0,0-.84,1.59C29.28,27,27.07,33.62,27.05,33.68ZM61,61H55V41.89A37.67,37.67,0,0,0,49.88,23L48.8,21.11A2.23,2.23,0,0,0,47,20a2.26,2.26,0,0,0-1.92.89L44,22.31a1.75,1.75,0,0,1-2.14.51l-1.42-.71-.05,0L37,20.61a5,5,0,0,0-3.57-.14,4.44,4.44,0,0,0-.77.35,7.84,7.84,0,0,0-1.11-1.32,7,7,0,0,0-1-.77,7.44,7.44,0,0,1,6.14-.12l.52.22a2,2,0,0,0,2.67-2.43l-.48-1.53a.76.76,0,0,0-.06-.16,2.86,2.86,0,0,1,.18-3.05A2.28,2.28,0,0,1,42,11.18l2.4,1.39c.23.13.47.25.71.36a17,17,0,0,1,6.93,6A53,53,0,0,1,61,48.42Z"/><path d="M15.91,45a7.5,7.5,0,0,1-7.06-3.53l-1.7,1.06A9.51,9.51,0,0,0,15.23,47c.28,0,.57,0,.86,0a9.57,9.57,0,0,0,7.82-5.59l-1.82-.82A7.55,7.55,0,0,1,15.91,45Z"/></g></svg>
