<?xml version="1.0" encoding="UTF-8"?>
<svg xmlns="http://www.w3.org/2000/svg" viewBox="0 0 64 64" width="512" height="512"><g id="Artboard_08" data-name="Artboard 08"><path d="M57,34a5,5,0,0,0-3.43,1.45h0l-9.51,6.37a11.58,11.58,0,0,1,.86-4.43,17.51,17.51,0,0,1,6.64-7.55,15.28,15.28,0,0,1,4.33-2,8.72,8.72,0,0,0,3.8-2.07C62.23,23.29,63.35,19.32,63,14V6a1,1,0,0,0-.45-.83,1,1,0,0,0-.95-.09,37.06,37.06,0,0,1-5.84,2A29.63,29.63,0,0,1,49,8a15.19,15.19,0,0,1-5.76-1,15.28,15.28,0,0,0-4.16-1,13.79,13.79,0,0,0-5.32.74C33,3.43,30.72,1,28,1A27,27,0,0,0,1,28v9.27A25.73,25.73,0,0,0,39,59.89L57.29,50c3.17-.2,5.71-3.7,5.71-8S60.31,34,57,34ZM38.93,8a13.29,13.29,0,0,1,3.65.85A17.06,17.06,0,0,0,49,10a31.4,31.4,0,0,0,7.23-1A39.71,39.71,0,0,0,61,7.49v6.57c.31,4.78-.6,8.21-2.69,10.22a6.74,6.74,0,0,1-3,1.6,17.59,17.59,0,0,0-4.83,2.29,19.42,19.42,0,0,0-7.36,8.45,13.79,13.79,0,0,0-1,5.68c0,.3,0,.59,0,.88l-7.49,5A11.38,11.38,0,0,1,28.36,50H27.19a14,14,0,0,1-7-1.88c.71-4,2.18-6.77,4.4-8.3a12.48,12.48,0,0,1,3-1.41,19.29,19.29,0,0,0,2.83-1.18,6.6,6.6,0,0,1,5,.62,5.51,5.51,0,0,1,1.7,1.7l1.68-1.09a7.76,7.76,0,0,0-2.3-2.3,7.38,7.38,0,0,0-3.13-1.08,16.81,16.81,0,0,0,3.48-4.62l-1.78-.92a14.13,14.13,0,0,1-3.74,4.68,13.46,13.46,0,0,1-4.44,2.31,14.12,14.12,0,0,0-3.5,1.65,9,9,0,0,0-1.13.93,5.06,5.06,0,0,1,.54-3.56,5.44,5.44,0,0,1,1.49-1.41l.27-.2-1.2-1.6-.26.2a7.39,7.39,0,0,0-2,1.91c-1.07,1.63-1.22,3.86-.49,6.6a17,17,0,0,0-2.31,5.85A14.16,14.16,0,0,1,13,35.81v-.94a13.59,13.59,0,0,1,4.38-2.95A14.23,14.23,0,0,1,21.13,31c3.95-.52,12.16-1.6,18.36-5.12a17.47,17.47,0,0,0,4.43-3.51,24.65,24.65,0,0,1,4-3.43,13,13,0,0,0,5.65,1.5,7.87,7.87,0,0,0,2.8-.49,9.08,9.08,0,0,0,3.37-2.25l-1.44-1.38a7.22,7.22,0,0,1-2.63,1.75,8.17,8.17,0,0,1-5.76-.43,48.05,48.05,0,0,1,7.47-3.7l-.72-1.86a48.29,48.29,0,0,0-8.17,4.08,27.59,27.59,0,0,0-6,4.81c-.43.44-.83.85-1.29,1.26A6.09,6.09,0,0,1,41,18.28a6.24,6.24,0,0,1,2.58-3.44l-1.08-1.68A8.26,8.26,0,0,0,39,17.72a8.13,8.13,0,0,0,.53,5.76c-.32.21-.67.42-1.06.65a37.23,37.23,0,0,1-10,3.6A7,7,0,0,0,29,25a8.34,8.34,0,0,0-.1-1A3.53,3.53,0,0,1,29,22.31a4.45,4.45,0,0,1,2.49-2.41l-.88-1.8a6.35,6.35,0,0,0-3.51,3.59,5.32,5.32,0,0,0-.13,2.5A7.26,7.26,0,0,1,27,25a5.71,5.71,0,0,1-1,3.2c-2,.37-3.83.61-5.15.79A15.05,15.05,0,0,0,13,32.21V32A15,15,0,0,1,28,17c3.31,0,6-3.59,6-8,0-.08,0-.15,0-.23A12,12,0,0,1,38.93,8ZM32,9c0,3.25-1.83,6-4,6s-4-2.75-4-6,1.83-6,4-6S32,5.75,32,9Zm6,49.14A23.73,23.73,0,0,1,3,37.27V28A25,25,0,0,1,23.74,3.37,9.54,9.54,0,0,0,22,9a9.08,9.08,0,0,0,2.41,6.39A17,17,0,0,0,11,32v3.81A16.2,16.2,0,0,0,27.19,52h1.17a13.4,13.4,0,0,0,7.26-2.13L51.35,39.34A10.36,10.36,0,0,0,51,42a8.5,8.5,0,0,0,3.46,7.24ZM57,48c-2.17,0-4-2.75-4-6s1.83-6,4-6,4,2.75,4,6S59.17,48,57,48Z"/></g></svg>
