<?xml version="1.0" encoding="UTF-8"?>
<svg xmlns="http://www.w3.org/2000/svg" viewBox="0 0 64 64" width="512" height="512"><g id="Artboard_05" data-name="Artboard 05"><path d="M11.52,47H11A3.19,3.19,0,0,0,7.81,50.2,1.82,1.82,0,0,1,6,52H2a1,1,0,0,0-1,1v4a1,1,0,0,0,1,1H12.07A2.94,2.94,0,0,0,15,55.09V50.52A3.5,3.5,0,0,0,11.52,47ZM13,55.09a.93.93,0,0,1-.93.93H3V54H6A3.82,3.82,0,0,0,9.81,50.2,1.18,1.18,0,0,1,11,49h.52a1.5,1.5,0,0,1,1.5,1.5Z"/><path d="M62,52H58a1.82,1.82,0,0,1-1.81-1.81A3.2,3.2,0,0,0,53,47H52.5a3.5,3.5,0,0,0-3.5,3.5v4.57A2.93,2.93,0,0,0,51.93,58H62a1,1,0,0,0,1-1V53A1,1,0,0,0,62,52Zm-1,4H51.93a.93.93,0,0,1-.93-.93V50.52A1.5,1.5,0,0,1,52.52,49H53a1.19,1.19,0,0,1,1.19,1.19A3.82,3.82,0,0,0,58,54h3Z"/><path d="M11.52,33H11a3.2,3.2,0,0,0-3.19,3.19A1.81,1.81,0,0,1,6,38H2a1,1,0,0,0-1,1v4a1,1,0,0,0,1,1H12.07A2.93,2.93,0,0,0,15,41.07V36.5A3.5,3.5,0,0,0,11.52,33ZM13,41.07a.93.93,0,0,1-.93.93H3V40H6a3.81,3.81,0,0,0,3.81-3.81A1.19,1.19,0,0,1,11,35h.52A1.5,1.5,0,0,1,13,36.5Z"/><path d="M62,38H58a1.81,1.81,0,0,1-1.81-1.81A3.2,3.2,0,0,0,53,33H52.5A3.5,3.5,0,0,0,49,36.5v4.57A2.93,2.93,0,0,0,51.93,44H62a1,1,0,0,0,1-1V39A1,1,0,0,0,62,38Zm-1,4H51.93a.93.93,0,0,1-.93-.93V36.5A1.51,1.51,0,0,1,52.52,35H53a1.19,1.19,0,0,1,1.19,1.19A3.81,3.81,0,0,0,58,40h3Z"/><path d="M11.52,18H11A3.19,3.19,0,0,0,7.81,21.2,1.81,1.81,0,0,1,6,23H2a1,1,0,0,0-1,1v4a1,1,0,0,0,1,1H12.07A2.93,2.93,0,0,0,15,26.09V21.52A3.5,3.5,0,0,0,11.52,18ZM13,26.09a.93.93,0,0,1-.93.93H3V25H6A3.82,3.82,0,0,0,9.81,21.2,1.19,1.19,0,0,1,11,20h.52a1.5,1.5,0,0,1,1.5,1.5Z"/><path d="M62,23H58a1.81,1.81,0,0,1-1.81-1.81A3.2,3.2,0,0,0,53,18H52.5a3.5,3.5,0,0,0-3.5,3.5v4.57A2.93,2.93,0,0,0,51.93,29H62a1,1,0,0,0,1-1V24A1,1,0,0,0,62,23Zm-1,4H51.93a.93.93,0,0,1-.93-.93V21.52A1.5,1.5,0,0,1,52.52,20H53a1.19,1.19,0,0,1,1.19,1.19A3.82,3.82,0,0,0,58,25h3Z"/><path d="M11.52,4H11A3.19,3.19,0,0,0,7.81,7.2,1.81,1.81,0,0,1,6,9H2a1,1,0,0,0-1,1v4a1,1,0,0,0,1,1H12.07A2.93,2.93,0,0,0,15,12.09V7.52A3.5,3.5,0,0,0,11.52,4ZM13,12.09a.93.93,0,0,1-.93.93H3V11H6A3.82,3.82,0,0,0,9.81,7.2,1.19,1.19,0,0,1,11,6h.52A1.5,1.5,0,0,1,13,7.52Z"/><path d="M62,9H58A1.81,1.81,0,0,1,56.19,7.2,3.2,3.2,0,0,0,53,4H52.5A3.5,3.5,0,0,0,49,7.52v4.57A2.93,2.93,0,0,0,51.93,15H62a1,1,0,0,0,1-1V10A1,1,0,0,0,62,9Zm-1,4H51.93a.93.93,0,0,1-.93-.93V7.52A1.5,1.5,0,0,1,52.52,6H53A1.19,1.19,0,0,1,54.19,7.2,3.82,3.82,0,0,0,58,11h3Z"/><path d="M47,6H43V5a1,1,0,0,0-.4-.81,1,1,0,0,0-.89-.15L41,4.27V2a1,1,0,0,0-1-1H24a1,1,0,0,0-1,1V4.27l-.71-.21a1,1,0,0,0-.89.15A1,1,0,0,0,21,5V6H17a1,1,0,0,0-1,1v5a1,1,0,0,0,1,1h4v1a1,1,0,0,0,.71,1l1.29.39v2.91l-.71-.21a1,1,0,0,0-.89.15A1,1,0,0,0,21,19v1H17a1,1,0,0,0-1,1v5a1,1,0,0,0,1,1h4v1a1,1,0,0,0,.71,1l1.29.39v3.9L22.29,33a1,1,0,0,0-.89.16,1,1,0,0,0-.4.8v1H17a1,1,0,0,0-1,1v5a1,1,0,0,0,1,1h4v1a1,1,0,0,0,.71,1l1.29.39v2.93l-.71-.22A1,1,0,0,0,21,48v1H17a1,1,0,0,0-1,1v5a1,1,0,0,0,1,1h4v1a1,1,0,0,0,.71,1l1.29.39V62a1,1,0,0,0,1,1H40a1,1,0,0,0,1-1V58.35L42.29,58A1,1,0,0,0,43,57V56h4a1,1,0,0,0,1-1V50a1,1,0,0,0-1-1H43V48a1,1,0,0,0-1.29-1l-.71.22V44.34L42.29,44A1,1,0,0,0,43,43V42h4a1,1,0,0,0,1-1V36a1,1,0,0,0-1-1H43V34a1,1,0,0,0-.4-.8,1,1,0,0,0-.89-.16l-.71.22v-3.9L42.29,29A1,1,0,0,0,43,28V27h4a1,1,0,0,0,1-1V21a1,1,0,0,0-1-1H43V19a1,1,0,0,0-.4-.81,1,1,0,0,0-.89-.15l-.71.21V15.36L42.29,15A1,1,0,0,0,43,14V13h4a1,1,0,0,0,1-1V7A1,1,0,0,0,47,6ZM25,3H39V4.87l-.72.22a21.84,21.84,0,0,1-12.56,0L25,4.87ZM39,61H25V59l.15,0a23.73,23.73,0,0,0,13.7,0L39,59Zm3-10h4v3H42a1,1,0,0,0-1,1v1.25l-2.72.82a21.84,21.84,0,0,1-12.56,0L23,56.26V55a1,1,0,0,0-1-1H18V51h4a1,1,0,0,0,1-1v-.65l2.15.64a23.85,23.85,0,0,0,13.7,0L41,49.36V50A1,1,0,0,0,42,51Zm-3-3.14-.72.21a21.67,21.67,0,0,1-12.56,0L25,47.87V44.94l.15,0a23.73,23.73,0,0,0,13.7,0l.15,0ZM42,37h4v3H42a1,1,0,0,0-1,1v1.26l-2.72.82a21.84,21.84,0,0,1-12.56,0L23,42.25V41a1,1,0,0,0-1-1H18V37h4a1,1,0,0,0,1-1v-.65l2.15.65a23.85,23.85,0,0,0,13.7,0L41,35.34V36A1,1,0,0,0,42,37Zm-3-3.13-.72.21a21.67,21.67,0,0,1-12.56,0L25,33.86V30l.15,0a23.73,23.73,0,0,0,13.7,0L39,30ZM42,22h4v3H42a1,1,0,0,0-1,1v1.26l-2.72.81a21.67,21.67,0,0,1-12.56,0L23,27.27V26a1,1,0,0,0-1-1H18V22h4a1,1,0,0,0,1-1v-.65l2.15.65a23.85,23.85,0,0,0,13.7,0L41,20.36V21A1,1,0,0,0,42,22Zm-3-3.14-.72.22a21.84,21.84,0,0,1-12.56,0L25,18.87V16l.15,0A23.87,23.87,0,0,0,32,17a23.92,23.92,0,0,0,6.85-1L39,16ZM46,11H42a1,1,0,0,0-1,1v1.26l-2.72.81a21.67,21.67,0,0,1-12.56,0L23,13.27V12a1,1,0,0,0-1-1H18V8h4a1,1,0,0,0,1-1V6.36L25.15,7a23.85,23.85,0,0,0,13.7,0L41,6.36V7a1,1,0,0,0,1,1h4Z"/></g></svg>
