<?xml version="1.0" encoding="UTF-8"?>
<svg xmlns="http://www.w3.org/2000/svg" viewBox="0 0 64 64" width="512" height="512"><g id="Artboard_28" data-name="Artboard 28"><polygon points="28.71 36.29 27.29 37.71 28.59 39 27.29 40.29 28.71 41.71 30.41 40 38 40 38 38 30.41 38 28.71 36.29"/><rect x="40" y="38" width="2" height="2"/><path d="M51.28,30.7c.36.36,2.12,2.3,1.74,4.09C52.57,37,49.62,38,44,38v2c4.28,0,10.07-.5,11-4.79.57-2.72-1.59-5.21-2.26-5.91Z"/><path d="M63,35a6,6,0,0,0-3.26-5.33,6,6,0,0,0-3.16-9.46A5.91,5.91,0,0,0,57,18a6,6,0,0,0-5.08-5.92A6,6,0,0,0,46,7a6.14,6.14,0,0,0-1.29.14,6,6,0,0,0-9.38-2.87A6,6,0,0,0,27,1.82a6,6,0,0,0-8.33,2.43A5.87,5.87,0,0,0,17,4a6,6,0,0,0-6,5.8,6,6,0,0,0-2.92,4.28A6,6,0,0,0,3.79,23,6,6,0,0,0,3,32.49c0,.17,0,.34,0,.51a6,6,0,0,0,8.52,5.45A6,6,0,0,0,17,42a5.9,5.9,0,0,0,3.34-1A6,6,0,0,0,24,44.65a12.18,12.18,0,0,0,3.26,8,12.44,12.44,0,0,0,9.1,3.84,14,14,0,0,0,3.7-.51,5.24,5.24,0,0,1,4.64,3.19l1.37,3.18A1,1,0,0,0,47,63h6a1,1,0,0,0,.93-1.37L49.68,51H51.5a4.5,4.5,0,0,0,3.74-7h1.63A4.13,4.13,0,0,0,61,39.87v-.41A6,6,0,0,0,63,35ZM25,26v0a3,3,0,0,1,5.64-1.43l1.75-1a5.17,5.17,0,0,0-.92-1.2A3,3,0,0,1,37,23.65a1,1,0,0,0,1.13.88,1.06,1.06,0,0,0,.39-.13A3,3,0,0,1,43,27a1,1,0,0,0,1,1,3,3,0,0,1,3,3c0,.07,0,.14,0,.21l-1.35.58A15,15,0,0,1,39.71,33H26a6,6,0,0,0-2.54.57A3,3,0,0,1,22,31a3,3,0,0,1,2.38-2.94,1.14,1.14,0,0,0,.26-.09C25.28,27.64,25.23,27.29,25,26ZM51.52,61H47.66l-1.11-2.58A7.27,7.27,0,0,0,39.85,54,4.86,4.86,0,0,1,35,49.15V47a3,3,0,0,1,3-3h1.81a4.5,4.5,0,0,0,3.74,7h4ZM54,46.5A2.5,2.5,0,0,1,51.5,49h-8a2.5,2.5,0,0,1,0-5h8A2.5,2.5,0,0,1,54,46.5ZM57,39a4,4,0,0,1-1.82-.44l-.91,1.78A6,6,0,0,0,57,41a5.74,5.74,0,0,0,1.82-.29,2.11,2.11,0,0,1-2,1.29H43.5a4.23,4.23,0,0,0-.5,0v0H38a5,5,0,0,0-5,5v2.2a6.85,6.85,0,0,0,2.54,5.32,10.48,10.48,0,0,1-6.81-3.16A10.08,10.08,0,0,1,26,45a6,6,0,0,0,2.1-.39l-.71-1.87A4,4,0,1,1,26,35H39.71a16.83,16.83,0,0,0,6.71-1.38l4-1.7-.78-1.84-.67.29a5,5,0,0,0-4-4.29,5,5,0,0,0-6.26-3.9,5,5,0,0,0-8.88-.84A4.86,4.86,0,0,0,28,21a5,5,0,0,0-5,5v.15a1,1,0,0,0,0,.16l0,.09a5,5,0,0,0-2.32,2.05A3,3,0,0,1,16,26a2.94,2.94,0,0,1,.36-1.42,1,1,0,0,0-.25-1.25A3,3,0,0,1,18,18V16a5,5,0,0,0-3.72,8.34A5.16,5.16,0,0,0,14,26a5,5,0,0,0,5,5,5.68,5.68,0,0,0,1-.11S20,31,20,31a5,5,0,0,0,1.74,3.78A6,6,0,0,0,20,38.59,4,4,0,0,1,17,40a4,4,0,0,1-3.93-3.25,1,1,0,0,0-1.6-.6A3.94,3.94,0,0,1,9,37a4,4,0,0,1-4-4,3.81,3.81,0,0,1,.07-.75,1,1,0,0,0-.4-1A4,4,0,0,1,3,28a4,4,0,0,1,2.06-3.5,5.92,5.92,0,0,0,2,1.18l.65-1.89a4,4,0,0,1,.4-7.68,6,6,0,0,0,1.27,2.71l1.54-1.27a4,4,0,0,1,1.49-6.22,1,1,0,0,0,.6-1c0-.11,0-.22,0-.33a4,4,0,0,1,7-2.59l1.53-1.3a6.34,6.34,0,0,0-1.09-1A4,4,0,0,1,24,3a4,4,0,0,1,3.67,2.4l1.83-.8a6.37,6.37,0,0,0-.84-1.37A4.06,4.06,0,0,1,30,3a4,4,0,0,1,4,4,3.83,3.83,0,0,1-.12,1l1.94.49A5.88,5.88,0,0,0,36,7q0-.3,0-.6a4,4,0,0,1,7,2.14,1.12,1.12,0,0,0,.11.34,1,1,0,0,0,1.3.46A4.05,4.05,0,0,1,46,9a4,4,0,0,1,4,4,3.9,3.9,0,0,1-.59,2.08l1.71,1a5.89,5.89,0,0,0,.76-2A4,4,0,0,1,54.2,20.4a1,1,0,0,0-.09,1.05A1,1,0,0,0,55,22a4,4,0,0,1,2.6,7q-.3,0-.6,0a5.82,5.82,0,0,0-1.5.19l.5,1.94A3.76,3.76,0,0,1,57,31a4,4,0,0,1,0,8Z"/><polygon points="22.71 7.29 21.29 8.71 23.59 11 21.29 13.29 22.71 14.71 25.41 12 33 12 33 10 25.41 10 22.71 7.29"/><path d="M10.67,31.25a3.51,3.51,0,0,1-.74-3.89l-1.86-.72a5.55,5.55,0,0,0,1.26,6.11A5.27,5.27,0,0,0,12.81,34h.24L13,32A3.27,3.27,0,0,1,10.67,31.25Z"/><path d="M53,24a6.7,6.7,0,0,0-2.37-4.73,6.56,6.56,0,0,0-4.8-1.38C45.15,15.63,42.5,15,41,15v2c.12,0,3,0,3,2a1,1,0,0,0,.4.8,1,1,0,0,0,.87.16,4.87,4.87,0,0,1,4.1.82A4.57,4.57,0,0,1,51,24.05Z"/><path d="M34.11,29.12a4.45,4.45,0,0,0,2.73,1.54A22.17,22.17,0,0,0,41,31V29a20.45,20.45,0,0,1-3.84-.31,3,3,0,0,1-2.2-2l-.06-.14a1,1,0,0,0-1-.56,1,1,0,0,0-.85.84A2.9,2.9,0,0,1,30,29h0v2a4.82,4.82,0,0,0,2.44-.53A4.66,4.66,0,0,0,34.11,29.12Z"/></g></svg>
