<?xml version="1.0" encoding="UTF-8"?>
<svg xmlns="http://www.w3.org/2000/svg" viewBox="0 0 64 64" width="512" height="512"><g id="Artboard_09" data-name="Artboard 09"><path d="M53,32c0-8.82-9.42-16-21-16S11,23.18,11,32s9.42,16,21,16S53,40.82,53,32ZM32,18c10.48,0,19,6.28,19,14a1.94,1.94,0,0,1,0,.24c-.28.22-.55.43-.83.62A36.41,36.41,0,0,0,41,32a36,36,0,0,0-8.55,1.35L31.24,33C23,31,22.16,31,21.22,31H21a16.41,16.41,0,0,0-7.82,2.82A10,10,0,0,1,13,32C13,24.28,21.52,18,32,18ZM47.61,34.41A13.14,13.14,0,0,1,41,36a18.6,18.6,0,0,1-4.85-1.36L36,34.57a33.29,33.29,0,0,1,11.6-.16ZM32,46c-8.66,0-16-4.3-18.25-10.15A14.74,14.74,0,0,1,21,33h.25c.73,0,1.49,0,9.51,2a48.93,48.93,0,0,1,4.75,1.54A19.7,19.7,0,0,0,41,38h.56a16.57,16.57,0,0,0,9-3C48.68,41.28,41.08,46,32,46Z"/><path d="M46.11,30.45l1.78-.9A16.31,16.31,0,0,0,37.24,21L36.76,23a14.25,14.25,0,0,1,9.35,7.48Z"/><path d="M61.29,10.63,58.61,7.51C57.47,6.18,57,5.63,57,4.15V4a3,3,0,0,0-3-3H53a3,3,0,0,0-3,3c0,3.08,0,3.34,1.11,5.45a12,12,0,0,0,1.65,2.29C53.86,13,55,14.39,55,16c0,1.23-1.71,2.43-3,3.23C47.22,14.82,40,12,32,12s-15.22,2.82-20,7.23c-1.3-.8-3-2-3-3.23,0-1.61,1.14-3,2.24-4.26a12,12,0,0,0,1.65-2.29C14,7.34,14,7.08,14,4a3,3,0,0,0-3-3H10A3,3,0,0,0,7,4v.15c0,1.48-.47,2-1.61,3.36L2.71,10.63a7.12,7.12,0,0,0,.67,9.94l4.49,4A16,16,0,0,0,6,32c0,8.62,7.08,16.21,17.66,19,.19.21.37.43.55.66C26.83,55,27,59.66,27,61v1h2V61c0-1.49-.2-6.67-3.21-10.61a10,10,0,0,0-.9-1,1,1,0,0,0-.54-.29C14.57,46.59,8,39.74,8,32c0-9.93,10.77-18,24-18s24,8.07,24,18c0,7.37-5.88,13.91-15,16.68a1,1,0,0,0-.46.24,11,11,0,0,0-1.34,1.47C36.2,54.33,36,59.51,36,61v1h2V61c0-1.33.17-6,2.8-9.38a7.84,7.84,0,0,1,.93-1C51.62,47.49,58,40.23,58,32a16,16,0,0,0-1.87-7.44l4.48-4a7.11,7.11,0,0,0,.68-9.94ZM4.71,19.07a5.1,5.1,0,0,1-.48-7.13L6.91,8.81C8.12,7.39,9,6.37,9,4.15V4a1,1,0,0,1,1-1h1a1,1,0,0,1,1,1c0,2.76,0,2.76-.89,4.55a11.14,11.14,0,0,1-1.4,1.9C8.5,11.88,7,13.66,7,16c0,2.11,1.92,3.64,3.57,4.69a19.2,19.2,0,0,0-1.65,2.12Zm54.58,0-4.21,3.74a19.2,19.2,0,0,0-1.65-2.12C55.08,19.64,57,18.11,57,16c0-2.34-1.5-4.12-2.71-5.55a11.14,11.14,0,0,1-1.4-1.9C52,6.76,52,6.76,52,4a1,1,0,0,1,1-1h1a1,1,0,0,1,1,1v.15c0,2.22.88,3.24,2.09,4.66l2.68,3.13a5.1,5.1,0,0,1-.48,7.13Z"/></g></svg>
