<svg height="512" viewBox="0 0 64 64" width="512" xmlns="http://www.w3.org/2000/svg"><g id="Artboard_06" data-name="Artboard 06"><path d="m43 27.73a9.12 9.12 0 0 0 -2.86-6.67l-.81-.78a10.8 10.8 0 0 1 -3.33-7.28v-11a1 1 0 0 0 -1-1h-18a1 1 0 0 0 -1 1v11a10.8 10.8 0 0 1 -3.35 7.28l-.81.78a9 9 0 0 0 -1 12.11 9.52 9.52 0 0 0 4.16 3.13 9.09 9.09 0 0 0 1.37 4.84 4.25 4.25 0 0 0 -1.73.81c-1.78 1.43-2 4-1.35 5.85a.75.75 0 0 0 .06.13l.65 1.37a2.58 2.58 0 0 1 0 .7l-3 11.75a1 1 0 0 0 .18.86 1 1 0 0 0 .82.39h6a1 1 0 0 0 1-.82l1.69-9.29a2.85 2.85 0 0 1 1.31-1.89v11a1 1 0 0 0 1 1h18a1 1 0 0 0 1-1v-11a10.8 10.8 0 0 1 3.35-7.28l.81-.78a9 9 0 0 0 1-12.11 9.53 9.53 0 0 0 -4.16-3.1zm-30.55 4.27a7.08 7.08 0 0 1 .78-9.47l.8-.78a12.66 12.66 0 0 0 3.97-8.75v-10h16v10a12.66 12.66 0 0 0 4 8.72l.8.78a7.08 7.08 0 0 1 .75 9.5 7.85 7.85 0 0 1 -9.06 2.5l-.94-.36a9.88 9.88 0 0 0 -7.1 0l-.94.36a7.85 7.85 0 0 1 -9.06-2.5zm8.55 17.25a4.81 4.81 0 0 0 -2.26 3.28l-1.57 8.47h-3.88l2.71-10.58a.43.43 0 0 0 0-.11 4.83 4.83 0 0 0 0-1.47 1.15 1.15 0 0 0 -.09-.28l-.72-1.44a3.52 3.52 0 0 1 .72-3.62 2.63 2.63 0 0 1 1.62-.5h3.65a2.83 2.83 0 0 1 2.82 2.83 2.86 2.86 0 0 1 -1.37 2.43zm23.8-7.75-.8.78a12.66 12.66 0 0 0 -4 8.72v10h-16v-10a10.15 10.15 0 0 0 -.09-1.21 4.82 4.82 0 0 0 -2.74-8.79h-2.4a7.14 7.14 0 0 1 -1.77-4.15 9.6 9.6 0 0 0 5.19-.51l.94-.37a7.94 7.94 0 0 1 5.68 0l.94.37a9.84 9.84 0 0 0 11.36-3.17 9 9 0 0 0 1.61-3.4 7.52 7.52 0 0 1 2.83 2.23 7.08 7.08 0 0 1 -.78 9.5z"/><path d="m54.92 29-1.35-5.22a5.28 5.28 0 0 0 -1.89-2.84l-3-2.29a3.11 3.11 0 0 0 -2.84-.49 3 3 0 0 0 -1.79 1.52 3 3 0 0 0 -.15 2.26l1.15 3.3a3.65 3.65 0 0 0 .95 1.45l4.8 4.61a2.48 2.48 0 0 0 1.73.7 2.45 2.45 0 0 0 1.09-.25 2.4 2.4 0 0 0 1.3-2.75zm-2.17 1a.5.5 0 0 1 -.56-.08l-4.78-4.62a1.61 1.61 0 0 1 -.43-.67l-1.15-3.3a.92.92 0 0 1 .05-.71 1 1 0 0 1 .61-.52 1.13 1.13 0 0 1 1 .17l3 2.29a3.3 3.3 0 0 1 1.18 1.76l1.33 5.17a.4.4 0 0 1 -.25.51z"/><path d="m26.08 29a5.63 5.63 0 0 1 5.09 2.55l1.66-1.1a7.64 7.64 0 0 0 -6.91-3.45 7.87 7.87 0 0 0 -5.76 3.45l1.68 1.1a5.86 5.86 0 0 1 4.24-2.55z"/><path d="m36.11 44.55a13.91 13.91 0 0 0 -1.11 6.92v.53h2c0-.16 0-.37 0-.62a12.05 12.05 0 0 1 .91-5.93 10 10 0 0 1 3.59-3.57l-1-1.75a11.78 11.78 0 0 0 -4.39 4.42z"/><path d="m35.57 24.88 1-1.75a10.1 10.1 0 0 1 -3.57-3.58 11.82 11.82 0 0 1 -1-5.93c0-.25 0-.46 0-.62h-2v.53a13.88 13.88 0 0 0 1.12 6.92 12 12 0 0 0 4.45 4.43z"/></g></svg>