<svg height="512" viewBox="0 0 64 64" width="512" xmlns="http://www.w3.org/2000/svg"><g id="Artboard_04" data-name="Artboard 04"><path d="m48.15 63a7.06 7.06 0 0 1 -5.15-2c-3.44-3.51-2.2-10.48 2.77-15.55 3-3 6.75-4.84 10.11-4.84a7 7 0 0 1 5.17 2c3.44 3.5 2.2 10.47-2.77 15.54-2.99 3.04-6.77 4.85-10.13 4.85zm7.7-20.4c-2.83 0-6.08 1.59-8.68 4.24-4.21 4.3-5.46 10-2.78 12.75a5.13 5.13 0 0 0 3.75 1.41c2.83 0 6.08-1.59 8.68-4.24 4.21-4.3 5.46-10 2.78-12.74a5.1 5.1 0 0 0 -3.75-1.42z"/><path d="m48.32 55.55-.64-1.9a8 8 0 0 0 5.32-7.07h2c0 .11-.21 6.77-6.68 8.97z"/><path d="m15.86 63c-3.37 0-7.15-1.81-10.12-4.84-5-5.07-6.21-12-2.77-15.54h.03a7 7 0 0 1 5.17-2c3.37 0 7.15 1.81 10.12 4.84 5 5.07 6.21 12 2.77 15.55a7.06 7.06 0 0 1 -5.2 1.99zm-7.72-20.4a5.1 5.1 0 0 0 -3.75 1.4c-2.68 2.75-1.39 8.46 2.78 12.76 2.6 2.65 5.83 4.24 8.69 4.24a5.13 5.13 0 0 0 3.75-1.41c2.68-2.74 1.43-8.45-2.78-12.75-2.6-2.65-5.83-4.24-8.69-4.24z"/><path d="m15.68 55.55c-6.47-2.2-6.68-8.86-6.68-8.93h2a7.91 7.91 0 0 0 5.32 7.07z"/><path d="m32 53c-5.49 0-9.85-3-10-6.82a5.58 5.58 0 0 1 1.67-4.07 11.48 11.48 0 0 1 8.1-3.11c5.57-.07 10.09 2.91 10.23 6.82a5.58 5.58 0 0 1 -1.67 4.07 11.48 11.48 0 0 1 -8.1 3.11zm0-12h-.2a9.51 9.51 0 0 0 -6.68 2.48 3.66 3.66 0 0 0 -1.12 2.63c.1 2.72 3.87 5 8.2 4.89a9.51 9.51 0 0 0 6.68-2.48 3.66 3.66 0 0 0 1.12-2.63c-.1-2.68-3.74-4.89-8-4.89z"/><path d="m32.92 46.78a9.45 9.45 0 0 1 -5.56-2l1.28-1.54c.13.11 3.39 2.73 6.9.88l.92 1.78a7.6 7.6 0 0 1 -3.54.88z"/><path d="m32 37a10.24 10.24 0 0 1 -4.78-1.18 9.57 9.57 0 0 1 -4.48-12.2l8.32-22a1 1 0 0 1 1.88 0l8.33 22a9.56 9.56 0 0 1 -4.49 12.17 10.24 10.24 0 0 1 -4.78 1.21zm0-32.18-7.4 19.53a7.59 7.59 0 0 0 3.56 9.65 8.22 8.22 0 0 0 7.68 0 7.58 7.58 0 0 0 3.57-9.66z"/><path d="m33.2 33-.5-2a4.39 4.39 0 0 0 2.45-1.63 4.56 4.56 0 0 0 .85-3.23l2-.28a6.53 6.53 0 0 1 -1.19 4.74 6.45 6.45 0 0 1 -3.61 2.4z"/></g></svg>