<?xml version="1.0" encoding="UTF-8"?>
<svg xmlns="http://www.w3.org/2000/svg" viewBox="0 0 64 64" width="512" height="512"><g id="Artboard_13" data-name="Artboard 13"><path d="M63,10c0-4.46-5-9-10-9a11.14,11.14,0,0,0-7.66,3.25L41.8,7.4,37.64,5.93a17,17,0,0,0-11.28,0L22.2,7.4,18.72,4.31A11.18,11.18,0,0,0,11,1C6.05,1,1,5.54,1,10c0,4.66,1.87,8.3,5.25,10.34C7.05,22.47,9.73,24,13,24a9.57,9.57,0,0,0,2.25-.26l.61,6.19a11.13,11.13,0,0,0,2.21,6.17l5.32,7.09a3.11,3.11,0,0,1,.05,3.68l-1.39,1.94a8.36,8.36,0,0,0-1.4,6.52L22,62.2l2-.4-1.37-6.86a6.39,6.39,0,0,1,1.06-5L25.06,48A5.07,5.07,0,0,0,25,42L19.67,34.9a9.19,9.19,0,0,1-1.82-5.12L17.19,23A4.71,4.71,0,0,0,20,19c0-1.93-1.46-3.57-3.64-4.41L16.3,14a3,3,0,0,1,1.46-2.86l2.62,2.62A5.56,5.56,0,0,1,22,17.71v5.14a7.13,7.13,0,0,0,1.56,4.45L24.94,29a4.92,4.92,0,0,1,1.06,3v1a8.52,8.52,0,0,0,1.7,5.1A6.53,6.53,0,0,1,29,42v3.7a5.93,5.93,0,0,1-1.18,3.54l-.61.81A6.1,6.1,0,0,0,26,53.69V62h2V53.69a4.11,4.11,0,0,1,.81-2.44l.61-.81A7.94,7.94,0,0,0,31,45.7V42a8.52,8.52,0,0,0-1.7-5.1A6.53,6.53,0,0,1,28,33v-1a6.86,6.86,0,0,0-1.5-4.28l-1.38-1.72A5.15,5.15,0,0,1,24,22.85V17.71a7.5,7.5,0,0,0-2.21-5.34l-5-5.06A6.76,6.76,0,0,0,5.21,9.76a6.69,6.69,0,0,0,1.92,6.48,4.23,4.23,0,0,0-.94,1.6C4.11,16.09,3,13.42,3,10s4.19-7,8-7a9.33,9.33,0,0,1,6.34,2.75l5.26,4.68A14.15,14.15,0,0,0,32,14a14.15,14.15,0,0,0,9.4-3.57l5.32-4.74A9.29,9.29,0,0,1,53,3c3.81,0,8,3.66,8,7s-1.11,6.09-3.19,7.84a4.23,4.23,0,0,0-.94-1.6,6.69,6.69,0,0,0,1.92-6.48A6.75,6.75,0,0,0,47.28,7.29l-5.07,5.08A7.5,7.5,0,0,0,40,17.71v5.14a5.15,5.15,0,0,1-1.12,3.2L37.5,27.77A6.86,6.86,0,0,0,36,32.05v1a6.53,6.53,0,0,1-1.3,3.9A8.52,8.52,0,0,0,33,42v3.7a7.94,7.94,0,0,0,1.58,4.74l.61.81A4.11,4.11,0,0,1,36,53.69V62h2V53.69a6.1,6.1,0,0,0-1.21-3.64l-.61-.81A5.93,5.93,0,0,1,35,45.7V42a6.53,6.53,0,0,1,1.3-3.9A8.52,8.52,0,0,0,38,33v-1a4.92,4.92,0,0,1,1.06-3l1.38-1.72A7.13,7.13,0,0,0,42,22.85V17.71a5.56,5.56,0,0,1,1.62-3.93l2.62-2.62A3.07,3.07,0,0,1,47.7,14l-.06.57C45.46,15.43,44,17.07,44,19a4.71,4.71,0,0,0,2.81,4l-.67,6.8a9.08,9.08,0,0,1-1.81,5.07L39,42a5.07,5.07,0,0,0-.07,6L40.33,50a6.39,6.39,0,0,1,1.06,5L40,61.8l2,.4,1.37-6.87A8.36,8.36,0,0,0,42,48.81l-1.39-1.94a3.11,3.11,0,0,1,0-3.68l5.32-7.09A11.11,11.11,0,0,0,48.14,30l.61-6.24A9.57,9.57,0,0,0,51,24c3.27,0,6-1.53,6.75-3.66C61.13,18.3,63,14.66,63,10ZM18,19c0,1.63-2.29,3-5,3s-5-1.37-5-3,2.29-3,5-3S18,17.37,18,19ZM7.14,10.29A4.72,4.72,0,0,1,11.27,7a4.85,4.85,0,0,1,4,1.68l1,1a5,5,0,0,0-2,4.37A9.29,9.29,0,0,0,13,14a9.06,9.06,0,0,0-4.26,1A4.81,4.81,0,0,1,7.14,10.29ZM32,12a12.11,12.11,0,0,1-8.07-3.07h0L27,7.81a15,15,0,0,1,9.94,0l3.12,1.11h0A12.11,12.11,0,0,1,32,12ZM47.67,9.72l1.07-1.07a4.79,4.79,0,0,1,4-1.63,4.72,4.72,0,0,1,4.13,3.27A4.81,4.81,0,0,1,55.26,15,9.06,9.06,0,0,0,51,14a9.29,9.29,0,0,0-1.31.09A5,5,0,0,0,47.67,9.72ZM51,22c-2.71,0-5-1.37-5-3s2.29-3,5-3,5,1.37,5,3S53.71,22,51,22Z"/></g></svg>
