<?xml version="1.0" encoding="UTF-8"?>
<svg xmlns="http://www.w3.org/2000/svg" viewBox="0 0 64 64" width="512" height="512"><g id="Artboard_22" data-name="Artboard 22"><path d="M24.53,52H23.3a5.32,5.32,0,0,0-2.94.89l-1.21.81a3.4,3.4,0,0,1-1.18.49l-.71.14A5.31,5.31,0,0,0,13,59.53V62a1,1,0,0,0,1,1H29a1,1,0,0,0,1-1V57.3a5.29,5.29,0,0,0-.89-2.94A5.38,5.38,0,0,0,24.53,52ZM28,61H15V59.53a3.32,3.32,0,0,1,2.66-3.24l.7-.14a5.29,5.29,0,0,0,1.9-.79l1.21-.81A3.33,3.33,0,0,1,23.3,54h1.23a3.38,3.38,0,0,1,2.92,1.47A3.3,3.3,0,0,1,28,57.3Z"/><path d="M61.22,26.92,59.4,24.05a13,13,0,0,0-11-6.05A13.14,13.14,0,0,0,40,21L38.47,22.3A3,3,0,0,0,36,21V19a3,3,0,0,0,3-3V14a3,3,0,0,0-3-3V9a3,3,0,0,0,3-3V4a3,3,0,0,0-3-3H28a3,3,0,0,0-3,3V6a3,3,0,0,0,3,3v2a3,3,0,0,0-3,3v2a3,3,0,0,0,3,3v2a3,3,0,0,0-2.47,1.3L24,21a13.14,13.14,0,0,0-8.37-3,13,13,0,0,0-11,6.05L2.78,26.92a11.36,11.36,0,0,0,2.48,15l3.49,2.79A6,6,0,0,1,11,49.36,3.64,3.64,0,0,0,14.64,53h.43a3.64,3.64,0,0,0,2.28-.8l2.44-2A5.7,5.7,0,0,1,23.35,49H25a5.65,5.65,0,0,1,3.16,1,6.24,6.24,0,0,0,3.45,1h.84a6.24,6.24,0,0,0,3.45-1A5.65,5.65,0,0,1,39,49h1.62a5.7,5.7,0,0,1,3.56,1.25l2.44,2a3.64,3.64,0,0,0,2.28.8h.43A3.64,3.64,0,0,0,53,49.36a6,6,0,0,1,2.25-4.68l3.49-2.79a11.36,11.36,0,0,0,2.48-15ZM27,6V4a1,1,0,0,1,1-1h8a1,1,0,0,1,1,1V6a1,1,0,0,1-1,1H28A1,1,0,0,1,27,6Zm3,3h4v2H30Zm-3,7V14a1,1,0,0,1,1-1h8a1,1,0,0,1,1,1v2a1,1,0,0,1-1,1H28A1,1,0,0,1,27,16Zm3,3h4v2H30Zm-3,5a1,1,0,0,1,1-1h8a1,1,0,0,1,1,1v2a1,1,0,0,1-1,1H28a1,1,0,0,1-1-1Zm2.71,11.29a2.37,2.37,0,0,1-.71-1.7V29h6v4.59a2.37,2.37,0,0,1-.71,1.7A4.42,4.42,0,0,0,33,38.41V41H31V38.41A4.42,4.42,0,0,0,29.71,35.29ZM25,41a3.93,3.93,0,0,1-3.9-3.08L21,37.41a4,4,0,0,1,.55-2.34A3.72,3.72,0,0,1,24.93,33H27v.59a4.42,4.42,0,0,0,1.29,3.12,2.37,2.37,0,0,1,.71,1.7V41Zm10-2.59a2.37,2.37,0,0,1,.71-1.7A4.42,4.42,0,0,0,37,33.59V33h2.07a3.72,3.72,0,0,1,3.35,2.07A4,4,0,0,1,43,37.4l-.09.52A3.93,3.93,0,0,1,39,41H35Zm22.49,1.92L54,43.12a7.93,7.93,0,0,0-3,6.24A1.65,1.65,0,0,1,49.36,51h-.43a1.65,1.65,0,0,1-1-.36l-2.44-2A7.72,7.72,0,0,0,40.65,47H39a7.71,7.71,0,0,0-4.27,1.29,4.24,4.24,0,0,1-2.34.71h-.84a4.24,4.24,0,0,1-2.34-.71A7.71,7.71,0,0,0,25,47H23.35a7.72,7.72,0,0,0-4.81,1.69l-2.44,2a1.65,1.65,0,0,1-1,.36h-.43A1.65,1.65,0,0,1,13,49.36a7.93,7.93,0,0,0-3-6.24L6.51,40.33A9.38,9.38,0,0,1,4.46,28l1.83-2.86a11.07,11.07,0,0,1,16.43-2.56L25,24.47V26a3,3,0,0,0,2,2.82V31H24.93a5.73,5.73,0,0,0-5.14,3.17,5.81,5.81,0,0,0-.73,3.57l.08.51A5.9,5.9,0,0,0,25,43H39a5.9,5.9,0,0,0,5.88-4.75l.08-.52a5.79,5.79,0,0,0-.73-3.56A5.73,5.73,0,0,0,39.07,31H37V28.82A3,3,0,0,0,39,26V24.47l2.28-1.9a11.07,11.07,0,0,1,16.43,2.56L59.54,28a9.38,9.38,0,0,1-2,12.34Z"/><path d="M46.74,54.33,46,54.19a3.4,3.4,0,0,1-1.18-.49l-1.21-.81A5.32,5.32,0,0,0,40.7,52H39.47a5.38,5.38,0,0,0-4.58,2.36A5.29,5.29,0,0,0,34,57.3V62a1,1,0,0,0,1,1H50a1,1,0,0,0,1-1V59.53A5.31,5.31,0,0,0,46.74,54.33ZM49,61H36V57.3a3.3,3.3,0,0,1,.55-1.83A3.38,3.38,0,0,1,39.47,54H40.7a3.33,3.33,0,0,1,1.83.55l1.21.81a5.29,5.29,0,0,0,1.9.79l.7.14A3.32,3.32,0,0,1,49,59.53Z"/><path d="M49.07,23l-.14,2a7.94,7.94,0,0,1,5.31,2.65A8,8,0,0,1,56,33.85l2,.3a10,10,0,0,0-2.23-7.8A9.86,9.86,0,0,0,49.07,23Z"/><path d="M8.24,26.35A10,10,0,0,0,6,34.15l2-.3a8,8,0,0,1,1.77-6.2A7.94,7.94,0,0,1,15.07,25l-.14-2A9.86,9.86,0,0,0,8.24,26.35Z"/></g></svg>
