<svg height="512" viewBox="0 0 64 64" width="512" xmlns="http://www.w3.org/2000/svg"><g id="Artboard_25" data-name="Artboard 25"><path d="m56.67 40.75a43 43 0 0 0 -9-6 5.56 5.56 0 0 1 -3.08-4.43l-2.23-20.97a9.34 9.34 0 0 0 -9.29-8.35h-2.14a9.34 9.34 0 0 0 -9.29 8.35l-2.25 20.94a5.56 5.56 0 0 1 -3.08 4.43 43 43 0 0 0 -9 6 12.7 12.7 0 0 0 8.38 22.28h32.62a12.7 12.7 0 0 0 8.36-22.25zm-34.48 20.25-7.57-3a2.58 2.58 0 0 1 1-5h2.38a5.43 5.43 0 0 1 4.88 3l1.29 2.57a8.06 8.06 0 0 0 1.83 2.43zm15.81 0a8.06 8.06 0 0 0 1.86-2.41l1.25-2.59a5.43 5.43 0 0 1 4.89-3h2.43a2.58 2.58 0 0 1 1 5l-7.57 3zm10.35 0h-1.16l2.93-1.17a4.58 4.58 0 0 0 -1.7-8.83h-2.42a7.41 7.41 0 0 0 -6.67 4.13l-1.33 2.56a5.93 5.93 0 0 1 -5.31 3.31h-1.38a5.93 5.93 0 0 1 -5.31-3.31l-1.29-2.56a7.41 7.41 0 0 0 -6.71-4.13h-2.42a4.58 4.58 0 0 0 -1.7 8.83l2.93 1.17h-1.12a10.69 10.69 0 0 1 -7-18.74 40.6 40.6 0 0 1 8.56-5.75 7.59 7.59 0 0 0 4.17-6l2.24-21a7.36 7.36 0 0 1 7.27-6.51h2.14a7.36 7.36 0 0 1 7.31 6.56l2.24 21a7.59 7.59 0 0 0 4.17 6 40.6 40.6 0 0 1 8.56 5.75 10.69 10.69 0 0 1 -7 18.74z"/><path d="m34 6 .28-.18.54-.39z"/><path d="m34.84 5.46-.56.36-1.09.77a16.94 16.94 0 0 1 2.81 5.65 48.59 48.59 0 0 1 1 10.76h2a49.52 49.52 0 0 0 -1-11.24 18.93 18.93 0 0 0 -3.16-6.3z"/></g></svg>