<?xml version="1.0" ?><svg id="Layer_1" style="enable-background:new 0 0 1024 1024;" version="1.1" viewBox="0 0 1024 1024" xml:space="preserve" xmlns="http://www.w3.org/2000/svg" xmlns:xlink="http://www.w3.org/1999/xlink"><style type="text/css">
	.st0{fill:#FFDCDC;}
	.st1{fill:#FFFFFF;}
	.st2{fill:none;stroke:#D34848;stroke-width:20;stroke-miterlimit:10;}
	.st3{fill:none;stroke:#FFFFFF;stroke-width:20;stroke-miterlimit:10;}
</style><g><path class="st0" d="M940.79,580.21c0,0-40.49,45.89-92.66,91.62c-94.25,82.63-177.74,92.62-336.13,71.09   c-158.39,21.53-241.88,11.54-336.13-71.09c-52.17-45.73-92.66-91.62-92.66-91.62c2.03-2.62,4.01-5.19,5.96-7.71   c61.32-79.39,83.98-108.06,125.04-161.15c111.83-144.6,264.63-78.53,274.99-72.3c12,7.21,22.8,7.22,22.8,7.22s10.8-0.01,22.8-7.22   c10.36-6.23,160.28-79.49,274.99,72.3c40.51,53.62,63.69,81.79,125.04,161.15C936.78,575.02,938.76,577.58,940.79,580.21z"/><path class="st1" d="M317.98,528.71c0,0,190.08-83.68,388.04,0C706.02,528.71,595.35,574.08,317.98,528.71z" id="XMLID_34_"/><path class="st2" d="M512,742.91c158.39,21.53,241.88,11.54,336.13-71.09c52.16-45.73,92.66-91.61,92.66-91.61   c-65.86-85.32-89.2-113.55-131-168.86c-114.71-151.79-264.63-78.53-274.99-72.31c-12.01,7.21-22.8,7.23-22.8,7.23   s-10.8-0.01-22.8-7.23c-10.36-6.22-163.16-72.3-274.99,72.31c-42.36,54.77-65.14,83.54-131,168.86c0,0,40.5,45.89,92.66,91.61   C270.12,754.46,353.61,764.44,512,742.91z" id="XMLID_357_"/><path class="st2" d="M83.21,580.21c0,0,35.67,29.73,99.05-1.8c83.08-41.32,124.72-45.62,135.72-49.71" id="XMLID_196_"/><path class="st3" d="M330.84,686.58c30.2,7.26,63.93,8.01,106.24,4.42" id="XMLID_195_"/><path class="st3" d="M247.38,644.34c15.7,12.35,30.96,22.01,46.65,29.36" id="XMLID_193_"/><path class="st2" d="M706.02,528.71c0,0,52.65,3,135.72,44.32c63.38,31.52,99.05,7.19,99.05,7.19" id="XMLID_192_"/><path class="st2" d="M317.98,528.71c0,0,190.08-83.68,388.04,0C706.02,528.71,595.35,574.08,317.98,528.71z" id="XMLID_190_"/><path class="st2" d="M473.91,489.17c0,0-24.42-18.14-30.62-62.78" id="XMLID_28_"/><path class="st2" d="M570.68,491.96c0,0,23.57-26.51,27.3-66.96" id="XMLID_27_"/><path class="st2" d="M650.09,508.7c0,0,42.18-18.14,50.87-59.99" id="XMLID_25_"/><path class="st2" d="M735.7,532.41c0,0,32.26-8.37,45.91-37.67" id="XMLID_24_"/><path class="st2" d="M372.17,508.7c0,0-37.22-27.9-39.7-61.38" id="XMLID_22_"/><path class="st2" d="M284.42,537.55c0,0-34.74-20.93-37.22-48.83" id="XMLID_21_"/><path class="st2" d="M558.33,549.49c0,0,34.51,25.87,40.26,76.53" id="XMLID_20_"/><path class="st2" d="M650.35,538.71c0,0,32.59,23.71,40.26,45.27" id="XMLID_19_"/><path class="st2" d="M362.78,536.56c0,0-26.84,14.01-38.34,46.35" id="XMLID_14_"/><path class="st2" d="M454.81,547.33c0,0-30.67,17.25-42.18,75.45" id="XMLID_13_"/><path class="st2" d="M63,556.4c0,0,7.53,18.85,20.21,23.81c0,0-16.1,21.4-16.1,31.67" id="XMLID_12_"/><path class="st2" d="M961,556.4c0,0-7.53,18.85-20.21,23.81c0,0,16.1,21.4,16.1,31.67" id="XMLID_9_"/></g></svg>