<svg height="512" viewBox="0 0 64 64" width="512" xmlns="http://www.w3.org/2000/svg"><g id="Artboard_19" data-name="Artboard 19"><path d="m61.17 11a6 6 0 0 0 -8.17-8.2 6 6 0 0 0 -6.53.3 6 6 0 0 0 -7 0 6 6 0 0 0 -7 0 6 6 0 0 0 -7 0 6 6 0 0 0 -7 0 6 6 0 0 0 -7 0 6 6 0 0 0 -9.47 4.9 6.06 6.06 0 0 0 .76 2.93l.09.12-.05-.05a6 6 0 0 0 .73 7 6 6 0 0 0 .05 8h-.05a6 6 0 0 0 0 8 6 6 0 0 0 0 8h.05a6 6 0 0 0 6.42 9.65 6 6 0 0 0 6 5.35v5h4v-6.53a6 6 0 0 0 -6-10.12 6 6 0 0 0 -1.53-3.35h-.05a6 6 0 0 0 .05-8h-.05a6 6 0 0 0 0-8.09l.06.05a6 6 0 0 0 -.05-8h.05a6 6 0 0 0 1.52-3.96l-.16-.12a6.34 6.34 0 0 0 1.16.12 6 6 0 0 0 3.5-1.13 5.95 5.95 0 0 0 7.07 0 6 6 0 0 0 7 0 5.95 5.95 0 0 0 7 0 6 6 0 0 0 7 0 6 6 0 0 0 3.43 1.13 6 6 0 0 0 1.59 4.05l-.06-.05a6 6 0 0 0 0 8 6 6 0 0 0 0 8 6 6 0 0 0 0 8 6 6 0 0 0 -1.53 3.35 5.93 5.93 0 0 0 -2-.35 6 6 0 0 0 -4 10.47v6.53h4v-5a6 6 0 0 0 6-5.35 6 6 0 0 0 8-5.65 6 6 0 0 0 -1.53-4 6 6 0 0 0 0-8 6 6 0 0 0 0-8.08 6 6 0 0 0 0-8l-.06.06a6 6 0 0 0 .76-6.98z" fill="#f4c8ad"/><path d="m59.73 18.73a1 1 0 0 1 -.06-1.35 5 5 0 0 0 .64-5.9 1 1 0 0 1 .14-1.21 4.94 4.94 0 0 0 .55-2.27 5 5 0 0 0 -7.32-4.43 1 1 0 0 1 -1.15.13 5.06 5.06 0 0 0 -5.35.17 1 1 0 0 1 -1.25.13 5 5 0 0 0 -5.87 0 1 1 0 0 1 -1.36-.16 5.09 5.09 0 0 0 -5.59.17 1 1 0 0 1 -1.16 0 5.07 5.07 0 0 0 -5.67-.11 1 1 0 0 1 -1.34.1 5 5 0 0 0 -5.86 0 1 1 0 0 1 -1.16 0 5.08 5.08 0 0 0 -5.84 0 1 1 0 0 1 -1.16 0 5 5 0 0 0 -7.92 4 5 5 0 0 0 .63 2.44s.05.05.08.1a1 1 0 0 1 -.2 1.27 4.89 4.89 0 0 0 -.51 2.19 5 5 0 0 0 1.27 3.33 1 1 0 0 1 0 1.34 5 5 0 0 0 0 6.69 1 1 0 0 1 0 1.37 1.3 1.3 0 0 1 -.23.18 5 5 0 0 0 .2 6.42 1 1 0 0 1 0 1.34 5 5 0 0 0 -.14 6.49l.15.13a1 1 0 0 1 0 1.34 5 5 0 0 0 3.75 8.37 5.09 5.09 0 0 0 1.69-.29 1 1 0 0 1 .87.09 1 1 0 0 1 .47.74 5 5 0 0 0 4.97 4.46 1 1 0 0 1 1 1v4h2c0-5.48 0-6.12.44-6.37a5 5 0 0 0 -3.44-8.63 5.19 5.19 0 0 0 -1.7.29 1 1 0 0 1 -1.3-.83 5 5 0 0 0 -1.09-2.62.75.75 0 0 1 -.17-.14 1 1 0 0 1 0-1.33 5 5 0 0 0 .19-6.54l-.16-.13a1 1 0 0 1 0-1.34 4.94 4.94 0 0 0 0-6.73 1 1 0 0 1 0-1.36.83.83 0 0 1 .28-.21 5 5 0 0 0 -.28-6.42 1 1 0 0 1 0-1.3 1.05 1.05 0 0 1 .28-.24 4.9 4.9 0 0 0 .95-2.71 1 1 0 0 1 0-.94 1 1 0 0 1 1.1-.56 4.42 4.42 0 0 0 .9.11 4.92 4.92 0 0 0 2.74-.82 1 1 0 0 1 1.32-.18 5 5 0 0 0 5.88 0 1 1 0 0 1 1.33.14v.05a5.09 5.09 0 0 0 5.43 0 1 1 0 0 1 1.36-.19 5 5 0 0 0 5.86 0 1 1 0 0 1 1.16 0 5.09 5.09 0 0 0 5.68.11 1 1 0 0 1 1.3-.14 4.91 4.91 0 0 0 2.94 1.03 1 1 0 0 1 1 1 5 5 0 0 0 1.32 3.37 1 1 0 0 1 0 1.36.73.73 0 0 1 -.26.2 5 5 0 0 0 .16 6.34 1 1 0 0 1 .05 1.37 5 5 0 0 0 -1.27 3.36 5 5 0 0 0 1.27 3.33 1 1 0 0 1 0 1.34 5 5 0 0 0 0 6.62 1 1 0 0 1 0 1.37 4.89 4.89 0 0 0 -1.27 2.8 1 1 0 0 1 -.46.74 1 1 0 0 1 -.87.09 5.19 5.19 0 0 0 -1.67-.29 5 5 0 0 0 -3.33 8.73 1 1 0 0 1 .33.74v5.53h2v-4a1 1 0 0 1 1-1 5 5 0 0 0 5-4.46 1 1 0 0 1 .46-.74 1 1 0 0 1 .87-.09 5.19 5.19 0 0 0 1.67.29 5 5 0 0 0 3.85-8.19.74.74 0 0 1 -.13-.12 1 1 0 0 1 0-1.34 4.92 4.92 0 0 0 1.28-3.35 5 5 0 0 0 -1.13-3.17.77.77 0 0 1 -.19-.17 1 1 0 0 1 0-1.3 5 5 0 0 0 0-6.72 1 1 0 0 1 0-1.37 1.3 1.3 0 0 1 .23-.18 5 5 0 0 0 0-6.22.75.75 0 0 1 -.18-.14z" fill="#f2b9a1"/></g></svg>