<svg height="512" viewBox="0 0 64 64" width="512" xmlns="http://www.w3.org/2000/svg"><g id="Artboard_13" data-name="Artboard 13"><path d="m41 62 1.37-6.87a7.37 7.37 0 0 0 -1.23-5.74l-1.39-1.94a4.11 4.11 0 0 1 .06-4.86l5.32-7.1a10.07 10.07 0 0 0 2-5.61l.74-7.47.69-7.07.12-1.22a4.05 4.05 0 0 0 -2.68-4.12l-4-1.47-4.7-1.66a15.93 15.93 0 0 0 -10.6 0l-4.7 1.66-4 1.47a4 4 0 0 0 -2.65 4.17l.12 1.22.69 7.07.74 7.47a10.07 10.07 0 0 0 2 5.61l5.32 7.1a4.11 4.11 0 0 1 .06 4.86l-1.39 1.94a7.37 7.37 0 0 0 -1.23 5.74l1.34 6.82z" fill="#efb392"/><path d="m41.14 49.39-1.39-1.94a4.11 4.11 0 0 1 .06-4.86l5.32-7.1a10.07 10.07 0 0 0 2-5.61l.74-7.47.69-7.07.12-1.22a4.05 4.05 0 0 0 -2.68-4.12l-4-1.47-4.7-1.66a15.5 15.5 0 0 0 -3.78-.87 15.48 15.48 0 0 0 -3.79.83l-4.73 1.7-4 1.47a4 4 0 0 0 -2.65 4.17l.12 1.22.7 7.07.73 7.47a10.08 10.08 0 0 0 2 5.61l5.32 7.1a4.13 4.13 0 0 1 .05 4.86l-1.39 1.94a7.41 7.41 0 0 0 -1.23 5.74l1.35 6.82h15l1.37-6.87a7.37 7.37 0 0 0 -1.23-5.74z" fill="#f4c8ad"/><path d="m37 62v-8.32a5.08 5.08 0 0 0 -1-3l-.61-.81a6.89 6.89 0 0 1 -1.39-4.17v-3.7a7.49 7.49 0 0 1 1.5-4.5 7.53 7.53 0 0 0 1.5-4.5v-1a5.86 5.86 0 0 1 1.28-3.66l1.38-1.72a6.09 6.09 0 0 0 1.34-3.77v-5.14a6.58 6.58 0 0 1 1.92-4.64l5.08-5.07a5.88 5.88 0 0 1 4.85-2 5.75 5.75 0 0 1 5 4 5.88 5.88 0 0 1 -2.5 6.21l1.58 3.46c3.3-1.81 5.07-5.19 5.07-9.67 0-4-4.7-8-9-8a10.15 10.15 0 0 0 -7 3l-5.26 4.67a13.17 13.17 0 0 1 -8.74 3.33 13.17 13.17 0 0 1 -8.74-3.33l-5.26-4.67a10.15 10.15 0 0 0 -7-3c-4.3 0-9 4-9 8 0 4.48 1.77 7.86 5.09 9.69l1.58-3.46a5.88 5.88 0 0 1 -2.5-6.23 5.75 5.75 0 0 1 5-4 5.88 5.88 0 0 1 4.83 2l5.06 5.08a6.58 6.58 0 0 1 1.94 4.63v5.14a6.09 6.09 0 0 0 1.34 3.82l1.38 1.72a5.86 5.86 0 0 1 1.28 3.66v1a7.53 7.53 0 0 0 1.5 4.5 7.49 7.49 0 0 1 1.5 4.45v3.7a6.89 6.89 0 0 1 -1.38 4.14l-.61.81a5.08 5.08 0 0 0 -1 3v8.35z" fill="#fc959d"/><ellipse cx="51" cy="19" fill="#fbe1ca" rx="6" ry="4"/><path d="m51 15c-2.7 0-5 1.19-5.74 2.82.76 1.64 3 2.83 5.74 2.83s5-1.19 5.74-2.83c-.74-1.63-3.04-2.82-5.74-2.82z" fill="#ffeee1"/><ellipse cx="13" cy="19" fill="#fbe1ca" rx="6" ry="4"/><path d="m13 15c-2.7 0-5 1.19-5.74 2.82.76 1.64 3 2.83 5.74 2.83s5-1.19 5.74-2.83c-.74-1.63-3.04-2.82-5.74-2.82z" fill="#ffeee1"/><path d="m53 2a10.15 10.15 0 0 0 -7 3l-2.76 2.45a1.93 1.93 0 0 0 2.92.21 17.3 17.3 0 0 1 2.1-2 7.86 7.86 0 0 1 2.32-1.1 7.78 7.78 0 0 1 4.81.65c2.89 1.26 4.91 4.26 4.13 7.3a1.94 1.94 0 0 0 1.58 2.43 13.13 13.13 0 0 0 .9-4.94c0-4-4.71-8-9-8z" fill="#f4b3bb"/><path d="m11 2a10.15 10.15 0 0 1 7 3l2.76 2.45a1.93 1.93 0 0 1 -2.92.21 17.3 17.3 0 0 0 -2.1-2 7.86 7.86 0 0 0 -2.32-1.1 7.78 7.78 0 0 0 -4.81.65c-2.89 1.25-4.91 4.25-4.13 7.29a1.94 1.94 0 0 1 -1.58 2.43 13.13 13.13 0 0 1 -.9-4.93c0-4 4.71-8 9-8z" fill="#f4b3bb"/><path d="m34.57 62v-5.66a7.86 7.86 0 0 0 -.94-3.71l-.21-.38a7.74 7.74 0 0 1 -.94-3.7v-8.61a7.68 7.68 0 0 1 .75-3.33l.85-1.8a7.78 7.78 0 0 0 .75-3.32v-1.71a7.79 7.79 0 0 1 1.3-4.31 7.73 7.73 0 0 0 1.3-4.3 4.88 4.88 0 0 0 -4.88-4.89h-1.55a4.89 4.89 0 0 0 -4.89 4.89 7.73 7.73 0 0 0 1.3 4.3 7.8 7.8 0 0 1 1.31 4.31v1.71a7.77 7.77 0 0 0 .74 3.32l.86 1.8a7.83 7.83 0 0 1 .75 3.33v8.61a7.85 7.85 0 0 1 -.94 3.7l-.21.38a7.75 7.75 0 0 0 -.92 3.71v5.66z" fill="#e8606a"/><g fill="#ffeee1" opacity=".5"><path d="m44.29 23.77a2.55 2.55 0 0 0 -2.5 2.5c0 .55 0 1.11-.09 1.66v.42.09a4.4 4.4 0 0 1 -.14.67c-.06.27-.13.54-.21.8 0 .09-.07.18-.1.28v.09c-.11.3-.06 0 0-.06a5.13 5.13 0 0 0 -.28.6c-.13.23-.27.46-.41.69a37.28 37.28 0 0 0 -3.15 4.95 2.76 2.76 0 0 0 -.26 1.93 2.53 2.53 0 0 0 1.15 1.49c1.08.57 2.87.39 3.42-.89.83-1.93 2.28-3.47 3.34-5.26a15.21 15.21 0 0 0 1.8-7.46 2.51 2.51 0 0 0 -2.57-2.5z"/><path d=""/></g></g></svg>