<svg height="512" viewBox="0 0 64 64" width="512" xmlns="http://www.w3.org/2000/svg"><g id="Artboard_27" data-name="Artboard 27"><path d="m34.1 55.55c.25-.82.54-1.67.9-2.55a27.17 27.17 0 0 1 2.33-4.49s2.45-2.46 2.49-2.55-10.91-2.22-10.91-2.22l-5 .88 5.74 7.86 2.48 4.2z" fill="#70222f"/><path d="m37.22 48.19a12 12 0 0 0 -10.44 0l-4.32-2.84 4.3-14.49 6.41-1.86s6.55 8.43 6.65 8.67-2.6 10.52-2.6 10.52z" fill="#8d2830"/><path d="m32 2h3l1 24.36a2.88 2.88 0 0 1 -.21 1.23l-1 2.55a3 3 0 0 1 -2.79 1.86 3 3 0 0 1 -2.74-1.86l-1-2.55a2.88 2.88 0 0 1 -.26-1.23l1-24.36z" fill="#fed8d9"/><path d="m32 2h-.15l-.85 21.36a2.88 2.88 0 0 0 .21 1.23l1 2.55a3 3 0 0 0 2.79 1.86h.24l.55-1.39a2.88 2.88 0 0 0 .21-1.25l-1-24.36z" fill="#fff" opacity=".3"/><path d="m35 62a18.26 18.26 0 0 0 -3-10.72 11.22 11.22 0 0 0 -4.13-3.55l-2.74-1.11-2 3.1 1.73 2.46a12 12 0 0 1 4.14 3.82 9.72 9.72 0 0 1 2 6z" fill="#fb7f83"/><path d="m33 32 4.39 16.84a8.25 8.25 0 0 0 8 6.16h5.14a6 6 0 0 0 4.25-1.76l1.69-1.69a18.55 18.55 0 0 0 5.53-11.78c0-.26 0-.51 0-.77a34.71 34.71 0 0 0 -4.37-16.87l-2.26-4.06a11.79 11.79 0 0 0 -10.31-6.07 11.81 11.81 0 0 0 -5.73 1.48l-3.79 2.11z" fill="#fb7f83"/><path d="m55.37 18.07a11.8 11.8 0 0 0 -16-4.59l-1.37.77c.16.92.58 2.58 1 6.75.32 2.88.31 3.76 1 5 1.29 2.31 3.33 2.84 5 4 2 1.38 2.86 4.75 5 11 1.35 4 1.59 5.28 3 6 1.89 1 4.44.1 6-1a7.31 7.31 0 0 0 2.45-3.06 16.91 16.91 0 0 0 .55-3.17c0-.26 0-.51 0-.77a34.71 34.71 0 0 0 -4.37-16.87z" fill="#ffc4c5" opacity=".3"/><g opacity=".6"><path d="m56 42a1 1 0 0 1 -1.1-.81 34.2 34.2 0 0 0 -3.74-10.72 34.49 34.49 0 0 0 -5.16-7.08 1 1 0 0 1 0-1.39 1 1 0 0 1 1.4 0 36.43 36.43 0 0 1 5.48 7.51 36.15 36.15 0 0 1 3.95 11.35 1 1 0 0 1 -.83 1.14z" fill="#fed8d9"/></g><g opacity=".6"><path d="m54 51a1 1 0 0 1 -1.1-.81 57.21 57.21 0 0 0 -3.78-12.81c-.73-1.71-1.57-3.41-2.47-5a1 1 0 0 1 .35-1.38 1 1 0 0 1 1.34.36c.94 1.71 1.81 3.47 2.57 5.25a58.66 58.66 0 0 1 3.91 13.26 1 1 0 0 1 -.82 1.13z" fill="#fed8d9"/></g><g opacity=".6"><path d="m50.93 19.05a1 1 0 0 1 -1.29 0 7.57 7.57 0 0 0 -8.35-1.54 1 1 0 0 1 -1.25-.4 1 1 0 0 1 .44-1.37 9.66 9.66 0 0 1 5.71-.74 9.54 9.54 0 0 1 4.81 2.56 1 1 0 0 1 0 1.44z" fill="#fed8d9"/></g><path d="m45.69 49h-2.13a2 2 0 1 1 0-4h2.44l-1.62-4.06a1.5 1.5 0 0 0 -1.38-.94h-2.9a1.5 1.5 0 0 1 0-3h3.9l-.36-1.78a8.12 8.12 0 0 0 -3.32-5.09l-4.4-3.08-2.33 1.16-.59 3.79 4.39 16.84a8.25 8.25 0 0 0 8 6.16h3.61l-1.59-4.76a1.81 1.81 0 0 0 -1.72-1.24z" fill="#f46772"/><path d="m50 15c-1.58-.83-4-2.13-6-1s-2.24 4.35-2 6a7.17 7.17 0 0 0 2 4c.33.33 1.1 1 4 2 3.86 1.31 5.78 2 7 1s1.07-3.1 1-4c-.4-4.95-5.42-7.69-6-8z" fill="#fed8d9" opacity=".5"/><path d="m31 32-4.39 16.84a8.25 8.25 0 0 1 -8 6.16h-5.12a6 6 0 0 1 -4.25-1.76l-1.69-1.69a18.55 18.55 0 0 1 -5.55-11.78c0-.26 0-.51 0-.77a34.71 34.71 0 0 1 4.37-16.87l2.26-4.06a11.79 11.79 0 0 1 10.31-6.07 11.81 11.81 0 0 1 5.73 1.48l3.79 2.11z" fill="#fb7f83"/><path d="m8.63 18.07a11.8 11.8 0 0 1 16-4.59l1.38.77c-.16.92-.58 2.58-1.05 6.75-.32 2.88-.31 3.76-1 5-1.29 2.31-3.33 2.84-5 4-2 1.38-2.86 4.75-5 11-1.35 4-1.59 5.28-3 6-1.89 1-4.44.1-6-1a7.31 7.31 0 0 1 -2.45-3.06 16.91 16.91 0 0 1 -.51-3.17c0-.26 0-.51 0-.77a34.71 34.71 0 0 1 4.37-16.87z" fill="#ffc4c5" opacity=".3"/><g opacity=".6"><path d="m8 42a1 1 0 0 0 1.1-.81 34.42 34.42 0 0 1 8.9-17.8 1 1 0 0 0 0-1.39 1 1 0 0 0 -1.4 0 36.21 36.21 0 0 0 -9.43 18.87 1 1 0 0 0 .83 1.13z" fill="#fed8d9"/></g><g opacity=".6"><path d="m10 51a1 1 0 0 0 1.1-.81 57.21 57.21 0 0 1 3.78-12.81c.73-1.71 1.57-3.41 2.47-5a1 1 0 0 0 -.35-1.38 1 1 0 0 0 -1.34.36c-.94 1.71-1.81 3.47-2.57 5.25a58.66 58.66 0 0 0 -3.92 13.26 1 1 0 0 0 .83 1.13z" fill="#fed8d9"/></g><g opacity=".6"><path d="m13.07 19.05a1 1 0 0 0 1.29 0 7.57 7.57 0 0 1 8.35-1.54 1 1 0 0 0 1.25-.4 1 1 0 0 0 -.44-1.37 9.66 9.66 0 0 0 -5.71-.74 9.54 9.54 0 0 0 -4.81 2.56 1 1 0 0 0 0 1.44z" fill="#fed8d9"/></g><path d="m18.31 49h2.13a2 2 0 1 0 0-4h-2.44l1.62-4.06a1.5 1.5 0 0 1 1.38-.94h2.9a1.5 1.5 0 0 0 0-3h-3.9l.36-1.78a8.12 8.12 0 0 1 3.32-5.09l4.4-3.08 2.33 1.16.59 3.79-4.39 16.84a8.25 8.25 0 0 1 -8 6.16h-3.61l1.59-4.76a1.81 1.81 0 0 1 1.72-1.24z" fill="#f46772"/><path d="m14 15c1.58-.83 4-2.13 6-1s2.24 4.35 2 6a7.17 7.17 0 0 1 -2 4c-.33.33-1.1 1-4 2-3.86 1.31-5.78 2-7 1s-1.07-3.1-1-4c.4-4.95 5.42-7.69 6-8z" fill="#fed8d9" opacity=".5"/><path d="m27.87 47.73-.33-.13a2.06 2.06 0 0 0 .16 2.64 22.5 22.5 0 0 1 1.89 2.59c.27.44.53.88.77 1.33l.39.78.18.39a1.45 1.45 0 0 1 .08.18 15.59 15.59 0 0 1 .99 3.05c.05.26.09.51.13.77v.25s0 .34 0 .51c.05.64.12 1.27.2 1.91h2.67a18.26 18.26 0 0 0 -3-10.72 11.22 11.22 0 0 0 -4.13-3.55z" fill="#ffc4c5" opacity=".3"/></g></svg>