<svg height="512" viewBox="0 0 64 64" width="512" xmlns="http://www.w3.org/2000/svg"><g id="Artboard_20" data-name="Artboard 20"><path d="m60.81 33.59a6 6 0 0 0 -8.81-8.04 6 6 0 0 0 -8 0 6 6 0 0 0 -8 0 6 6 0 0 0 -8 0 6 6 0 0 0 -8 0 6 6 0 0 0 -6.58-1 6 6 0 0 0 -2.1-7.55 6.1 6.1 0 0 0 1.18-1 6 6 0 0 0 9-.05v.05a6 6 0 0 0 4.5 2 6 6 0 0 0 4.54-2.11v.08a6 6 0 0 0 9 0 6 6 0 0 0 9-.08v.08a6 6 0 1 0 6.46-9.63v-4.34h-4v4.34a6.11 6.11 0 0 0 -2.52 1.72 6 6 0 0 0 -9 .06v-.06a6 6 0 0 0 -9 .05v-.05a6 6 0 0 0 -9.06.09l.08-.15a6 6 0 0 0 -9 0v.07a6 6 0 1 0 -7.82 8.93l.12-.06a6 6 0 0 0 -1.27 9.06 6 6 0 0 0 8.47 8.42 6 6 0 0 0 8 0 6 6 0 0 0 8 0 6 6 0 0 0 8-.06v.06a6 6 0 0 0 8 0 6 6 0 0 0 6.24 1.09 6.05 6.05 0 0 0 1.24 5.51 6 6 0 0 0 -1.48 3.98 5.87 5.87 0 0 0 .35 2h.06a6 6 0 0 0 -8 1h.09a6 6 0 0 0 -9 0 6 6 0 0 0 -9 0 6 6 0 1 0 -7.5 9.2v4.8h4v-4.08a6 6 0 0 0 3.5-2 6 6 0 0 0 9 0 6 6 0 0 0 9 0 6 6 0 0 0 9 0 6 6 0 0 0 9.35-7.46 6 6 0 0 0 -.32-7.41 6 6 0 0 0 1.47-3.88 5.94 5.94 0 0 0 -1.19-3.58z" fill="#f4c8ad"/><path d="m60 49.06a1 1 0 0 1 .13-1.33l.07-.06a5 5 0 0 0 -.44-5.93 1 1 0 0 1 0-1.31 5 5 0 0 0 .4-6 .52.52 0 0 1 -.11-.1 1 1 0 0 1 -.05-1.33 5 5 0 0 0 -7.32-6.73 1 1 0 0 1 -1.36 0l-.11-.12a5.12 5.12 0 0 0 -6.53.15 1 1 0 0 1 -1.37 0l-.1-.12a5.1 5.1 0 0 0 -6.53.16 1 1 0 0 1 -1.35 0 .79.79 0 0 1 -.17-.2 5.12 5.12 0 0 0 -6.46.17 1 1 0 0 1 -1.34 0 5.12 5.12 0 0 0 -6.66 0 1 1 0 0 1 -1.34 0 5.05 5.05 0 0 0 -5.48-.78 1 1 0 0 1 -1.34-1.34 4.84 4.84 0 0 0 .46-2.19 5 5 0 0 0 -2.24-4.17 1 1 0 0 1 -.44-.83 1 1 0 0 1 .44-.83 5.1 5.1 0 0 0 1-.86 1 1 0 0 1 1.5 0 5 5 0 0 0 3.74 1.69 5 5 0 0 0 3.77-1.74 1 1 0 0 1 1.68.26 5 5 0 0 0 7.33-.28 1 1 0 0 1 1.34-.16 1 1 0 0 1 .36.47 5 5 0 0 0 7.27-.24 1 1 0 0 1 1.5 0 5 5 0 0 0 7.54-.07 1 1 0 0 1 1.33-.17 1 1 0 0 1 .38.5 5 5 0 1 0 5.17-8.29 1 1 0 0 1 -.67-.94v-3.34h-2v3.34a1 1 0 0 1 -.67.94 5 5 0 0 0 -2.09 1.44 1 1 0 0 1 -1.35.15 1.05 1.05 0 0 1 -.29-.34 5 5 0 0 0 -7.37.21 1 1 0 0 1 -1.33.17 1 1 0 0 1 -.35-.43 5 5 0 0 0 -7.32.25 1 1 0 0 1 -1.67-.24 5 5 0 0 0 -7.36.28 1 1 0 0 1 -1.37.14 1 1 0 0 1 -.35-.5 5 5 0 0 0 -7.08.12 1 1 0 0 1 -.29.34 1 1 0 0 1 -1.33-.12 5 5 0 1 0 -6.85 7.25 1 1 0 0 1 .41 1.84 5 5 0 0 0 -1.12 7.48 1 1 0 0 1 0 1.38 5 5 0 0 0 7.08 7 1 1 0 0 1 1.32 0 .82.82 0 0 1 .22.27 5.11 5.11 0 0 0 6.45-.23 1 1 0 0 1 1.35 0 .8.8 0 0 1 .15.17 5.11 5.11 0 0 0 6.49-.16 1 1 0 0 1 1.33 0l.1.09a5 5 0 0 0 6.6-.13 1 1 0 0 1 1.36 0 1.09 1.09 0 0 1 .21.27 5.1 5.1 0 0 0 6.42-.26 1 1 0 0 1 1.37 0 1.3 1.3 0 0 1 .18.23 5 5 0 0 0 5 .7 1 1 0 0 1 1.29 1.35 5.13 5.13 0 0 0 -.14 1.17 5 5 0 0 0 1.21 3.26 1 1 0 0 1 0 1.31 5 5 0 0 0 -1.21 3.26 5.17 5.17 0 0 0 .26 1.61 1 1 0 0 1 -.09 1 1 1 0 0 1 -1.33.23 5 5 0 0 0 -6.64.88 1 1 0 0 1 -1.37.14 1 1 0 0 1 -.35-.5 5 5 0 0 0 -7.25.33 1 1 0 0 1 -1.68-.26 5 5 0 0 0 -7.25.16 1.14 1.14 0 0 1 -.19.19 1 1 0 0 1 -1.36-.13 5 5 0 1 0 -6.25 7.63 1 1 0 0 1 .5.87v3.85h2v-3.08a1 1 0 0 1 .83-1 5 5 0 0 0 2.92-1.62 1 1 0 0 1 1.5 0 5 5 0 0 0 7.5 0 1 1 0 0 1 1.5 0 5 5 0 0 0 7.39.12 1 1 0 0 1 .25-.28 1 1 0 0 1 1.34.13 5 5 0 0 0 7.41.15 1 1 0 0 1 .25-.28 1 1 0 0 1 1.34.12 5 5 0 0 0 7.77-6.2z" fill="#f2b9a1"/></g></svg>