<svg height="512" viewBox="0 0 64 64" width="512" xmlns="http://www.w3.org/2000/svg"><g id="Artboard_17" data-name="Artboard 17"><path d="m43.36 15a18.91 18.91 0 0 0 -5.36-4 18.57 18.57 0 0 0 -3-1.2v6.87h8z" fill="#fb7f83"/><path d="m30 2v9c0 3.22-2.5 5.62-4.27 6.91v7.09l10-2.32-.73-7.15v-13.53z" fill="#fc959d"/><path d="m31.87 12.9c1.67-3.55 1-7 1.12-10.79a.41.41 0 0 0 .01-.11h-3v9c0 3.22-2.5 5.62-4.27 6.91v2.56a24.14 24.14 0 0 0 6.14-7.57z" fill="#fb7f83"/><path d="m26 23.55a138.49 138.49 0 0 0 -2-21.55h-6v6.41a14.65 14.65 0 0 1 -2 7.43 28.79 28.79 0 0 0 -4 14.16 19.16 19.16 0 0 0 6.86 14.31z" fill="#601b2a"/><path d="m50 15h-11.82a9.65 9.65 0 0 0 -7 3l-9.79 10.39a12.5 12.5 0 0 0 -3.39 8.61v1a24.09 24.09 0 0 0 24.09 24 7.92 7.92 0 0 0 7.91-7.92v-16.16a5.14 5.14 0 0 0 -3.78-5l-4.51-1.22a3.08 3.08 0 0 1 -2.21-3.51l1.16-6.34a2.29 2.29 0 0 1 2.27-1.85h7.07z" fill="#70222f"/><path d="m31.14 18-4.14 4.4a16.41 16.41 0 0 0 -3 4.6 19.58 19.58 0 0 0 -1 10 24.19 24.19 0 0 0 3 9c1.5 2.62 3 5.31 6 7 3.9 2.21 5.74.13 17 1l1 .08v-16.16a5.14 5.14 0 0 0 -3.78-5l-4.51-1.22a3.08 3.08 0 0 1 -2.21-3.51l1.16-6.34a2.29 2.29 0 0 1 2.27-1.85h7.07v-5h-11.82a9.65 9.65 0 0 0 -7.04 3z" fill="#8d2830"/><path d="m31.14 18-1.73 1.83c-.13 1.27-.25 2.93-.41 5.13-.3 4.17-.44 6.3 0 9 .48 2.94.92 5.63 3 8 2.5 2.84 5.89 3.55 8 4 3.5.73 4.23-.11 10 0v-8a5.14 5.14 0 0 0 -3.78-5l-4.51-1.22a3.08 3.08 0 0 1 -2.21-3.51l1.16-6.34a2.29 2.29 0 0 1 2.27-1.89h7.07v-5h-11.82a9.65 9.65 0 0 0 -7.04 3z" fill="#b72e37"/><path d="m50 15h-11.82a9.65 9.65 0 0 0 -7 3l-.88.93a3.82 3.82 0 0 0 1.7 2.07c1.33.64 2.66-.15 5-1a32.08 32.08 0 0 1 9-2 12.61 12.61 0 0 1 4 .47z" fill="#ffa4ad" opacity=".2"/><path d="m46.22 33-4.51-1.22a3.08 3.08 0 0 1 -2.21-3.51l1.16-6.34a.29.29 0 0 1 0-.09c-1.54-.94-3.91-.09-4.68.2a7.54 7.54 0 0 0 -4 3c-1.68 2.71-.69 5.83 0 8 .55 1.73 1.68 5.27 5 7a11.33 11.33 0 0 0 5 1c2.67.13 4.46.21 6-1a6.37 6.37 0 0 0 1.94-2.79 5.14 5.14 0 0 0 -3.7-4.25z" fill="#ffa4ad" opacity=".2"/><ellipse cx="50" cy="17.5" fill="#601b2a" rx="2" ry="2.5"/><g fill="#fb7f83"><path d="m31.5 32.86a9.27 9.27 0 0 0 3.06-3 6.41 6.41 0 0 1 .44 3.03 6.27 6.27 0 0 1 -.49 1.84 1 1 0 0 0 .43 1.27 1 1 0 0 0 1.43-.46 8.09 8.09 0 0 0 .63-2.44 8.59 8.59 0 0 0 -1-4.9 4.2 4.2 0 0 1 .49-.33 5.35 5.35 0 0 1 3.18-.58l.37-2h-.1a7.35 7.35 0 0 0 -4.43.83 8 8 0 0 0 -2.62 2.61 7.36 7.36 0 0 1 -2.39 2.39 7.53 7.53 0 0 1 -4.42.87l-.16 2h.93a9.15 9.15 0 0 0 4.65-1.13z"/><path d="m43.9 47.05h.1a1 1 0 0 0 .28-1.39 9 9 0 0 0 -2.78-2.48 8.64 8.64 0 0 0 -1.15-.55c.09-.23.19-.45.27-.69a8 8 0 0 0 .38-2.6v-1.34a1 1 0 0 0 -2 0v1.29a6.12 6.12 0 0 1 -.28 2 5.49 5.49 0 0 1 -.56 1.2c-.56.87-1.37 1.65-3.56 2.62-.38.17-.72.3-1 .42a8.38 8.38 0 0 0 .4-2.53 8.74 8.74 0 0 0 -.64-3.51 1 1 0 0 0 -1.42-.49 1 1 0 0 0 -.44 1.23 6.72 6.72 0 0 1 .5 2.77 6.81 6.81 0 0 1 -1 3.26l-.79.15a11.66 11.66 0 0 0 -2.63.69 11.16 11.16 0 0 0 -5.16 4.79c.42.59.86 1.15 1.32 1.7l.19-.33a9.39 9.39 0 0 1 4.41-4.31 9.65 9.65 0 0 1 2.22-.57 18.91 18.91 0 0 0 4.8-1.44 10.15 10.15 0 0 0 3.85-2.59 6.9 6.9 0 0 1 3.41 2.46.94.94 0 0 0 1.28.24z"/><path d="m49.21 53.33a6.85 6.85 0 0 1 -4.36 2.57 5.53 5.53 0 0 1 -4.25-.79 3.85 3.85 0 0 1 -1.21-1.63 5.74 5.74 0 0 0 -1.8-2.31 6.49 6.49 0 0 0 -3.52-1.17 1 1 0 0 0 -1.07 1.06 1 1 0 0 0 .93.93 4.46 4.46 0 0 1 2.48.8 3.79 3.79 0 0 1 1.19 1.58 5.7 5.7 0 0 0 1.8 2.34 6.91 6.91 0 0 0 4.23 1.29 10.54 10.54 0 0 0 1.52-.12 8.69 8.69 0 0 0 4.71-2.32 8 8 0 0 0 .14-1.48v-1.84z"/></g><ellipse cx="46.13" cy="36.31" fill="#ffa4ad" opacity=".2" rx="1.69" ry="3.39" transform="matrix(.787 -.617 .617 .787 -12.58 36.19)"/><path d="m16 31a1 1 0 0 1 -1-1 22.91 22.91 0 0 1 3.65-12.76 1 1 0 0 1 1.35-.24 1 1 0 0 1 .25 1.37 20.85 20.85 0 0 0 -3.25 11.63 1 1 0 0 1 -1 1z" fill="#70222f"/><path d="m24 2h-4.9c0 1.62 1.93 3.94 1.6 8.21-.22 2.82-1.24 3.91-.36 5.45a4.56 4.56 0 0 0 4.53 2.12 3.92 3.92 0 0 0 .83-.28 122.6 122.6 0 0 0 -1.7-15.5z" fill="#70222f"/></g></svg>