<svg height="512" viewBox="0 0 64 64" width="512" xmlns="http://www.w3.org/2000/svg"><g id="Artboard_07" data-name="Artboard 07"><path d="m28 2h8v16h-8z" fill="#d5d6d8"/><path d="m31.78 16.93h4.22v-14.93h-6.37v12.78a2.15 2.15 0 0 0 2.15 2.15z" fill="#e4e5e7"/><path d="m32 18h-6a2 2 0 0 0 -2 2v2.89a2 2 0 0 0 .94 1.7l6 3.75a2 2 0 0 0 2.12 0l6-3.75a2 2 0 0 0 .94-1.7v-2.89a2 2 0 0 0 -2-2z" fill="#aba39b"/><g fill="#acadb1"><path d="m28 13h8v2h-8z"/><path d="m28 9h8v2h-8z"/><path d="m28 5h8v2h-8z"/></g><path d="m37.34 25.66c1.27 1.61 2.32 3.09 3.21 4.46a15.6 15.6 0 0 0 7.45.88 12.75 12.75 0 0 0 6-3l5-5 3 3-5 5 3 3-3 3-3-3s-3.49 2.09-10.47 1.62c1.82 4.25 1.47 6.38 1.47 6.38h13v4h-6v3l3 3-3 3-8-8v15h-4v-18c0-6.42-4.07-12.84-6.41-16z" fill="#8d2830"/><path d="m58 42.41v-.41h-13s.35-2.13-1.47-6.38l-.53-1.37a.79.79 0 0 1 .88-1.07c2.09.37 6 .65 9.12-1.64l6.57-6.24a1.21 1.21 0 0 0 0-1.73l-.57-.57-5 5a12.75 12.75 0 0 1 -6 3 15.6 15.6 0 0 1 -7.45-.88c-.58-.89-1.23-1.83-2-2.82l-1.46.75a1.14 1.14 0 0 0 -.43 1.64c1.44 2.23 4.64 7.52 4.95 11 .28 3.25.15 13.83.06 19.46a1.83 1.83 0 0 0 1.86 1.85h.47v-15.73a2.27 2.27 0 0 1 2.27-2.27h10.14a1.59 1.59 0 0 0 1.59-1.59z" fill="#d83f4e"/><g opacity=".2"><path d="m37.78 29.36a6.38 6.38 0 0 0 1.9 2.37 8.32 8.32 0 0 0 2.87 1 18 18 0 0 0 6.71.09c1-.17.55-1.61-.39-1.45a16.4 16.4 0 0 1 -5.72 0 8.8 8.8 0 0 1 -2.42-.73 4.55 4.55 0 0 1 -1.66-2 .75.75 0 0 0 -1.29.75z" fill="#ffa4ad"/></g><g opacity=".2"><path d="m51 32.09a.75.75 0 0 0 0-1.5.75.75 0 0 0 0 1.5z" fill="#ffa4ad"/></g><g opacity=".2"><path d="m41.19 35c.48 1 1 2.08 1.4 3.16a12.64 12.64 0 0 1 .57 3.35.77.77 0 0 0 .75.75.76.76 0 0 0 .75-.75 14.42 14.42 0 0 0 -.66-3.77c-.43-1.21-1-2.36-1.55-3.52a.75.75 0 0 0 -1.3.76z" fill="#ffa4ad"/></g><g opacity=".2"><path d="m46.1 43.64h8.72a.75.75 0 0 0 0-1.5h-8.72a.75.75 0 0 0 0 1.5z" fill="#ffa4ad"/></g><path d="m26.66 25.66c-1.27 1.61-2.32 3.09-3.21 4.46a15.6 15.6 0 0 1 -7.45.88 12.75 12.75 0 0 1 -6-3l-5-5-3 3 5 5-3 3 3 3 3-3s3.49 2.09 10.47 1.62c-1.82 4.25-1.47 6.38-1.47 6.38h-13v4h6v3l-3 3 3 3 8-8v15h4v-18c0-6.42 4.07-12.84 6.41-16z" fill="#8d2830"/><path d="m6 42.41v-.41h13s-.35-2.13 1.47-6.38l.53-1.37a.79.79 0 0 0 -.88-1.07c-2.09.37-6 .65-9.12-1.64l-6.55-6.24a1.21 1.21 0 0 1 0-1.73l.55-.57 5 5a12.75 12.75 0 0 0 6 3 15.6 15.6 0 0 0 7.45-.88c.58-.89 1.23-1.83 2-2.82l1.46.75a1.14 1.14 0 0 1 .43 1.64c-1.44 2.23-4.64 7.52-4.95 11-.28 3.25-.15 13.83-.06 19.46a1.83 1.83 0 0 1 -1.86 1.85h-.47v-15.73a2.27 2.27 0 0 0 -2.27-2.27h-10.14a1.59 1.59 0 0 1 -1.59-1.59z" fill="#d83f4e"/><g opacity=".2"><path d="m26.22 29.36a6.38 6.38 0 0 1 -1.9 2.37 8.32 8.32 0 0 1 -2.87 1 18 18 0 0 1 -6.71.09c-1-.17-.55-1.61.39-1.45a16.4 16.4 0 0 0 5.72 0 8.8 8.8 0 0 0 2.42-.73 4.55 4.55 0 0 0 1.66-2 .75.75 0 0 1 1.29.75z" fill="#ffa4ad"/></g><g opacity=".2"><path d="m13 32.09a.75.75 0 0 1 0-1.5.75.75 0 0 1 0 1.5z" fill="#ffa4ad"/></g><g opacity=".2"><path d="m22.81 35c-.48 1-1 2.08-1.4 3.16a12.64 12.64 0 0 0 -.57 3.35.77.77 0 0 1 -.75.75.76.76 0 0 1 -.75-.75 14.42 14.42 0 0 1 .66-3.77c.43-1.21 1-2.36 1.55-3.52a.75.75 0 0 1 1.3.76z" fill="#ffa4ad"/></g><g opacity=".2"><path d="m17.9 43.64h-8.72a.75.75 0 0 1 0-1.5h8.72a.75.75 0 0 1 0 1.5z" fill="#ffa4ad"/></g><path d="m40 20a2 2 0 0 0 -2-2h-12a24.93 24.93 0 0 0 .56 4.61 5.65 5.65 0 0 0 .16.72c.75 2.09 3.59 2.79 5.9 3.32.87.2 1.63.38 2.31.51l4.12-2.57a2 2 0 0 0 .94-1.7z" fill="#bab0a8"/><path d="m34.86 26.72c1.18-.8 2.34-1.61 3.49-2.45a1.09 1.09 0 0 0 .45-.6 1 1 0 0 0 -.1-.77 1 1 0 0 0 -1.36-.36c-1.15.84-2.34 1.66-3.49 2.46a1 1 0 0 0 1 1.73z" fill="#d3ccca"/></g></svg>