<svg height="512" viewBox="0 0 64 64" width="512" xmlns="http://www.w3.org/2000/svg"><g id="Artboard_24" data-name="Artboard 24"><circle cx="32" cy="32" fill="#f2f2f2" r="30"/><circle cx="32" cy="32" fill="#bdbdbe" r="26"/><path d="m29.5 8.5a25.9 25.9 0 0 0 -17.09 6.41 26 26 0 0 0 36.68 36.68 26 26 0 0 0 -19.59-43.09z" fill="#d7d7d8"/><g fill="#b72e37"><circle cx="25" cy="16" r="2"/><circle cx="29" cy="52" r="2"/><circle cx="45" cy="45" r="3"/><circle cx="35" cy="44" r="2"/></g><path d="m38 26-3.73-3.55a2 2 0 0 1 -.25-1v-5.45a2 2 0 0 1 2-2 2 2 0 0 1 2 2v4.48a2 2 0 0 0 .25 1l2.25 2.14 2.48 2.38 3.73 3.55a2 2 0 0 1 .25 1v5.45a2 2 0 0 1 -2 2 2 2 0 0 1 -2-2v-4.48a2 2 0 0 0 -.25-1l-2.23-2.11z" fill="#8d2830"/><path d="m47 16v5.48a2 2 0 0 1 -.25 1l-8.5 8.1a2 2 0 0 0 -.25 1v4.42a2 2 0 0 1 -2 2 2 2 0 0 1 -2-2v-5.48a2 2 0 0 1 .25-1l8.5-8.1a2 2 0 0 0 .25-1v-4.42a2 2 0 0 1 2-2 2 2 0 0 1 2 2z" fill="#b72e37"/><path d="m45.5 20v-5.5a2.3 2.3 0 0 0 0-.45 2.3 2.3 0 0 0 -.5-.05 2 2 0 0 0 -2 2v4.48a2 2 0 0 1 -.25 1l-8.5 8.1a2 2 0 0 0 -.25 1v5.42a2.3 2.3 0 0 0 0 .45 2.3 2.3 0 0 0 .45 0 2 2 0 0 0 2-2v-4.45a2 2 0 0 1 .25-1l8.5-8.1a2 2 0 0 0 .3-.9z" fill="#d83f4e"/><path d="m23 35 3.73-3.55a2 2 0 0 0 .25-1v-5.45a2 2 0 0 0 -2-2 2 2 0 0 0 -2 2v4.48a2 2 0 0 1 -.25 1l-2.23 2.11-2.5 2.41-3.73 3.55a2 2 0 0 0 -.25 1v5.45a2 2 0 0 0 2 2 2 2 0 0 0 2-2v-4.48a2 2 0 0 1 .25-1l2.25-2.14z" fill="#8d2830"/><path d="m14 25v5.48a2 2 0 0 0 .25 1l8.5 8.1a2 2 0 0 1 .25 1v4.42a2 2 0 0 0 2 2 2 2 0 0 0 2-2v-5.48a2 2 0 0 0 -.25-1l-8.5-8.1a2 2 0 0 1 -.25-1v-4.42a2 2 0 0 0 -2-2 2 2 0 0 0 -2 2z" fill="#b72e37"/><path d="m15.5 29v-5.5a2.3 2.3 0 0 1 .05-.45 2.3 2.3 0 0 1 .45-.05 2 2 0 0 1 2 2v4.48a2 2 0 0 0 .25 1l8.5 8.1a2 2 0 0 1 .25 1v5.42a2.3 2.3 0 0 1 -.05.45 2.3 2.3 0 0 1 -.45 0 2 2 0 0 1 -2-2v-4.45a2 2 0 0 0 -.25-1l-8.5-8a2 2 0 0 1 -.25-1z" fill="#d83f4e"/></g></svg>