<svg height="512" viewBox="0 0 64 64" width="512" xmlns="http://www.w3.org/2000/svg"><g id="Artboard_01" data-name="Artboard 01"><path d="m53.1 30.32a37.35 37.35 0 0 1 8.9-1.32v33h-60v-33a37.41 37.41 0 0 1 8.9 1.32z" fill="#ffc4c5"/><path d="m24.1 61.72c-1.57-2.41-3.59-4.82-4.57-7.55a46.92 46.92 0 0 1 -1.77-9.41 54.33 54.33 0 0 0 -3.61-14.44h-3.25a37.83 37.83 0 0 0 -6.41-1.17 4.54 4.54 0 0 0 .51 2.78c3.18 6 3.49 12.32 4.64 18.9a33 33 0 0 0 4.08 11.17h10.55z" fill="#ffa4ad"/><path d="m36.67 37.05c-2.34-5.29-10.1-.72-7.77 4.54 2.92 6.57 4 13.76 6.53 20.41h9.84c-4.15-7.67-5.04-16.93-8.6-24.95z" fill="#ffa4ad"/><path d="m32 7.33 4.08-3.26a9.11 9.11 0 0 1 5.7-2.07 9.28 9.28 0 0 1 6.35 2.63l5 4.76a13 13 0 0 1 3.87 9.46 13.89 13.89 0 0 1 -1.29 5.9l-2.41 5.15a68 68 0 0 0 -5.38 17.2l-2.22 12.81a2.33 2.33 0 0 1 -2.14 2.09 2.26 2.26 0 0 1 -2.07-1.76l-5.35-18.45a3.56 3.56 0 0 0 -3.27-2.79h-1.74a3.56 3.56 0 0 0 -3.27 2.79l-5.35 18.45a2.26 2.26 0 0 1 -2.07 1.76 2.33 2.33 0 0 1 -2.14-2.09l-2.22-12.81a68 68 0 0 0 -5.38-17.2l-2.41-5.15a13.89 13.89 0 0 1 -1.29-5.9 13 13 0 0 1 3.83-9.46l5-4.76a9.28 9.28 0 0 1 6.39-2.63 9.11 9.11 0 0 1 5.7 2.07l7.41 5.93z" fill="#d5d6d8"/><path d="m31.13 39h1.74a3.56 3.56 0 0 1 3.27 2.79l5.35 18.45a2.26 2.26 0 0 0 2.07 1.76 2.33 2.33 0 0 0 2.14-2.09l2.22-12.81a68 68 0 0 1 5.38-17.2l2.41-5.15a13.89 13.89 0 0 0 1.29-5.9 13 13 0 0 0 -3.83-9.46l-5-4.76a9.28 9.28 0 0 0 -6.39-2.63 9.11 9.11 0 0 0 -5.7 2.07l-4.08 3.26 3.33 2.67-7.41-5.93a9.11 9.11 0 0 0 -5.7-2.07 8.7 8.7 0 0 0 -3.67.83l-2.72 2.56a13 13 0 0 0 -3.83 9.46 13.89 13.89 0 0 0 1.29 5.9l2.41 5.15a68 68 0 0 1 5.38 17.2l2.22 12.81a3.23 3.23 0 0 0 .25.76l4.31-14.88a3.56 3.56 0 0 1 3.27-2.79z" fill="#e4e5e7"/><path d="m48.13 4.63a9.28 9.28 0 0 0 -6.35-2.63 9.11 9.11 0 0 0 -5.7 2.07l-4.08 3.26 3.33 2.67-7.41-5.93a9.11 9.11 0 0 0 -5.7-2.07 8.65 8.65 0 0 0 -.88 0c-.53 5.51-1.3 31.09 29 35.35a64.22 64.22 0 0 1 3-7.5l2.41-5.15a13.89 13.89 0 0 0 1.25-5.85 13 13 0 0 0 -3.83-9.46z" fill="#f1f1f3"/><ellipse cx="44.12" cy="10.49" fill="#fff" opacity=".7" rx="3.99" ry="7.99" transform="matrix(.742 -.67 .67 .742 4.35 32.28)"/><ellipse cx="52.53" cy="20.14" fill="#fff" opacity=".7" rx="1.79" ry="3.58" transform="matrix(.834 -.551 .551 .834 -2.4 32.29)"/><path d="m32 15c-4.71 0-8.46-1.47-9.62-3.58a1 1 0 0 1 .84-1.42h.19a.84.84 0 0 1 .73.48c.67 1.16 3.59 2.52 7.86 2.52s7.19-1.36 7.86-2.52a.84.84 0 0 1 .73-.48h.19a1 1 0 0 1 .84 1.42c-1.16 2.11-4.91 3.58-9.62 3.58z" fill="#d5d6d8"/><path d="m62 30.77a26.39 26.39 0 0 0 -8.59 1.45 1.54 1.54 0 0 0 -1 1.85 1.51 1.51 0 0 0 1.85 1 24.21 24.21 0 0 1 7.74-1.3z" fill="#f1f1f3" opacity=".7"/><g opacity=".7"><path d="m10.07 32.07a15.63 15.63 0 0 0 -6-1.12 1.5 1.5 0 0 0 0 3 14.06 14.06 0 0 1 1.45.05h.32.2-.19a2.58 2.58 0 0 1 .72.12 14.72 14.72 0 0 1 2.7.8 1.45 1.45 0 0 0 1.15-.15 1.53 1.53 0 0 0 .69-.89 1.51 1.51 0 0 0 -.11-1.12 1.75 1.75 0 0 0 -.89-.69z" fill="#f1f1f3"/></g></g></svg>