<svg id="Artboard_30" height="512" viewBox="0 0 64 64" width="512" xmlns="http://www.w3.org/2000/svg" data-name="Artboard 30"><path d="m18 56 1.52 1.51a1.67 1.67 0 0 1 -.34 2.62 6.28 6.28 0 0 1 -3.18.87c-3.87 0-7-3.58-7-8v-13.58a8.07 8.07 0 0 0 -1.34-4.42l-1.32-2a8.07 8.07 0 0 1 -1.34-4.42v-4.58a8 8 0 0 1 8-8h.07a6.22 6.22 0 0 1 1.82.27l10 3.08-1.89 3.65-8-2.68a6.18 6.18 0 0 0 -2-.32 4 4 0 0 0 -4 4v4.79a4 4 0 0 0 .67 2.21l1.33 2a11.93 11.93 0 0 1 2 6.65v6.14a6.22 6.22 0 0 1 6.1.06 1.73 1.73 0 0 1 .35 2.72l-1.45 1.43z" fill="#e8606a"/><ellipse cx="16" cy="53" fill="#70222f" rx="3" ry="4"/><path d="m5 24a8 8 0 0 1 8-8h.07a6.22 6.22 0 0 1 1.82.27l4.71 1.45a1.91 1.91 0 0 1 -2.46 1.84c-3.06-.89-7.41-1.21-8.81 2.41a14.17 14.17 0 0 0 -.73 5 7.66 7.66 0 0 0 .4 2.66 15.62 15.62 0 0 0 1.35 2.37c2.13 3.62 2.24 7.6 2 11.68a49.66 49.66 0 0 0 0 6.1 34.37 34.37 0 0 0 .6 5.64c.93 4 4.79 3.47 8 2.57a1.67 1.67 0 0 1 -.66 2.13 6.28 6.28 0 0 1 -3.29.88c-3.87 0-7-3.58-7-8v-13.58a8.07 8.07 0 0 0 -1.34-4.42l-1.32-2a8.07 8.07 0 0 1 -1.34-4.42z" fill="#ffa4ad"/><path d="m16 49c1.66 0 3 1.79 3 4a4.74 4.74 0 0 1 -.76 2.63 2.37 2.37 0 0 1 -1.24.37c-1.66 0-3-1.79-3-4a4.74 4.74 0 0 1 .76-2.63 2.37 2.37 0 0 1 1.24-.37z" fill="#b72e37"/><path d="m46 56-1.52 1.51a1.67 1.67 0 0 0 .34 2.62 6.28 6.28 0 0 0 3.18.87c3.87 0 7-3.58 7-8v-13.58a8.07 8.07 0 0 1 1.34-4.42l1.32-2a8.07 8.07 0 0 0 1.34-4.42v-4.58a8 8 0 0 0 -8-8h-.07a6.22 6.22 0 0 0 -1.82.27l-10 3.08 1.89 3.65 8.07-2.69a6.18 6.18 0 0 1 1.93-.31 4 4 0 0 1 4 4v4.79a4 4 0 0 1 -.67 2.21l-1.33 2a11.93 11.93 0 0 0 -2 6.65v6.14a6.22 6.22 0 0 0 -6.1.06 1.73 1.73 0 0 0 -.35 2.72l1.45 1.43z" fill="#e8606a"/><path d="m23 14h-6.46a4.54 4.54 0 0 1 -4.54-4.54 4.47 4.47 0 0 1 1.33-3.2l.93-.93a2.52 2.52 0 0 0 .74-1.79v-1.54h2v1.54a4.47 4.47 0 0 1 -1.33 3.2l-.93.93a2.54 2.54 0 0 0 1.8 4.33h6.46z" fill="#ffa4ad"/><path d="m47.46 14h-4.46v-2h4.46a2.54 2.54 0 0 0 1.8-4.33l-.93-.93a4.47 4.47 0 0 1 -1.33-3.2v-1.54h2v1.54a2.52 2.52 0 0 0 .74 1.79l.93.93a4.47 4.47 0 0 1 1.33 3.2 4.54 4.54 0 0 1 -4.54 4.54z" fill="#ffa4ad"/><path d="m21 18.14a8.36 8.36 0 0 1 -3-6.14c0-5.52 6.27-10 14-10s14 4.48 14 10a8.36 8.36 0 0 1 -3 6.14l-11 8.86z" fill="#8d2830"/><path d="m32 2c-5.46 0-10.17 2.24-12.48 5.49a6.62 6.62 0 0 0 .48 3.51c1.17 2.59 4 3.63 5 4 3.22 1.18 4.37-.11 10 0 5.47.11 7.14 1.4 9 0a5.64 5.64 0 0 0 2-3.47c-.38-5.31-6.49-9.53-14-9.53z" fill="#b72e37"/><path d="m30 62h-1a1.83 1.83 0 0 1 -1.52-.82l-2.32-3.47a6.81 6.81 0 0 1 -1.16-3.71 6.85 6.85 0 0 1 .26-1.86l1.48-5.18a6.85 6.85 0 0 0 .26-1.91v-16.05a4 4 0 0 1 4-4h4a4 4 0 0 1 4 4v16a6.85 6.85 0 0 0 .26 1.86l1.48 5.18a6.85 6.85 0 0 1 .26 1.96 6.81 6.81 0 0 1 -1.14 3.76l-2.32 3.47a1.83 1.83 0 0 1 -1.54.77z" fill="#e8606a"/><path d="m37.64 27.35.79-.31a4.05 4.05 0 0 0 2.57-3.75 4 4 0 0 0 -.69-2.24l-.84-1.25a4.12 4.12 0 0 0 -5.95-.92l-1.52 1.21-1.52-1.21a4.12 4.12 0 0 0 -5.95.92l-.84 1.25a4 4 0 0 0 -.69 2.24 4.05 4.05 0 0 0 2.57 3.71l.79.31z" fill="#f4b55d"/><ellipse cx="48" cy="53" fill="#70222f" rx="3" ry="4"/><path d="m41.93 12a1 1 0 0 1 -1.24-.47 8.48 8.48 0 0 0 -2.31-2.77 8.92 8.92 0 0 0 -5.38-1.76 1 1 0 0 1 -1-.88v-.12a1 1 0 0 1 1-1 11 11 0 0 1 6.66 2.25 10.78 10.78 0 0 1 2.85 3.43 1 1 0 0 1 -.51 1.32z" fill="#d83f4e"/><path d="m28 37.49-2-1.49v9a6.85 6.85 0 0 1 -.26 1.86l-1.48 5.18a6.77 6.77 0 0 0 .88 5.62l2.32 3.47a1.83 1.83 0 0 0 1.54.87h1v-20.48a5 5 0 0 0 -2-4.03z" fill="#fc959d"/><path d="m36 37.49 2-1.49v9a6.85 6.85 0 0 0 .26 1.86l1.48 5.18a6.77 6.77 0 0 1 -.88 5.62l-2.32 3.47a1.83 1.83 0 0 1 -1.54.87h-1v-20.48a5 5 0 0 1 2-4.03z" fill="#fc959d"/><path d="m24.83 19.45a6.81 6.81 0 0 0 2.17 3.55c2.53 2 5 .05 11 2 .9.29 1.58.58 2.11.79a4 4 0 0 0 .2-4.74l-.84-1.25a4.12 4.12 0 0 0 -5.95-.92l-1.52 1.21-1.52-1.21a4.1 4.1 0 0 0 -5.65.57z" fill="#ffe4a5"/><path d="m59 24a8 8 0 0 0 -8-8h-.07a6.22 6.22 0 0 0 -1.82.27l-4.71 1.45a1.91 1.91 0 0 0 2.46 1.84c3.06-.89 7.41-1.21 8.81 2.41a14.17 14.17 0 0 1 .73 5 7.66 7.66 0 0 1 -.4 2.66 15.62 15.62 0 0 1 -1.35 2.37c-2.13 3.62-2.24 7.6-2 11.68a49.66 49.66 0 0 1 0 6.1 34.37 34.37 0 0 1 -.6 5.64c-.93 4-4.79 3.47-8 2.57a1.67 1.67 0 0 0 .66 2.13 6.28 6.28 0 0 0 3.29.88c3.87 0 7-3.58 7-8v-13.58a8.07 8.07 0 0 1 1.34-4.42l1.32-2a8.07 8.07 0 0 0 1.34-4.42z" fill="#ffa4ad"/><path d="m48 49c-1.66 0-3 1.79-3 4a4.74 4.74 0 0 0 .76 2.63 2.37 2.37 0 0 0 1.24.37c1.66 0 3-1.79 3-4a4.74 4.74 0 0 0 -.76-2.63 2.37 2.37 0 0 0 -1.24-.37z" fill="#b72e37"/></svg>