<svg height="512" viewBox="0 0 64 64" width="512" xmlns="http://www.w3.org/2000/svg"><g id="Artboard_29" data-name="Artboard 29"><path d="m40 2v6l-1.53-1.15a4.11 4.11 0 0 0 -4.94 0l-1.53 1.15-1.53-1.15a4.11 4.11 0 0 0 -4.94 0l-1.53 1.15v-6h-4v9a7 7 0 0 0 3.5 6 7 7 0 0 1 3.5 6v18h10v-18a7 7 0 0 1 3.5-6 7 7 0 0 0 3.5-6v-9z" fill="#968d86"/><path d="m40 8-1.53-1.15a4.11 4.11 0 0 0 -4.94 0l-1.53 1.15-1.53-1.15a4.11 4.11 0 0 0 -4.94 0l-1.53 1.15v-6h-2.31c-.52 2.58.73 5.6 1.31 7 .8 1.93 2.54 4.29 4 7 .33.61 1.84 2 2 4v1c-.05 2.17 0 2.64 0 4 0 3.82-.14 3.73 0 4 .89 1.74 4.81 2.58 8 1.68v-7.68a7 7 0 0 1 3.5-6 7 7 0 0 0 3.5-6v-9h-4z" fill="#aba39b"/><path d="m29 32.21a2.79 2.79 0 0 0 2.79 2.79h5.21v-10h-8z" fill="#aba39b"/><path d="m27 42h10v20h-10z" fill="#968d86"/><path d="m27 28h10v2h-10z" fill="#96887f"/><path d="m27 32h10v2h-10z" fill="#96887f"/><path d="m29.12 14.5a2.47 2.47 0 0 0 -2.41-1.5 2.79 2.79 0 0 0 -1.82 1.46l-1.78-.91a4.73 4.73 0 0 1 3.32-2.55 4.42 4.42 0 0 1 4.45 2.52z" fill="#c0b9b8"/><path d="m34.88 14.5-1.76-.94a4.42 4.42 0 0 1 4.45-2.56 4.73 4.73 0 0 1 3.32 2.53l-1.78.91a2.79 2.79 0 0 0 -1.82-1.44 2.47 2.47 0 0 0 -2.41 1.5z" fill="#c0b9b8"/><path d="m31 16h2v9h-2z" fill="#c0b9b8"/><path d="m32 45h1.85a4.4 4.4 0 0 1 2.15.57l1.61.92a9.53 9.53 0 0 1 4.78 7.51l.3 4a4.35 4.35 0 0 0 4.31 4 4.35 4.35 0 0 0 3.28-1.5l5.72-6.56a24.63 24.63 0 0 0 6-16.13 24.62 24.62 0 0 0 -2.6-11l-2.91-5.81a5.4 5.4 0 0 0 -4.83-3h-2.57a4.09 4.09 0 0 0 -4.09 4.09v1.29a8.07 8.07 0 0 1 -.62 3.11l-1.3 3.13a12 12 0 0 1 -11.08 7.38 12 12 0 0 1 -11.08-7.38l-1.3-3.13a8.07 8.07 0 0 1 -.62-3.11v-1.29a4.09 4.09 0 0 0 -4.09-4.09h-2.57a5.4 5.4 0 0 0 -4.83 3l-2.91 5.8a24.62 24.62 0 0 0 -2.6 11 24.63 24.63 0 0 0 6 16.14l5.7 6.56a4.35 4.35 0 0 0 3.3 1.5 4.35 4.35 0 0 0 4.33-4l.3-4a9.53 9.53 0 0 1 4.78-7.55l1.59-.88a4.4 4.4 0 0 1 2.15-.57z" fill="#fb7f83"/><path d="m62 37.81a24.62 24.62 0 0 0 -2.6-11l-2.91-5.81a5.4 5.4 0 0 0 -4.83-3h-2.57a4.09 4.09 0 0 0 -4.09 4.09v1.29a8.07 8.07 0 0 1 -.62 3.11l-1.3 3.13a12 12 0 0 1 -22.16 0l-1.3-3.13a8.07 8.07 0 0 1 -.62-3.11v-1.29a4.09 4.09 0 0 0 -4.09-4.09h-2.57a5.55 5.55 0 0 0 -.72.05 42.87 42.87 0 0 0 -4.62 12.95c-.78 3.92-1.65 8.6 0 14s6 11.59 9 11c2-.39 1.48-3.35 5-7a17.4 17.4 0 0 1 10-5c2.9-.34 5.18.26 8 1 4.44 1.16 5 2.33 9 3a15.91 15.91 0 0 0 7 0 13.18 13.18 0 0 0 6.14-3.75 24.75 24.75 0 0 0 .86-6.44z" fill="#f9b9bd" opacity=".5"/><g opacity=".6"><path d="m16 55a1 1 0 0 1 -1.42.16 24.46 24.46 0 0 1 -5.46-6.65 24.75 24.75 0 0 1 -3.07-10.46 1 1 0 0 1 1-1h-.05a1 1 0 0 1 1 .92 22.48 22.48 0 0 0 7.87 15.63 1 1 0 0 1 .13 1.4z" fill="#fed8d9"/></g><g opacity=".6"><path d="m58 41a1 1 0 0 1 -1-1c0-.41 0-.82 0-1a20.8 20.8 0 0 0 -1-7.68 19.88 19.88 0 0 0 -4-6.91 1 1 0 0 1 0-1.41 1 1 0 0 1 1.44 0 22.23 22.23 0 0 1 4.56 7.68 22.57 22.57 0 0 1 1 8.32v1a1 1 0 0 1 -1 1z" fill="#fed8d9"/></g><path d="m59.4 26.8-2.91-5.8a5.4 5.4 0 0 0 -4.83-3h-2.57a4.09 4.09 0 0 0 -4.09 4.09v1.29a8.07 8.07 0 0 1 -.62 3.11l-.26.63c.28 3 1 3.82.88 6.88-.13 5.35-2.28 6.93-1 9 1.47 2.37 5.65 2.44 8 2 4.81-.9 7.35-5 8-6a17.6 17.6 0 0 0 1.79-4.37 24.85 24.85 0 0 0 -2.39-7.83z" fill="#fff" opacity=".2"/><path d="m36 37a8.13 8.13 0 0 0 1-1.11 11.85 11.85 0 0 1 -5 1.11 12 12 0 0 1 -11.08-7.38l-1.3-3.13a8.07 8.07 0 0 1 -.62-3.11v-1.29a4.09 4.09 0 0 0 -4.09-4.09h-.34a16.59 16.59 0 0 0 -3.57 5 16.35 16.35 0 0 0 -2 11c.37 1.81 1 5.09 4 7a8.71 8.71 0 0 0 7 1c2.65-.78 2.4-2.3 5-3 2.77-.75 3.72.79 7 0a9.23 9.23 0 0 0 4-2z" fill="#fff" opacity=".2"/><ellipse cx="54.15" cy="24.27" fill="#f1f1f3" opacity=".3" rx="2.29" ry="4.59" transform="matrix(.905 -.425 .425 .905 -5.18 25.28)"/><ellipse cx="14.27" cy="23.68" fill="#f1f1f3" opacity=".3" rx="3.87" ry="1.93" transform="matrix(.356 -.934 .934 .356 -12.94 28.57)"/><path d="m37 62v-15h-5.84a2.16 2.16 0 0 0 -2.16 2.16v12.84z" fill="#aba39b"/><g fill="#96887f"><path d="m27 48h10v2h-10z"/><path d="m27 52h10v2h-10z"/><path d="m27 56h10v2h-10z"/></g><path d="m33 7.25-1 .75-1-.75v3.75h2z" fill="#c0b9b8"/></g></svg>