<svg height="512" viewBox="0 0 64 64" width="512" xmlns="http://www.w3.org/2000/svg"><g id="Artboard_03" data-name="Artboard 03"><path d="m27.85 32h-10.21-6.06-9.58v30h60v-30h-7.36-6.06-11.99z" fill="#ffc4c5"/><g fill="#ffa4ad"><path d="m45.81 36.27a34.46 34.46 0 0 0 -1.53 6.59 19 19 0 0 0 0 6.77 5.14 5.14 0 0 0 4.17 4.11 4.53 4.53 0 0 0 4.84-3.12 1.5 1.5 0 1 0 -2.89-.79 1.51 1.51 0 0 1 -2.25.7c-1.15-.81-1.15-2.53-1.15-3.78a31.38 31.38 0 0 1 1.73-9.69c.62-1.83-2.28-2.61-2.9-.79z"/><path d="m8.87 36.27a34.49 34.49 0 0 0 -1.54 6.59 18.79 18.79 0 0 0 0 6.77 5.13 5.13 0 0 0 4.17 4.11 4.52 4.52 0 0 0 4.83-3.12 1.5 1.5 0 0 0 -1.05-1.84 1.52 1.52 0 0 0 -1.84 1 1.51 1.51 0 0 1 -2.25.7c-1.19-.76-1.19-2.48-1.19-3.73a31.36 31.36 0 0 1 1.72-9.69c.62-1.83-2.27-2.61-2.89-.79z"/><path d="m24.27 36.18c-2.57 7.17-4.81 15.18-1.07 22.39 1.19 2.28 4.69.34 3.5-2-3.19-6.14-.77-13.25 1.41-19.3.87-2.42-3-3.56-3.84-1.14z"/></g><path d="m62 54c-4.63 0-10 4-15 4-4.28 0-7.19-1.65-10-2.83l-12.52.83c-2.58 1-5.13 2-7.48 2-4.95 0-10.37-4-15-4v8h60z" fill="#f4b55d"/><path d="m62 40c-1.25 1-2.5 2-4 2a6.27 6.27 0 0 1 -3.74-1.8l-6.75-1.33c-1.8 1.13-3.41 3.13-5.51 3.13s-3.68-1.93-5.47-3.11l-11 3.11c-2.75-.39-4.69-4-7.53-4a3.36 3.36 0 0 0 -.63.06l-7.48 3.94c-2.89-.09-4.89-4-7.89-4v-4h60z" fill="#ffa4ad"/><path d="m62 38c-1.25 1-2.5 2-4 2a6.27 6.27 0 0 1 -3.74-1.8l-6.75-1.33c-1.8 1.13-3.41 3.13-5.51 3.13s-3.68-1.93-5.47-3.11l-11 3.11c-2.75-.39-4.69-4-7.53-4a3.36 3.36 0 0 0 -.63.06l-7.48 3.94c-2.89-.09-4.89-4-7.89-4v-4h60z" fill="#fed8d9"/><g opacity=".6"><path d="m4.66 58 4.81 1.76a20.13 20.13 0 0 0 4.68 1.32 28 28 0 0 0 9.91-.71c1.87-.47 1.08-3.36-.8-2.89a24.75 24.75 0 0 1 -9.11.6 20 20 0 0 1 -4.05-1.28l-4.64-1.7c-1.82-.66-2.6 2.24-.8 2.89z" fill="#ffe4a5"/></g><g opacity=".6"><path d="m37.8 59.75c3.77 1 8 2.34 11.87 1.63 3.5-.64 6.59-2.83 10.16-3.12 1.91-.15 1.93-3.16 0-3-3.56.29-6.57 2.11-10 3a11.51 11.51 0 0 1 -5.41-.06c-2-.4-3.92-.85-5.87-1.35s-2.67 2.42-.79 2.9z" fill="#ffe4a5"/></g><g opacity=".8"><path d="m39.67 35.62a1.5 1.5 0 0 0 0-3 1.5 1.5 0 0 0 0 3z" fill="#f1f1f3"/></g><g opacity=".8"><path d="m43 35.59h16.24a1.5 1.5 0 0 0 0-3h-16.24a1.5 1.5 0 0 0 0 3z" fill="#f1f1f3"/></g><g opacity=".8"><path d="m8 35.62a1.5 1.5 0 0 0 0-3 1.5 1.5 0 0 0 0 3z" fill="#f1f1f3"/></g><g opacity=".8"><path d="m11.31 35.59h16.24a1.5 1.5 0 0 0 0-3h-16.24a1.5 1.5 0 0 0 0 3z" fill="#f1f1f3"/></g><path d="m56.43 7a1.87 1.87 0 0 0 -1.81 1.37c-1.72 6.21-8.62 31.63-8.62 38.63 0 0 0 6 4 6s4-6 4-6 0-23.22 4.22-37.59a1.88 1.88 0 0 0 -1.79-2.41z" fill="#303030"/><path d="m57.36 7.26c-2 7.22-8.43 31.15-8.43 37.91 0 0 0 6 4 6a9.64 9.64 0 0 0 1.07-4.17s0-23.22 4.22-37.59a1.87 1.87 0 0 0 -.86-2.15z" fill="#393a3a"/><g opacity=".5"><path d="m55.47 10.19-2.47 10.22c-.3 1.25 1.63 1.79 1.93.54l2.5-10.23a1 1 0 0 0 -1.93-.53z" fill="#f1f1f3"/></g><g opacity=".5"><path d="m52.13 23.26a6.18 6.18 0 0 0 -.29 1.2l-.23 1.3a1 1 0 0 0 .1.77 1 1 0 0 0 1.36.36 1 1 0 0 0 .46-.6l.24-1.3a7 7 0 0 1 .28-1.2 1 1 0 0 0 -.05-.79 1 1 0 0 0 -.59-.46 1 1 0 0 0 -.77.1 1.1 1.1 0 0 0 -.46.6z" fill="#f1f1f3"/></g><path d="m39.53 2a1.47 1.47 0 0 0 -1.37.93c-2.3 5.91-14.64 38.07-14.64 48.07 0 0-1 8 7 8s7-8 7-8a117 117 0 0 1 3.42-47.09 1.48 1.48 0 0 0 -1.41-1.91z" fill="#303030"/><path d="m19.43 7a1.87 1.87 0 0 0 -1.81 1.37c-1.72 6.21-8.62 31.63-8.62 38.63 0 0 0 6 4 6s4-6 4-6 0-23.22 4.22-37.59a1.88 1.88 0 0 0 -1.79-2.41z" fill="#303030"/><path d="m20.36 7.26c-2 7.22-8.43 31.15-8.43 37.91 0 0 0 6 4 6h.07a9.64 9.64 0 0 0 1-4.17s0-23.22 4.22-37.59a1.87 1.87 0 0 0 -.86-2.15z" fill="#393a3a"/><g opacity=".5"><path d="m18.47 10.19-2.47 10.22c-.3 1.25 1.63 1.79 1.93.54l2.5-10.23a1 1 0 0 0 -1.93-.53z" fill="#f1f1f3"/></g><g opacity=".5"><path d="m15.13 23.26a6.18 6.18 0 0 0 -.29 1.2l-.23 1.3a1 1 0 0 0 .1.77 1 1 0 0 0 1.36.36 1 1 0 0 0 .46-.6l.24-1.3a7 7 0 0 1 .28-1.2 1 1 0 0 0 -.05-.79 1 1 0 0 0 -.59-.46 1 1 0 0 0 -.77.1 1.1 1.1 0 0 0 -.46.6z" fill="#f1f1f3"/></g><path d="m36.61 55.89a9 9 0 0 0 .91-4.89 117 117 0 0 1 3.42-47.09 1.47 1.47 0 0 0 -1-1.84c-3.19 9.65-12.04 37.23-11.63 46.24 0 0-.64 8 7.35 7.68.34.01.64-.06.95-.1z" fill="#393a3a"/><g opacity=".5"><path d="m36.35 10.26-3.07 10.06c-.38 1.23 1.51 1.88 1.89.64l3.08-10.06c.37-1.23-1.52-1.87-1.9-.64z" fill="#f1f1f3"/></g><g opacity=".5"><path d="m32.27 23.12a6.72 6.72 0 0 0 -.36 1.18l-.3 1.28a1 1 0 0 0 .62 1.27 1.05 1.05 0 0 0 .78-.06 1 1 0 0 0 .49-.57l.31-1.28a7 7 0 0 1 .35-1.18 1 1 0 0 0 -.63-1.27 1 1 0 0 0 -.77.06 1.1 1.1 0 0 0 -.49.57z" fill="#f1f1f3"/></g></g></svg>