<svg height="512" viewBox="0 0 64 64" width="512" xmlns="http://www.w3.org/2000/svg"><g id="Artboard_23" data-name="Artboard 23"><circle cx="32" cy="32" fill="#f2f2f2" r="30"/><circle cx="32" cy="32" fill="#bdbdbe" r="26"/><path d="m29.5 8.5a25.9 25.9 0 0 0 -17.09 6.41 26 26 0 0 0 36.68 36.68 26 26 0 0 0 -19.59-43.09z" fill="#d7d7d8"/><path d="m35.55 18a3.91 3.91 0 0 1 0-4c1-1.23 2.8-1.08 3.87-1 4 .32 6.74 3 7.73 4a18.23 18.23 0 0 1 4.85 11c.16 3-.7 3.78-1 4a3.42 3.42 0 0 1 -3.86 0c-1.15-.77-1.47-2.09-1.93-4-.73-3-.09-3.77-1-5-.53-.74-.94-.69-3.86-2-3.97-1.76-4.5-2.43-4.8-3z" fill="#2981bd"/><circle cx="39" cy="31" fill="#5499c9" r="3"/><path d="m18.4 45.85a5.09 5.09 0 0 1 1-5.52c1.94-2 5.2-1.2 5.87-1 2.2.61 2.11 1.31 4.89 2.45 1.47.61 4.12 1.73 6.84 1 2.16-.56 1.6-2.88 3.91-4.09 1.33-.69 3.54-1.15 4.89 0s1.4 3.57 1 5.11c-1.69 6.13-13.13 7.1-13.69 7.14s-12.45.8-14.71-5.09z" fill="#2981bd"/><circle cx="14" cy="37" fill="#5499c9" r="3"/><path d="m21.21 18.46a3.72 3.72 0 0 1 .85-3.81c1.51-1.39 4-.14 4.28 0 4.56 2.35 5.92 11.84 3.42 17.17a5.21 5.21 0 0 1 -2.57 2.87c-1.44.61-4.16.35-4.9-1s.28-3.6.85-4.77c.86-1.68 1.53-1.68 1.86-2.92.41-1.52.56-3.35-.37-4.67-1.27-1.8-2.81-1.33-3.42-2.87z" fill="#2981bd"/><g fill="#5499c9"><circle cx="18" cy="24" r="3"/><circle cx="31" cy="11" r="2"/><path d="m52 28a18.23 18.23 0 0 0 -4.83-11c-1-1-3.77-3.67-7.73-4-1.07-.08-2.92-.23-3.87 1a3 3 0 0 0 -.57 1.79 2.91 2.91 0 0 0 1.1 0c3.81-.87 7.74 1.39 10.08 4.32a12.67 12.67 0 0 1 2.39 5.21 11.68 11.68 0 0 1 .24 3 3.23 3.23 0 0 1 -.72 2 2.8 2.8 0 0 0 -.7 1.81 3.38 3.38 0 0 0 3.61-.13c.28-.21 1.14-1 1-4z"/><path d="m26.34 14.65c-.27-.14-2.77-1.39-4.28 0a1.14 1.14 0 0 0 -.14.16 2.18 2.18 0 0 0 1.2 1.92 7.37 7.37 0 0 1 4.32 6.27c.29 2.75.16 6.26-2.19 7.73a2.54 2.54 0 0 0 -.9 3.42 2.47 2.47 0 0 0 .82.82 4.92 4.92 0 0 0 2-.3 5.21 5.21 0 0 0 2.57-2.87c2.52-5.31 1.16-14.8-3.4-17.15z"/><path d="m45.78 38.7c-1.35-1.15-3.56-.69-4.89 0-2.31 1.21-1.75 3.53-3.91 4.09-2.72.7-5.37-.42-6.84-1-2.78-1.14-2.69-1.84-4.89-2.45-.67-.18-3.93-1-5.87 1a5 5 0 0 0 -1.24 4.66 7.69 7.69 0 0 1 2.37-2.08 8.09 8.09 0 0 1 3.82-.32c3 .18 5.13 2.36 8.06 2.8 3.13.46 6 .28 8.41-2 1.73-1.65 3.29-3.38 6-3a3.29 3.29 0 0 0 -1.02-1.7z"/></g></g></svg>