<svg height="512" viewBox="0 0 64 64" width="512" xmlns="http://www.w3.org/2000/svg"><g id="Artboard_02" data-name="Artboard 02"><path d="m62 32-8.58 10.09a28.09 28.09 0 0 1 -21.42 9.91 28.09 28.09 0 0 1 -21.42-9.91l-8.58-10.09 8.58-10.09a28.09 28.09 0 0 1 21.42-9.91 28.09 28.09 0 0 1 21.42 9.91z" fill="#e4e5e7"/><path d="m32 12a28.09 28.09 0 0 0 -21.42 9.91l-6.88 8.09 6.88 8.09a28.1 28.1 0 0 0 42.84 0l6.88-8.09-6.88-8.09a28.09 28.09 0 0 0 -21.42-9.91z" fill="#f1f1f3"/><path d="m46.93 23.86a17 17 0 1 1 -29.88 0l-.05-3.86h30z" fill="#71aad4"/><path d="m40 21.79a13 13 0 1 1 -16.09 0l.09-2.79h16z" fill="#1f5389"/><path d="m40 21.79v-2.79h-13v.86a13 13 0 0 0 13.59 22 13 13 0 0 0 -.5-20z" fill="#408fc4" opacity=".5"/><path d="m30.76 39.91a8.08 8.08 0 0 1 -6.76-7.74 7.77 7.77 0 0 1 .36-2.54 1 1 0 0 1 1.39-.6 1 1 0 0 1 .52 1.18 6.25 6.25 0 0 0 -.05 3.46 5.55 5.55 0 0 0 3.07 3.73 6 6 0 0 0 8.71-5.4 5.92 5.92 0 0 0 -.27-1.79 1 1 0 0 1 .52-1.21 1 1 0 0 1 1.39.6 7.87 7.87 0 0 1 .36 2.4 8 8 0 0 1 -9.24 7.91z" fill="#71aad4"/><path d="m62 32-8.58-10.09a28.09 28.09 0 0 0 -21.42-9.91 28.09 28.09 0 0 0 -21.42 9.91l-8.58 10.09 10.3-5.84a40 40 0 0 1 39.4 0z" fill="#ecbe9f"/><path d="m58.64 28.05-5.22-6.14a28.07 28.07 0 0 0 -34.89-6.46c-.45 1.75-.53 3.78.47 4.55s3.12-.25 5-1c7.39-2.93 15.09-.8 18 0 3.89 1.07 6.68 2.77 12 6 .85.52 2.27 1.4 4.64 3.05z" fill="#fbdac2"/><g fill="#f1f1f3"><ellipse cx="39.49" cy="26.73" opacity=".5" rx="2" ry="4.02" transform="matrix(.905 -.425 .425 .905 -7.61 19.29)"/><ellipse cx="41.98" cy="32.06" opacity=".5" rx=".68" ry="1.37" transform="matrix(.905 -.425 .425 .905 -9.64 20.85)"/></g></g></svg>