<svg height="512" viewBox="0 0 64 64" width="512" xmlns="http://www.w3.org/2000/svg"><g id="Artboard_14" data-name="Artboard 14"><path d="m51 2a47.86 47.86 0 0 0 3 15c1.79 4.75 3 5.53 5 11 1.58 4.36 3.1 8.54 3 14-.08 3.76-.2 10.17-5 15a16.87 16.87 0 0 1 -12 5c-2.26 0-3.35-1.42-9-3a14.72 14.72 0 0 0 -7.9 0h-.1c-5.66 1.58-6.74 3-9 3a16.87 16.87 0 0 1 -12-5c-4.81-4.83-4.93-11.24-5-15-.1-5.46 1.42-9.64 3-14 2-5.47 3.2-6.25 5-11a48.15 48.15 0 0 0 3-15z" fill="#fb7f83"/><path d="m54 17a47.86 47.86 0 0 1 -3-15h-38a48.15 48.15 0 0 1 -3 15c-1.8 4.75-3 5.53-5 11a40.89 40.89 0 0 0 -2.92 11.55c.2 3.74 1 8.71 4.92 12.63a16.87 16.87 0 0 0 12 5c2.26 0 3.34-1.41 9-3h.05a14.72 14.72 0 0 1 7.9 0c5.65 1.59 6.74 3 9 3a16.87 16.87 0 0 0 12-5c3.9-3.92 4.71-8.89 4.92-12.63a41.57 41.57 0 0 0 -2.87-11.55c-2-5.47-3.21-6.25-5-11z" fill="#f4c8ad"/><path d="m40.05 34.92-.71-.4a2.54 2.54 0 0 1 -.49-4.13 9.37 9.37 0 0 1 6.15-2.39c-1.2-1.66-4.08-8.72-5-13a74.67 74.67 0 0 1 -1-13h5v3a29.23 29.23 0 0 0 3.4 14q.29.53.6 1.05c2 3.29 3.41 4.3 5 7s3 7 3 14v1c0 7.73-4.92 14-11 14a9.21 9.21 0 0 1 -5.24-1.69 1.78 1.78 0 0 1 -.26-2.68l1.43-1.5z" fill="#fb7f83"/><ellipse cx="45" cy="42" fill="#fbe1ca" rx="7" ry="10"/><path d="m45 32a5.25 5.25 0 0 0 -2.74.79 12.56 12.56 0 0 0 -1.91 6.86c0 5.52 3.13 10 7 10a5.28 5.28 0 0 0 2.74-.79 12.61 12.61 0 0 0 1.91-6.86c0-5.53-3.13-10-7-10z" fill="#ffeee1"/><path d="m51.91 40.45a5.59 5.59 0 0 0 -2.72-1.45 5.5 5.5 0 0 0 -1.75 0 6.5 6.5 0 0 1 -1.34 0 6.11 6.11 0 0 1 -1.84-.48 1 1 0 0 0 -1.22.42 1 1 0 0 0 .46 1.43 8.25 8.25 0 0 0 2.4.62 5.16 5.16 0 0 0 .66 0l-1.56 1.59a1 1 0 0 0 0 1.42 1 1 0 0 0 1.41 0l2.87-2.87a4.85 4.85 0 0 1 2 1.56l.65.67c0-.45.07-.9.07-1.36s0-1-.09-1.55z" fill="#fb7f83"/><path d="m56 41c0-7-1.36-11.23-3-14s-3-3.71-5-7q-.31-.53-.6-1.05a29.23 29.23 0 0 1 -3.4-13.95v-3h-2.9c-.17 7.71 1 14.32 5.47 21 2.28 3.42 4.91 6.68 6.42 10.54a38.84 38.84 0 0 1 2.32 13.26 17.24 17.24 0 0 0 .69-4.8z" fill="#fc959d"/><path d="m24 34.92.71-.4a2.54 2.54 0 0 0 .49-4.13 9.37 9.37 0 0 0 -6.2-2.39c1.2-1.66 4.08-8.72 5-13a74.67 74.67 0 0 0 1-13h-5v3a29.23 29.23 0 0 1 -3.4 14q-.29.53-.6 1.05c-2 3.29-3.41 4.3-5 7s-3 6.95-3 13.95v1c0 7.73 4.92 14 11 14a9.21 9.21 0 0 0 5.24-1.69 1.78 1.78 0 0 0 .26-2.68l-1.42-1.5z" fill="#fb7f83"/><ellipse cx="19" cy="42" fill="#fbe1ca" rx="7" ry="10"/><path d="m19 32a5.25 5.25 0 0 1 2.74.79 12.56 12.56 0 0 1 1.92 6.86c0 5.52-3.14 10-7 10a5.22 5.22 0 0 1 -2.74-.79 12.53 12.53 0 0 1 -1.92-6.86c0-5.53 3.13-10 7-10z" fill="#ffeee1"/><path d="m12.09 40.45a5.59 5.59 0 0 1 2.72-1.45 5.5 5.5 0 0 1 1.75 0 6.5 6.5 0 0 0 1.34 0 6.11 6.11 0 0 0 1.84-.48 1 1 0 0 1 1.22.42 1 1 0 0 1 -.46 1.43 8.25 8.25 0 0 1 -2.4.62 5.16 5.16 0 0 1 -.66 0l1.56 1.59a1 1 0 0 1 0 1.42 1 1 0 0 1 -1.41 0l-2.87-2.87a4.85 4.85 0 0 0 -2 1.56l-.65.67c0-.45-.07-.9-.07-1.36s0-1 .09-1.55z" fill="#fb7f83"/><path d="m8 41c0-7 1.36-11.23 3-14s3-3.71 5-7q.32-.53.6-1.05a29.23 29.23 0 0 0 3.4-13.95v-3h2.9c.17 7.71-1 14.32-5.47 21-2.28 3.42-4.91 6.68-6.42 10.54a38.84 38.84 0 0 0 -2.32 13.29 17.24 17.24 0 0 1 -.69-4.83z" fill="#fc959d"/><path d="m61.92 39.55a41.57 41.57 0 0 0 -2.92-11.55c-2-5.47-3.21-6.25-5-11a47.86 47.86 0 0 1 -3-15h-4.36a5.77 5.77 0 0 0 .1.89c1.47 7.27 2.22 15 6.45 21.37a99.89 99.89 0 0 1 8.6 16.9c.06-.56.1-1.1.13-1.61z" fill="#ffeee1" opacity=".5"/></g></svg>