<svg height="512" viewBox="0 0 64 64" width="512" xmlns="http://www.w3.org/2000/svg"><g id="Artboard_18" data-name="Artboard 18"><path d="m32.6 32.52-1.7-1 1.68-2.78c1.52-2.57 4.17-5.74 8.2-6.74 3.34-.77 7.94.05 11.7 2.1.49.26.93.53 1.34.79 1.19.72 2 1.2 3.08 1.09h.1a4 4 0 1 0 -4-4h-2a6 6 0 1 1 6 6 6.53 6.53 0 0 1 -4.27-1.39c-.39-.23-.8-.49-1.26-.74-3.3-1.79-7.44-2.56-10.3-1.9-3.34.77-5.6 3.56-6.92 5.75z" fill="#fb7f83"/><path d="m57 25v-2a1 1 0 1 0 -1-1h-2a3 3 0 1 1 3 3z" fill="#fb7f83"/><path d="m22 26c0-5-3-11-10-11-4 0-7.2 1-9.09 6.06a13.18 13.18 0 0 0 2.41 13.62 5 5 0 0 0 .64.58l2.91 2.26a4.33 4.33 0 0 1 1.41 1.76l1.39 3.48a4.55 4.55 0 0 1 .33 1.68v-.35c0 2.49 2 4.91 4.5 4.91 2.5 0 4.5-2.42 4.5-4.91v-1.09z" fill="#f2b9a1"/><path d="m12 15a16.76 16.76 0 0 0 -2.39.15 5.33 5.33 0 0 0 -4.18 3.38 13.18 13.18 0 0 0 2.4 13.64 5 5 0 0 0 .64.58l3.1 2.4a3.92 3.92 0 0 1 1.22 1.62l1.39 3.48a4.55 4.55 0 0 1 .32 1.67v-.35c0 2.49 2 4.92 4.5 4.92a3.86 3.86 0 0 0 1.51-.32 4.88 4.88 0 0 0 .49-2.08v-1.09l1-17c0-5-3-11-10-11z" fill="#f4c8ad"/><path d="m18 36h-2a4 4 0 0 1 0-8h1v-3a5 5 0 0 0 -10 0h-2a7 7 0 0 1 14 0v4a1 1 0 0 1 -1 1h-2a2 2 0 0 0 0 4h2z" fill="#f2b9a1"/><path d="m22 26v-4a2 2 0 0 1 2-2 2 2 0 0 1 2 2v1.19a6.37 6.37 0 0 0 4.62 6.13 6.43 6.43 0 0 0 4.6-.43l1.67-.84a6.38 6.38 0 0 1 4.4-.48l9 2.24a6.63 6.63 0 0 0 1.54.19h10.17v6c-8 3-16 0-16 0a9.78 9.78 0 0 0 -11 2c-5 5-10 4-10 4v1a2 2 0 0 1 -2 2 2 2 0 0 1 -2-2v-5z" fill="#fb7f83"/><path d="m50.24 29.81-9-2.24a6.38 6.38 0 0 0 -4.4.48l-1.67.84a6.43 6.43 0 0 1 -4.6.43 6.36 6.36 0 0 1 -4.57-6.13v-1.19a2 2 0 0 0 -4 0v4l-.82 9.81a20.7 20.7 0 0 0 4.64.67 23.92 23.92 0 0 0 9.18-1c3.34-1.21 5.6-2.93 9.28-2.11 3 .66 5.79 1.86 8.88 2s5.84-.97 8.84-1.37v-4h-10.22a6.63 6.63 0 0 1 -1.54-.19z" fill="#fc959d"/></g></svg>