<svg height="512" viewBox="0 0 64 64" width="512" xmlns="http://www.w3.org/2000/svg"><g id="Artboard_11" data-name="Artboard 11"><path d="m62 19.57-4 4a20.06 20.06 0 0 0 -4.56 7.05l-1.44 3.7a30.52 30.52 0 0 1 -17.68 17.68l-3.66 1.39a20 20 0 0 0 -7 4.55l-4 4-5.66-5.52 4-4a20 20 0 0 0 4.55-7l1.45-3.74a30.52 30.52 0 0 1 17.68-17.68l3.66-1.38a20.06 20.06 0 0 0 7-4.56l4-4z" fill="#8d2830"/><path d="m24.57 51.43c4.23-1.71 11.12-4.16 17-10 6.2-6.09 8.8-13.3 10.55-17.63-4.33 1.76-11.54 4.36-17.64 10.56-5.78 5.9-8.23 12.79-9.94 17z" fill="#601b2a"/><path d="m56.43 14-4 4a20.06 20.06 0 0 1 -7 4.56l-3.75 1.44a30.52 30.52 0 0 0 -17.68 17.68l-1.39 3.66c-.19.51-.42 1-.66 1.51a2 2 0 0 0 .45 2.41c1.12.9 3 .44 3.26.39 2.3-.47 3.5-2.54 4.76-4.5 0 0 3-4.78 6.2-9 4.93-6.42 10.19-6.22 17-13a40 40 0 0 0 3.72-4.3l1.66-2.27z" fill="#b72e37"/><path d="m43.18 24.16a39.39 39.39 0 0 0 -10.43 6.61c-3.25 2.86-5.28 6.72-7.15 10.57-.56 1.15 1.16 2.17 1.73 1 1.79-3.7 3.71-7.42 6.84-10.17a38.14 38.14 0 0 1 10-6.3c1.17-.51.16-2.23-1-1.72z" fill="#d83f4e"/><path d="m59.18 16.75-1.42-1.42c-2.41 2.31-4.58 4.85-6.91 7.24a44.36 44.36 0 0 1 -8.49 6.64c-2.8 1.76-5.46 3.65-7.3 6.46s-3 6.22-5 9c-.75 1 1 2 1.72 1 2-2.76 3-6 4.86-8.87s4.83-4.74 7.74-6.56a42.19 42.19 0 0 0 7.89-6.24c2.33-2.41 4.5-4.94 6.91-7.25z" fill="#d83f4e"/><g fill="#ffa4ad"><path d="m17.5 59.92-1.42-1.42 14.85-14.85a1 1 0 0 1 1.42 0 1 1 0 0 1 0 1.42z"/><rect height="2" rx="1" transform="matrix(.707 -.707 .707 .707 -15.74 38)" width="12" x="32" y="37"/><path d="m43.66 32.34a1 1 0 0 1 0-1.41l14.85-14.85 1.41 1.41-14.85 14.85a1 1 0 0 1 -1.41 0z"/></g><path d="m50 7.58-4 4a20.11 20.11 0 0 0 -4.56 7l-1.44 3.74a30.51 30.51 0 0 1 -17.68 17.68l-3.66 1.38a20.11 20.11 0 0 0 -7 4.56l-4 4-5.66-5.51 4-4a19.9 19.9 0 0 0 4.55-7l1.45-3.75a30.53 30.53 0 0 1 17.68-17.68l3.66-1.39a19.9 19.9 0 0 0 7-4.55l4-4z" fill="#8d2830"/><path d="m12.57 39.44c4.23-1.71 11.12-4.16 17-9.95 6.2-6.1 8.8-13.31 10.55-17.63-4.33 1.75-11.54 4.35-17.64 10.56-5.78 5.89-8.23 12.79-9.94 17z" fill="#601b2a"/><path d="m44.43 2-4 4a19.9 19.9 0 0 1 -7 4.55l-3.75 1.45a30.53 30.53 0 0 0 -17.68 17.68l-1.39 3.66c-.19.52-.42 1-.66 1.52a2 2 0 0 0 .45 2.41c1.12.91 3 .45 3.26.39 2.3-.46 3.5-2.53 4.76-4.5 0 0 3-4.78 6.2-9 4.93-6.42 10.19-6.22 17-13a41 41 0 0 0 3.72-4.3l1.66-2.27z" fill="#b72e37"/><path d="m31.18 12.16a39.67 39.67 0 0 0 -10.43 6.62c-3.25 2.85-5.28 6.72-7.15 10.56-.56 1.16 1.16 2.17 1.73 1 1.79-3.69 3.71-7.41 6.84-10.16a38.14 38.14 0 0 1 10-6.3c1.17-.51.16-2.24-1-1.73z" fill="#d83f4e"/><path d="m47.18 4.75-1.42-1.41c-2.41 2.31-4.58 4.85-6.91 7.24a44.76 44.76 0 0 1 -8.49 6.64c-2.8 1.75-5.46 3.65-7.3 6.46s-2.95 6.22-5 9c-.75 1 1 2 1.72 1 2-2.76 3-6 4.86-8.86s4.83-4.75 7.74-6.57a41.74 41.74 0 0 0 7.89-6.25c2.33-2.4 4.5-4.94 6.91-7.25z" fill="#d83f4e"/><path d="m5.5 47.92-1.42-1.41 14.85-14.85a1 1 0 0 1 1.42 0 1 1 0 0 1 0 1.41z" fill="#ffa4ad"/><rect fill="#ffa4ad" height="2" rx="1" transform="matrix(.707 -.707 .707 .707 -10.77 26)" width="12" x="20" y="25"/><path d="m31.66 20.35a1 1 0 0 1 0-1.42l14.85-14.85 1.41 1.42-14.85 14.85a1 1 0 0 1 -1.41 0z" fill="#ffa4ad"/></g></svg>