<svg height="512" viewBox="0 0 64 64" width="512" xmlns="http://www.w3.org/2000/svg"><g id="Artboard_12" data-name="Artboard 12"><path d="m32.77 46.8a11.09 11.09 0 0 0 6.23 2.2 11.49 11.49 0 0 0 7.85-2.86l5.15-34.14h-1a5 5 0 0 1 -5-5v-5h-4v5a5 5 0 0 1 -5 5h-1z" fill="#ffa4ad"/><path d="m16.23 47a10.48 10.48 0 0 1 -2.23 8.34 10.2 10.2 0 0 1 -5.76 3.41l-2.24.5.78-12.25 8.1-2.17z" fill="#601b2a"/><path d="m35.62 12h-10.94a22.67 22.67 0 0 0 -22.68 22.68v24.22a3.1 3.1 0 0 0 3.1 3.1 3.1 3.1 0 0 0 3.08-2.76c.49-4.33 2.28-12.24 8.82-12.24h13.62a11.39 11.39 0 0 0 11.38-11.38v-17.24a6.37 6.37 0 0 0 -6.38-6.38z" fill="#70222f"/><path d="m35.63 12h-11a22.66 22.66 0 0 0 -9.25 2 28.5 28.5 0 0 0 -8 12.57l-.92 2.94a10.61 10.61 0 0 0 -.46 3.08 10.41 10.41 0 0 0 10.41 10.41h22.86a11.31 11.31 0 0 0 2.73-7.38v-17.24a6.37 6.37 0 0 0 -6.37-6.38z" fill="#8d2830"/><path d="m35.63 12h-11.13c-1.25.62-2.48 1.27-3.66 1.89a9.6 9.6 0 0 0 -3.91 3.37 9.15 9.15 0 0 0 -1.32 5.53 10.68 10.68 0 0 0 3.52 6.7c3.26 3.15 5.25 1.72 9 5 2.57 2.26 2.43 3.66 4.75 4.65a7.73 7.73 0 0 0 6.55-.2 6 6 0 0 0 2.57-3.45v-17.11a6.37 6.37 0 0 0 -6.37-6.38z" fill="#b72e37"/><path d="m30 47a5 5 0 0 0 -5 5v10h-4v-10a5 5 0 0 0 -4.57-5z" fill="#ffa4ad"/><path d="m52 12h10v5s0 3.08-4.06 3.84a2.25 2.25 0 0 0 -1.89 2.22c.07 4.8-.15 16.7-3.61 22.12a4.06 4.06 0 0 1 -3.44 1.82h-.07a2.93 2.93 0 0 1 -2.93-2.92v-26.08a6 6 0 0 1 6-6z" fill="#8d2830"/><path d="m18 46h-.49a6.5 6.5 0 0 1 -6.51-6.51v-.49a1 1 0 0 0 -2 0v.49a8.5 8.5 0 0 0 5.52 8 7 7 0 0 1 2.48-.49h1z" fill="#fb7f83"/><path d="m35.52 31.15a21.88 21.88 0 0 0 -2.88-1.48 8.48 8.48 0 0 0 .33-4.9 8.25 8.25 0 0 0 -.29-.92 9.49 9.49 0 0 1 3.59-1.69 1 1 0 0 0 .73-1.11 1 1 0 0 0 -1.24-.83 11.83 11.83 0 0 0 -4 1.83 9.5 9.5 0 0 0 -2.32-2.34 1 1 0 0 0 -1.14 1.63 6.71 6.71 0 0 1 2.7 3.89 6.52 6.52 0 0 1 -.25 3.77 22.45 22.45 0 0 0 -7.61-1 6.14 6.14 0 0 1 -3.29-2.52 5.48 5.48 0 0 1 -.71-1.71 1 1 0 1 0 -1.95.46 7.77 7.77 0 0 0 4.81 5.45c-.14 1.37-.52 2.87-1.48 3.47a2.91 2.91 0 0 1 -1.41.35 7.1 7.1 0 0 0 -2.48.59 7.2 7.2 0 0 0 -2.87 2.48 1 1 0 0 0 .29 1.43 1 1 0 0 0 1.29-.3 5.12 5.12 0 0 1 2.08-1.82 5.18 5.18 0 0 1 1.83-.42 4.83 4.83 0 0 0 2.28-.64c1.33-.83 2.14-2.48 2.39-4.88a19.88 19.88 0 0 1 10.56 2.88 19.66 19.66 0 0 1 6.31 6.2l.44.67a11.41 11.41 0 0 0 .66-2.57 21.44 21.44 0 0 0 -6.37-5.97z" fill="#fb7f83"/><g fill="#ffa1a8"><path d="m23.57 29.19a4.8 4.8 0 0 1 1.56-.05c.58 0 1.15.08 1.73.14a24.78 24.78 0 0 1 3.39.67.5.5 0 0 0 .26-1 26.71 26.71 0 0 0 -3.65-.7c-.62-.07-1.24-.12-1.86-.14a5.1 5.1 0 0 0 -1.7.09c-.61.19-.35 1.16.27 1z"/><path d="m31.63 24.52a5 5 0 0 1 .37 2.11 8.78 8.78 0 0 1 -.33 2.37.5.5 0 0 0 1 .26 9.69 9.69 0 0 0 .33-2.72 6.12 6.12 0 0 0 -.51-2.54.51.51 0 0 0 -.68-.18.51.51 0 0 0 -.18.69z"/><path d="m35.57 20.47a22.86 22.86 0 0 0 -3.57 1.62.51.51 0 0 0 -.18.69.51.51 0 0 0 .68.18 21.61 21.61 0 0 1 3.32-1.52.5.5 0 0 0 -.26-1z"/><path d="m32.69 31a18.64 18.64 0 0 1 8 6.51c.36.53 1.22 0 .86-.5a19.56 19.56 0 0 0 -8.31-6.88c-.58-.25-1.09.61-.5.87z"/><path d="m9.69 39.35a8.5 8.5 0 0 0 1.48 4.5 6.81 6.81 0 0 0 3.93 3c.63.13.9-.83.27-1a5.89 5.89 0 0 1 -3.4-2.6 7.58 7.58 0 0 1 -1.28-3.91c0-.64-1-.64-1 0z"/><path d="m17.92 24.05a7.54 7.54 0 0 0 1.81 3 .52.52 0 0 0 .71 0 .51.51 0 0 0 0-.71c-.18-.19-.36-.38-.52-.58s0 0 0 0v-.07l-.11-.15c-.08-.11-.16-.23-.23-.35s-.26-.45-.37-.68c0-.06-.05-.11-.07-.17s0 .06 0 0v-.08c-.05-.13-.1-.26-.14-.39a.5.5 0 0 0 -.61-.35.51.51 0 0 0 -.35.62z"/><path d="m20.82 33.24a4.8 4.8 0 0 1 -1.66.56c-.62.14-1.26.19-1.87.33a4.85 4.85 0 0 0 -1.53.75 4.38 4.38 0 0 0 -1.27 1.23c-.36.54.51 1 .86.5a3.74 3.74 0 0 1 1.17-1 3.39 3.39 0 0 1 1.48-.61 16.83 16.83 0 0 0 1.72-.33 4.93 4.93 0 0 0 1.62-.59.53.53 0 0 0 .18-.68.51.51 0 0 0 -.69-.18z"/></g><path d="m46 18v26.08.2c1.6 0 3.75-1.52 5-3.28 2.86-4 2.43-11.41 1.63-15.07-.17-.78-.73-3.06.46-4.63a6.11 6.11 0 0 1 1.43-1.17c2.8-2 3.17-2 3.72-2.54a5.88 5.88 0 0 0 1.13-5.59h-7.37a6 6 0 0 0 -6 6z" fill="#b72e37"/><path d="m30 47h-11.74a5 5 0 0 1 4.57 5v8.42a1.56 1.56 0 0 0 1.56 1.58h.61v-10a5 5 0 0 1 5-5z" fill="#ffc4c5"/><path d="m46 7v-5h-3.16c0 1.19.94 3.11.75 7.73-.05 1.17-.18 2.56.63 3.13s1.79.06 3.18-.39a21.24 21.24 0 0 1 2.47-.62 5 5 0 0 1 -3.87-4.85z" fill="#ffc4c5"/><ellipse cx="37.13" cy="16.33" fill="#d83f4e" rx="1.93" ry="3.86" transform="matrix(.629 -.778 .778 .629 1.1 34.95)"/><ellipse cx="32.28" cy="14.03" fill="#d83f4e" rx=".7" ry="1.41" transform="matrix(.629 -.778 .778 .629 1.08 30.32)"/></g></svg>