<svg height="512" viewBox="0 0 64 64" width="512" xmlns="http://www.w3.org/2000/svg"><g id="Artboard_16" data-name="Artboard 16"><path d="m38 41.15a23.48 23.48 0 0 1 -5.22-8.43 12 12 0 0 1 -.78-3.79 12 12 0 0 1 -.78 3.79 23.48 23.48 0 0 1 -5.22 8.43l-.57-6a17 17 0 0 0 2.57-8.15v-25h8v25a17 17 0 0 0 2.57 8.15z" fill="#fb7f83"/><path d="m36 2h-4.78v30.73a12 12 0 0 0 .78-3.8 12 12 0 0 0 .78 3.79 23.48 23.48 0 0 0 5.22 8.43l.57-6a17 17 0 0 1 -2.57-8.15z" fill="#fc959d"/><path d="m19.08 18.16a3.9 3.9 0 0 0 -2.78-1.16h-1a6.11 6.11 0 0 0 -3.12.84c-3.27 1.93-10.18 7.71-10.18 22.16v18.58a3.41 3.41 0 0 0 3.4 3.42h3.22a5 5 0 0 0 2.51-.67l4.64-2.67a5.08 5.08 0 0 1 2.5-.66 5.06 5.06 0 0 0 4.79-3.47l1.81-5.45a29.78 29.78 0 0 0 .53-14l-2.52-10.19a14.51 14.51 0 0 0 -3.8-6.73z" fill="#8d2830"/><path d="m12.22 17.84a6.11 6.11 0 0 1 3.12-.84h1a3.9 3.9 0 0 1 2.78 1.16 14.51 14.51 0 0 1 3.8 6.73l2.48 10.11a30.21 30.21 0 0 1 0 12.13 20.52 20.52 0 0 1 -3.95 1.49c-5.59 1.49-7.76-.91-12.22 1-3.95 1.68-3.69 4.13-7.23 5.38v-15c0-14.45 6.91-20.23 10.22-22.16z" fill="#b72e37"/><path d="m44.92 18.16a3.9 3.9 0 0 1 2.78-1.16h1a6.11 6.11 0 0 1 3.12.84c3.27 1.93 10.18 7.71 10.18 22.16v18.58a3.41 3.41 0 0 1 -3.4 3.42h-3.22a5 5 0 0 1 -2.51-.67l-4.64-2.67a5.08 5.08 0 0 0 -2.5-.66 5.06 5.06 0 0 1 -4.79-3.47l-1.81-5.45a29.78 29.78 0 0 1 -.53-14l2.52-10.15a14.51 14.51 0 0 1 3.8-6.77z" fill="#8d2830"/><path d="m51.78 17.84a6.11 6.11 0 0 0 -3.12-.84h-1a3.9 3.9 0 0 0 -2.78 1.16 14.51 14.51 0 0 0 -3.8 6.73l-2.48 10.11a30.21 30.21 0 0 0 0 12.13 20.52 20.52 0 0 0 3.95 1.49c5.59 1.49 7.76-.91 12.22 1 3.95 1.68 3.69 4.13 7.23 5.38v-15c0-14.45-6.91-20.23-10.22-22.16z" fill="#b72e37"/><g fill="#f9707a"><path d="m28 13h8v2h-8z"/><path d="m28 9h8v2h-8z"/><path d="m28 5h8v2h-8z"/><path d="m28 17h8v2h-8z"/><path d="m28 21h8v2h-8z"/></g><path d="m55 47a1 1 0 0 0 -1.3-.56l-2.85 1.14a1 1 0 0 1 -1.08-.22l-3.11-3.11a1 1 0 0 1 .26-1.6l.3-.16a1 1 0 0 0 .44-1.34 1 1 0 0 0 -1.34-.44l-2.23 1.12a1 1 0 0 1 -.57.1l-5.35-.67h-.17q0 1 .09 2l5.1.63a1 1 0 0 1 .59.29l1.66 1.66a1 1 0 0 1 .15 1.22l-.93 1.55a1 1 0 0 0 .34 1.39 1 1 0 0 0 1.37-.35l.42-.69a1 1 0 0 1 1.56-.2l.77.77a.9.9 0 0 1 .15.19l2.36 3.93a1 1 0 0 0 1.37.35 1 1 0 0 0 .34-1.38l-1.27-2.12a1 1 0 0 1 .48-1.45l1.89-.75a1 1 0 0 0 .56-1.3z" fill="#fb7f83"/><path d="m52.72 37.57q-.45-.63-1-1.23c-.41-.47-.84-.91-1.29-1.34a1 1 0 0 1 .14-1.54l.11-.08a1 1 0 0 0 .32-1.38 1 1 0 0 0 -1.39-.28l-4.43 3a1 1 0 0 1 -.8.14l-5.38-1.39-.4 1.53c0 .12-.06.24-.08.37l6.24 1.63a1 1 0 0 0 .24 0 1 1 0 0 0 .55-.17l1.61-1.07a1 1 0 0 1 1.18.05 15 15 0 0 1 1.9 1.84c.31.35.6.73.88 1.11a1 1 0 0 0 1.33.25 1 1 0 0 0 .27-1.44z" fill="#fb7f83"/><path d="m9 47a1 1 0 0 1 1.3-.56l2.85 1.14a1 1 0 0 0 1.08-.22l3.11-3.11a1 1 0 0 0 -.26-1.6l-.3-.16a1 1 0 0 1 -.44-1.34 1 1 0 0 1 1.34-.44l2.23 1.12a1 1 0 0 0 .57.1l5.35-.67h.17q0 1-.09 2l-5.1.63a1 1 0 0 0 -.58.29l-1.66 1.66a1 1 0 0 0 -.15 1.22l.93 1.55a1 1 0 0 1 -.35 1.39 1 1 0 0 1 -1.37-.35l-.42-.65a1 1 0 0 0 -1.56-.2l-.76.77a.9.9 0 0 0 -.15.19l-2.36 3.93a1 1 0 0 1 -1.38.31 1 1 0 0 1 -.34-1.38l1.28-2.12a1 1 0 0 0 -.49-1.45l-1.89-.75a1 1 0 0 1 -.56-1.3z" fill="#fb7f83"/><path d="m11.28 37.57c.3-.42.63-.83 1-1.23a18 18 0 0 1 1.25-1.34 1 1 0 0 0 -.14-1.54l-.11-.08a1 1 0 0 1 -.28-1.38 1 1 0 0 1 1.39-.28l4.43 3a1 1 0 0 0 .8.14l5.38-1.39.41 1.53c0 .12.05.24.08.37l-6.24 1.63a1 1 0 0 1 -.8-.14l-1.61-1.07a1 1 0 0 0 -1.18.05 15.72 15.72 0 0 0 -1.9 1.84c-.3.35-.6.73-.87 1.11a1 1 0 0 1 -1.34.25 1 1 0 0 1 -.27-1.47z" fill="#fb7f83"/><path d="m3.19 40.29a7 7 0 0 1 -1-4.51c1.18-11.38 7-16.21 10-17.94a2.91 2.91 0 0 1 3.63.74 21.7 21.7 0 0 1 2.18 3.1 23.25 23.25 0 0 1 3 9.78 41 41 0 0 1 -.1 5c-.16 3.17-.24 4.76-.68 5.28-1.42 1.69-3.8.13-11.35.54-2.19.12-2.76.3-3.72-.14a4.78 4.78 0 0 1 -1.96-1.85z" fill="#ffa4ad" opacity=".2"/><ellipse cx="17.19" cy="26.53" fill="#ffa4ad" opacity=".2" rx="1.69" ry="3.39" transform="matrix(.926 -.377 .377 .926 -8.73 8.43)"/><path d="m60.81 40.29a7 7 0 0 0 1-4.51c-1.18-11.38-7-16.21-10-17.94a2.91 2.91 0 0 0 -3.63.74 21.7 21.7 0 0 0 -2.18 3.08 23.25 23.25 0 0 0 -3 9.78 41 41 0 0 0 .1 5c.16 3.17.24 4.76.68 5.28 1.42 1.69 3.8.13 11.35.54 2.19.12 2.76.3 3.72-.14a4.78 4.78 0 0 0 1.96-1.83z" fill="#ffa4ad" opacity=".2"/><ellipse cx="56.2" cy="26.53" fill="#ffa4ad" opacity=".2" rx="1.69" ry="3.39" transform="matrix(.787 -.617 .617 .787 -4.4 40.32)"/></g></svg>