<svg height="512" viewBox="0 0 64 64" width="512" xmlns="http://www.w3.org/2000/svg"><g id="Artboard_15" data-name="Artboard 15"><path d="m36 42.3a21.44 21.44 0 0 1 8.26-4l6.66 1-.92-5.9-5.08-.23a20.87 20.87 0 0 0 -8.92 4.13z" fill="#601b2a"/><path d="m44.09 33.34a21 21 0 0 0 -7.21 3.32c-.26 1.11-.16 2.29.38 2.58.31.16.85-.11 1.92-.66 1.62-.82 1.8-1.19 2.78-1.43s1.17 0 1.59-.26c.88-.6 1.13-2.49.54-3.55z" fill="#70222f"/><path d="m28 62v-13.77a5.24 5.24 0 0 0 -2.89-4.68 5.3 5.3 0 0 0 -2.35-.55h-.76l-2-4h3a5 5 0 0 0 5-4.36v-4.25-28.39h4v60z" fill="#8d2830"/><path d="m36 62v-26.36a5.9 5.9 0 0 1 3.25-5.27l4.43-2.21-1.68-3.57-3.2 1.29a2 2 0 0 1 -2.8-1.88v-22h-4v26.93a2.07 2.07 0 0 1 -2.84 1.93l-1-.4a6.5 6.5 0 0 0 -2.41-.46h-1.57a4.18 4.18 0 0 1 -3.71-2.25l-.17-.89-4.69-1.17-2.28 5.7s2.77 5.61 2.84 5.61l3-1.15a5.11 5.11 0 0 1 4-1.87h2a6.93 6.93 0 0 1 3.56 1 6.9 6.9 0 0 1 3.27 5.93v21.09z" fill="#164672"/><path d="m42 24.59-3.2 1.29a2 2 0 0 1 -2.8-1.88v-22h-2v23.33a1.85 1.85 0 0 0 .08.54 3.11 3.11 0 0 0 1.69 2.32 4.93 4.93 0 0 0 3.56.32c.81-.24 1.58-.63 2.38-.92.49-.17 1-.32 1.47-.47z" fill="#2963a3"/><path d="m35 35.2c-.27.53-.5 1.08-.73 1.63a4.63 4.63 0 0 0 -.42 1.17 1.86 1.86 0 0 0 -.08.73v23.27h2.23v-26.36a6 6 0 0 1 .52-2.43 6.16 6.16 0 0 0 -1.52 1.99z" fill="#2963a3"/><path d="m36 23.86v-19.8a1 1 0 0 0 -1.43.87v18.07a1 1 0 0 0 1.43.86z" fill="#337fcf"/><path d="m36 61.9v-19.8a1 1 0 0 0 -1.43.86v18.04a1 1 0 0 0 1.43.9z" fill="#337fcf"/><path d="m28 29.62a2.3 2.3 0 0 0 2.17-2.38v-24.24a2.43 2.43 0 0 0 -.17-1h-2z" fill="#b72e37"/><path d="m28 47.87v14.13h2.17v-11.74a2.32 2.32 0 0 0 -2.17-2.39z" fill="#b72e37"/><path d="m28 2v22.05a.93.93 0 0 0 .93-1v-21.05z" fill="#d83f4e"/><path d="m44.47 30.64a24.65 24.65 0 0 0 -2.19-5.56 9.3 9.3 0 0 1 -1.28-3.83 7.08 7.08 0 0 1 6-7.1c5-1 15 4.67 15 16.85s-3.87 16.1-8 20c-5 4.75-13 0-13-4 0-2.35 1.35-4.72 2.48-6.86a12.74 12.74 0 0 0 1.17-8.72c-.05-.28-.11-.53-.18-.78z" fill="#70222f"/><path d="m47 14.15a4.72 4.72 0 0 0 -3.61 3.55 5.23 5.23 0 0 0 0 2.36c.26 1.19 1.33 2.37 3.45 4.7 2.8 3.07 3.11 2.73 3.59 3.78 1.56 3.4-1.15 8.05-2.35 10.11-2.19 3.65-3.99 4.48-3.78 6.35.32 2.81 4.34 4.33 5 4.57h.07a7.08 7.08 0 0 0 8-2.09c2.63-3.23 4.63-7.72 4.63-16.48 0-12.18-10-17.87-15-16.85z" fill="#8d2830"/><path d="m58 46.71c2.35-3.22 4-7.66 4-15.71 0-10.66-7.67-16.35-12.93-16.92a5.36 5.36 0 0 0 -2.07 2.49 6 6 0 0 0 .25 4.5c1.11 2.55 3 2.29 4.4 4.89a9.43 9.43 0 0 1 1 4.94c-.09 2.68-1.09 3.27-1.47 6.51a9.61 9.61 0 0 0 .1 4.45c.84 2.34 3.72 4.21 6.72 4.85z" fill="#b72e37"/><path d="m46.55 15.79a4.34 4.34 0 0 0 -2.15 3c-.43 2.42 1.43 4.37 1.89 4.86 1.41 1.49 2.13 1 4.18 2.68s1.82 2.58 3.39 3.32c1.36.65 3.6.95 5-.29s1.14-3.46 1.06-4.08c-.31-2.56-2.11-4.19-4-5.9a15.32 15.32 0 0 0 -5.44-3.26c-1.48-.51-2.71-.89-3.93-.33z" fill="#ffa4ad" opacity=".2"/><g opacity=".2"><path d="m56 39a1 1 0 0 1 -.37-1.29 12.26 12.26 0 0 0 0-11.36 1 1 0 0 1 .37-1.35 1 1 0 0 1 1.4.37 14.23 14.23 0 0 1 0 13.19 1 1 0 0 1 -1.4.44z" fill="#ffa4ad"/></g><path d="m45.43 27.09a9.41 9.41 0 0 1 -1.6-1l-1.92-1.77c.12.25.25.5.37.72a26.45 26.45 0 0 1 1.51 3.4c.26.14.51.29.78.42a11.56 11.56 0 0 0 5 1.11h.43v-1.97a9.59 9.59 0 0 1 -4.57-.91z" fill="#601b2a"/><path d="m48.62 35.07a21.71 21.71 0 0 0 -4.24 2.85 13.34 13.34 0 0 1 -.9 2.18c-.56 1.06-1.18 2.18-1.65 3.32l2.38-2.63.25-.26a22.21 22.21 0 0 1 4.92-3.61z" fill="#601b2a"/><path d="m19.53 30.64a24.65 24.65 0 0 1 2.19-5.56 9.3 9.3 0 0 0 1.28-3.83 7.08 7.08 0 0 0 -6-7.1c-5-1.02-15 4.67-15 16.85s3.87 16.1 8 20c5 4.73 13 0 13-4.06 0-2.35-1.35-4.72-2.48-6.86a12.74 12.74 0 0 1 -1.17-8.72c.05-.22.11-.47.18-.72z" fill="#70222f"/><path d="m17 14.15a4.72 4.72 0 0 1 3.61 3.55 5.23 5.23 0 0 1 0 2.36c-.26 1.19-1.33 2.37-3.45 4.7-2.8 3.07-3.11 2.73-3.59 3.78-1.56 3.4 1.15 8.05 2.35 10.11 2.13 3.65 3.93 4.48 3.72 6.39-.32 2.81-4.34 4.33-5 4.57h-.07a7.08 7.08 0 0 1 -8-2.09c-2.57-3.27-4.57-7.76-4.57-16.52 0-12.18 10-17.87 15-16.85z" fill="#8d2830"/><path d="m6 46.71c-2.31-3.22-4-7.66-4-15.71 0-10.66 7.67-16.35 12.93-16.92a5.36 5.36 0 0 1 2.07 2.49 6 6 0 0 1 -.25 4.5c-1.11 2.55-3 2.29-4.4 4.89a9.43 9.43 0 0 0 -1 4.94c.09 2.68 1.09 3.27 1.47 6.51a9.61 9.61 0 0 1 -.1 4.45c-.84 2.34-3.72 4.21-6.72 4.85z" fill="#b72e37"/><path d="m17.45 15.79a4.34 4.34 0 0 1 2.15 3c.43 2.42-1.43 4.37-1.89 4.86-1.41 1.49-2.13 1-4.18 2.68s-1.82 2.58-3.39 3.32c-1.36.65-3.6.95-5-.29s-1.14-3.46-1.06-4.08c.31-2.56 2.11-4.19 4-5.9a15.32 15.32 0 0 1 5.44-3.26c1.48-.51 2.71-.89 3.93-.33z" fill="#ffa4ad" opacity=".2"/><g opacity=".2"><path d="m8 39a1 1 0 0 0 .37-1.29 12.26 12.26 0 0 1 0-11.36 1 1 0 0 0 -.37-1.35 1 1 0 0 0 -1.4.37 14.23 14.23 0 0 0 0 13.19 1 1 0 0 0 1.4.44z" fill="#ffa4ad"/></g><g fill="#601b2a"><path d="m18.57 27.09a9.41 9.41 0 0 0 1.6-1l1.92-1.77c-.12.25-.25.5-.37.72a26.45 26.45 0 0 0 -1.51 3.4c-.26.14-.51.29-.78.42a11.56 11.56 0 0 1 -5 1.11h-.43v-1.97a9.59 9.59 0 0 0 4.57-.91z"/><path d="m15.38 35.07a21.71 21.71 0 0 1 4.24 2.85 13.34 13.34 0 0 0 .9 2.18c.56 1.06 1.18 2.18 1.65 3.32l-2.38-2.63-.25-.26a22.21 22.21 0 0 0 -4.92-3.61z"/></g></g></svg>