<svg height="512" viewBox="0 0 64 64" width="512" xmlns="http://www.w3.org/2000/svg"><g id="Artboard_21" data-name="Artboard 21"><path d="m35 6v-4h-14a24 24 0 0 0 2 8s-10 3-6 14 12 12 12 20v3h-1c-6 0-6-4-14-4a8.33 8.33 0 0 0 -7.5 4 10.43 10.43 0 0 0 -1.5 5.53v9.47h5v-7s0-5 6-5a5.41 5.41 0 0 1 3.52 1.3l7.2 6.17a18.81 18.81 0 0 0 30.29-9 59.84 59.84 0 0 0 1.99-16.47c0-27-24-26-24-26z" fill="#70222f"/><path d="m57 48.49a59.84 59.84 0 0 0 2-16.49c0-27-24-26-24-26v-4h-14a24 24 0 0 0 2 8s-10 3-6 14 12 12 12 20v3h-.22c2.47 3.16 2.22 4.27 4.22 6.37a16 16 0 0 0 12.45 5.09 14.74 14.74 0 0 0 7.92-3.11 18.43 18.43 0 0 0 3.63-6.86z" fill="#8d2830"/><path d="m54.3 30.35a27.13 27.13 0 0 0 3-9.33c-5.41-15.72-22.3-15.02-22.3-15.02v-4h-14a24 24 0 0 0 2 8s-5.61 1.68-6.75 7.15c-.06 1.13-.11 2.17-.14 3.11a15.21 15.21 0 0 0 .89 3.74c2.31 6.36 6 9.37 8.62 12.33l2.47 1.06c6.11 2.62 9.33 4 13.4 3.33 7.61-1.25 11.8-8.6 12.81-10.37z" fill="#b72e37"/><path d="m57 48.49a59.84 59.84 0 0 0 2-16.49c0-27-24-26-24-26v-4h-14a24 24 0 0 0 2 8s-10 3-6 14 12 12 12 20v3h-.22c2.47 3.16 2.22 4.27 4.22 6.37a16 16 0 0 0 12.45 5.09 14.74 14.74 0 0 0 7.92-3.11 18.43 18.43 0 0 0 3.63-6.86z" fill="#8d2830"/><path d="m54.3 30.35c0-.06.1-.17.18-.32a14.93 14.93 0 0 0 -2.94-18c-7.04-6.42-16.54-6.03-16.54-6.03v-4h-14a24 24 0 0 0 2 8s-5.61 1.68-6.75 7.15c-.06 1.13-.11 2.17-.14 3.11a15.21 15.21 0 0 0 .89 3.74c2.31 6.36 6 9.37 8.62 12.33l2.47 1.06c6.11 2.62 9.33 4 13.4 3.33 7.61-1.25 11.8-8.6 12.81-10.37z" fill="#b72e37"/><g opacity=".2"><path d="m41 58v-.06a1 1 0 0 1 .72-1.12 15.29 15.29 0 0 0 6.61-3.56 15.45 15.45 0 0 0 4.49-7.54 1 1 0 0 1 1.12-.72h.06a1 1 0 0 1 .76 1.18 17.6 17.6 0 0 1 -5.08 8.56 17.4 17.4 0 0 1 -7.5 4 1 1 0 0 1 -1.18-.74z" fill="#ffa4ad"/></g><g opacity=".2"><path d="m25 28a1 1 0 0 1 -1.44.24 10.77 10.77 0 0 1 -3.56-8.24 8.77 8.77 0 0 1 4.63-7.41 1 1 0 0 1 1.37.41v.05a1 1 0 0 1 -.38 1.23 6.8 6.8 0 0 0 -3.62 5.72 8.74 8.74 0 0 0 2.85 6.67.94.94 0 0 1 .2 1.25z" fill="#ffa4ad"/></g><path d="m35 2h-14a24 24 0 0 0 2 8l12-4z" fill="#70222f"/><path d="m41.53 10.13c-4.53.81-6.93 4.87-7.82 6.36s-3.3 5.51-1.86 8.71 4.67 1.86 8.9 5.28c5.1 4.12 4.19 9 8.51 10.27a6.41 6.41 0 0 0 5.67-1c1.27-1 2.08-2.77 2.16-7.05.1-6.21.23-13.41-5.24-18.54-1.21-1.11-5.28-4.92-10.32-4.03z" fill="#ffa4ad" opacity=".2"/><ellipse cx="49.8" cy="17.4" fill="#ffa4ad" opacity=".2" rx="2.54" ry="5.33" transform="matrix(.765 -.644 .644 .765 .49 36.14)"/><path d="m14 43a8.33 8.33 0 0 0 -7.5 4 10.43 10.43 0 0 0 -1.5 5.53v6.47a1.71 1.71 0 0 0 .39 0 2.56 2.56 0 0 0 2.5-2.5q.11-1.62.21-3.3l.15-1.68c.05-.52.08-.91.14-1.22a7.25 7.25 0 0 1 .29-1.11c0-.06.17-.35.19-.38l.3-.48a.09.09 0 0 0 0 0l.07-.07.47-.49.28-.24.4-.28a7.88 7.88 0 0 1 1-.56l.24-.09c.19-.06.37-.12.56-.16a7.61 7.61 0 0 1 2.64-.2 18 18 0 0 1 2.93.42c.46.1.92.19 1.38.31a2.57 2.57 0 0 1 1.11.46 2.52 2.52 0 0 0 3.42-.9c.06-.11.1-.22.15-.33-2.52-1.2-4.2-3.2-9.82-3.2z" fill="#8d2830"/><path d="m19 50.82a4 4 0 0 0 -2.58-.82 5.37 5.37 0 0 1 3.1 1.26l7.2 6.17a18.79 18.79 0 0 0 22 1.82c-10.72-.1-20.41-2.05-29.72-8.43z" fill="#601b2a"/><path d="m35 2h-11.69c-.42 1.86-.12 4.14 1 5.26a1.68 1.68 0 0 0 .44.34c1.32.72 2.85-.77 5.08-1.61 2.74-1 4-.12 5.16-.68z" fill="#8d2830"/></g></svg>