<svg height="512" viewBox="0 0 64 64" width="512" xmlns="http://www.w3.org/2000/svg"><g id="Artboard_26" data-name="Artboard 26"><path d="m28.45 18.72c.13-.07.26-.14.38-.22a8.81 8.81 0 0 1 8.28-.81l.52.22a1 1 0 0 0 1.37-1.22l-.47-1.53a3.67 3.67 0 0 1 -.38-2.65 3.74 3.74 0 0 1 .7-1.51 3.25 3.25 0 0 1 3.62-.68l2.45 1.42c.21.12.42.23.64.33a17.92 17.92 0 0 1 7.33 6.31 54.21 54.21 0 0 1 9.11 30.03v13.59h-8v-20.11a36.61 36.61 0 0 0 -5-18.43l-1.08-1.85a1.24 1.24 0 0 0 -2.06-.12l-1.06 1.42a2.72 2.72 0 0 1 -2.16 1.09 2.66 2.66 0 0 1 -1.21-.29l-1.43-.71-3.41-1.47a3.92 3.92 0 0 0 -2.8-.13 4 4 0 0 0 -1.39.8z" fill="#9fb86c"/><path d="m46.58 12.55a6.28 6.28 0 0 0 -1.58-4.55 6.58 6.58 0 0 0 -5-2v-4s6 0 9 3 3 5 3 5l6-8 4 3s-6.35 7.14-8.44 14.36z" fill="#899d5c"/><path d="m32.36 22.23a7.74 7.74 0 0 0 -1.51-2 7.19 7.19 0 0 0 -2.4-1.5 8.76 8.76 0 0 1 -1.37.6l-13.76 4.81a16.88 16.88 0 0 0 -8.45 6.55l-.93 1.4a11.61 11.61 0 0 0 -1.94 6.41v.1a11.24 11.24 0 0 0 1.91 6.26l.13.21a14.38 14.38 0 0 0 16.27 5.73l.18-.06a9.08 9.08 0 0 0 6.27-7.47l1.24-9.27s2.22-6.65 3.23-10a3.92 3.92 0 0 1 1.12-1.77z" fill="#899d5c"/><path d="m32.35 22.22a7.74 7.74 0 0 0 -1.51-2 7.19 7.19 0 0 0 -2.4-1.5 8.76 8.76 0 0 1 -1.37.6l-13.75 4.82a16.69 16.69 0 0 0 -7.28 5l-.19.28a11.48 11.48 0 0 0 -1.94 6.41v.17a11.24 11.24 0 0 0 1.91 6.26l.13.2a14.33 14.33 0 0 0 16.26 5.73h.18a9.06 9.06 0 0 0 3.61-2.19 8.89 8.89 0 0 0 .81-2.7l1.19-9.3s2.22-6.65 3.23-10a3.92 3.92 0 0 1 1.12-1.78z" fill="#9fb86c"/><g opacity=".5"><path d="m15.23 47a9.46 9.46 0 0 1 -7.42-3.58 1 1 0 0 1 .24-1.42 1 1 0 0 1 1.3.21 7.51 7.51 0 0 0 12.34-.82 1 1 0 0 1 1.25-.39 1 1 0 0 1 .45 1.43 9.58 9.58 0 0 1 -7.3 4.6z" fill="#fff"/></g><path d="m29.68 23.24a2.34 2.34 0 0 0 .54-1.32c0-1.13-1.12-2-1.57-2.3a5.91 5.91 0 0 0 -1-.57 6.65 6.65 0 0 1 -.61.27l-13.72 4.82a16.69 16.69 0 0 0 -7.28 5l-.19.28a11.42 11.42 0 0 0 -1.49 3.23 8.75 8.75 0 0 0 .81 4.5 10.36 10.36 0 0 0 5.58 4.85 10.2 10.2 0 0 0 6.85.19 10.38 10.38 0 0 0 5.57-4.69c.89-1.57.33-1.57 2.06-6.8 1.2-3.64 1.66-4.19 1.95-4.5a21.06 21.06 0 0 0 2.5-2.96z" fill="#b3c789"/><path d="m52.89 18.34a17.92 17.92 0 0 0 -7.33-6.34c-.22-.1-.43-.21-.64-.33l-2.45-1.42a3.25 3.25 0 0 0 -3.62.68 3.74 3.74 0 0 0 -.75 1.55 3.67 3.67 0 0 0 .38 2.65l.52 1.56a1 1 0 0 1 -1.32 1.22l-.52-.22a8.5 8.5 0 0 0 -7 .17 1.74 1.74 0 0 0 1.69.93 7.31 7.31 0 0 1 3.47.47c1.19.53 2.56 1 3.81.29a3.6 3.6 0 0 0 1.61-3.36 12.62 12.62 0 0 0 -.13-1.74c-.06-.38-.1-.36.27-.5a5 5 0 0 1 3 .28 18.23 18.23 0 0 1 3.12 1.38 9.86 9.86 0 0 1 4.5 4.59 2.07 2.07 0 0 0 2.5 1.4 2 2 0 0 0 .69-.37c-.57-.98-1.17-1.94-1.8-2.89z" fill="#b3c789"/><path d="m55.63 41.8a2.61 2.61 0 0 0 0-.28 61.59 61.59 0 0 0 -1.84-10.43 25.4 25.4 0 0 0 -4-8.92 4.73 4.73 0 0 0 -3.79-2.24c-1.48.05-2.29 1.08-3.34 2s-2.59-.06-3.76-.51a8.22 8.22 0 0 0 -5.14-.19 1.38 1.38 0 0 0 -.85.63 4 4 0 0 1 .83-.4 3.92 3.92 0 0 1 2.8.13l3.46 1.41 1.43.71a2.66 2.66 0 0 0 1.21.29 2.72 2.72 0 0 0 2.18-1.09l1.06-1.42a1.24 1.24 0 0 1 2.06.12l1.06 1.85a36.61 36.61 0 0 1 5 18.43v20.11h2.73a87.12 87.12 0 0 0 -.24-9.29c-.2-3.64-.55-7.28-.86-10.91z" fill="#899d5c"/><path d="m56.35 7.42c.75-1.06 1.47-2.14 2.22-3.2l.51-.72.32-.43-1.4-1.07-6 8s0-2-3-5-9-3-9-3v2c1.07.19 2.13.38 3.19.62l.37.1.31.09.21.09.44.22c.52.27 1 .53 1.56.82a2.61 2.61 0 0 1 .28.17h.06c.19.19.37.39.55.59s.38.44.56.67l.08.09.23.31a13.1 13.1 0 0 1 .92 1.48c.13.23.24.46.35.7a2.1 2.1 0 0 0 1.34 2 1.73 1.73 0 0 0 1.36.12 1.79 1.79 0 0 0 .32-.13 4.38 4.38 0 0 0 1.63-1.19 34.74 34.74 0 0 0 2.59-3.33z" fill="#b3c789"/></g></svg>