<svg height="512" viewBox="0 0 64 64" width="512" xmlns="http://www.w3.org/2000/svg"><g id="Artboard_08" data-name="Artboard 08"><path d="m43 43.73c.15-1.92-.18-3.85 1-6.73a18.5 18.5 0 0 1 7-8c3.93-2.65 5.73-1.83 8-4 1.71-1.64 3.41-4.71 3-11v-8a37.59 37.59 0 0 1 -6 2 30.43 30.43 0 0 1 -7 1c-5 0-6.34-1.75-10-2a13.16 13.16 0 0 0 -6 1.08l-21.1 9.92-4.64 14 2.48 15 8.47 8 18.92-1.31 6.52-4.69z" fill="#f4b55d"/><path d="m43.64 32.49c-5 4.21-11.52 11.4-18.77 11-5.79-.34-10.71-8-10-13.41.92-6.94 9.61-11.17 15.25-13.62 3.13-1.36 4.18-5.38 3.36-8.54l-.52.2-21.06 9.88-4.64 14 2.48 15 8.47 8 18.92-1.31 6.52-4.69-.65-5.27c.15-1.92-.18-3.85 1-6.73a18.5 18.5 0 0 1 7-8c3.31-2.23 5.11-2 7-3.17a27.5 27.5 0 0 0 -14.36 6.66z" fill="#dd933c"/><g fill="#ffe4a5"><path d="m53.11 24.39c5.15 0 5.15-8 0-8s-5.16 8 0 8z"/><path d="m44.5 26.45c5.15 0 5.16-8 0-8s-5.16 8 0 8z"/><path d="m36.48 23.51c5.15 0 5.15-8 0-8s-5.16 8 0 8z"/><path d="m37.85 31.73c5.15 0 5.15-8 0-8s-5.16 8 0 8z"/><path d="m32.17 39.16c5.15 0 5.16-8 0-8s-5.15 8 0 8z"/><path d="m29.34 31c5.14 0 5.15-8 0-8s-5.16 8 0 8z"/><path d="m21.12 32c5.15 0 5.16-8 0-8s-5.16 8 0 8z"/><path d="m23.76 40c5.15 0 5.16-8 0-8s-5.16 8 0 8z"/></g><path d="m36.54 36.16a7.38 7.38 0 0 0 -3.13-1.08 16.34 16.34 0 0 0 3-3.67 1 1 0 0 0 -.41-1.41 1 1 0 0 0 -1.33.4 14 14 0 0 1 -3.27 3.83 13.46 13.46 0 0 1 -4.44 2.31 14.12 14.12 0 0 0 -3.5 1.65 9 9 0 0 0 -1.13.93 5.06 5.06 0 0 1 .54-3.56 5.44 5.44 0 0 1 1.49-1.41l.27-.2-1.2-1.6-.26.2a7.39 7.39 0 0 0 -2 1.91c-1.07 1.63-1.22 3.86-.49 6.6a18.76 18.76 0 0 0 -2.68 7.8l2 .28c.64-4.52 2.18-7.66 4.58-9.32a12.48 12.48 0 0 1 3-1.41 19.29 19.29 0 0 0 2.83-1.18 6.6 6.6 0 0 1 5 .62 5.5 5.5 0 0 1 1.19 1 1 1 0 0 0 1.29.18 1 1 0 0 0 .22-1.49 7.42 7.42 0 0 0 -1.57-1.38z" fill="#b72e37"/><path d="m59 17a1 1 0 0 0 -1.31-.06 7.15 7.15 0 0 1 -2 1.16 8.17 8.17 0 0 1 -5.76-.43 47 47 0 0 1 6.56-3.33 1 1 0 0 0 .51-1.34 1 1 0 0 0 -1.32-.57 48.17 48.17 0 0 0 -7.22 3.7 27.59 27.59 0 0 0 -6 4.81c-.43.44-.83.85-1.29 1.26a6.09 6.09 0 0 1 -.17-3.92 6.18 6.18 0 0 1 1.88-2.91 1 1 0 0 0 .2-1.31 1 1 0 0 0 -1.49-.21 7.94 7.94 0 0 0 -2 9.63c-.32.21-.67.42-1.06.65a37.23 37.23 0 0 1 -10 3.6 7 7 0 0 0 .47-2.73 8.34 8.34 0 0 0 -.1-1 3.53 3.53 0 0 1 .1-1.69 3.87 3.87 0 0 1 1.71-2 1 1 0 0 0 .29-1.26 1 1 0 0 0 -1.45-.4 5.81 5.81 0 0 0 -2.53 3 5.32 5.32 0 0 0 -.13 2.5 7.26 7.26 0 0 1 .11.85 5.71 5.71 0 0 1 -1 3.2c-2 .37-3.83.61-5.15.79a15.33 15.33 0 0 0 -9.54 4.74l-3.96 4.21 1.46 1.36 3.91-4.17a13.76 13.76 0 0 1 4.66-3.21 14.23 14.23 0 0 1 3.75-.92c3.95-.52 12.16-1.6 18.36-5.12a17.47 17.47 0 0 0 4.43-3.51 24.65 24.65 0 0 1 4-3.43 13 13 0 0 0 5.65 1.5 7.87 7.87 0 0 0 2.8-.49 8.9 8.9 0 0 0 2.54-1.48 1 1 0 0 0 .09-1.47z" fill="#b72e37"/><path d="m28 16a16 16 0 0 0 -16 16v3.81a15.19 15.19 0 0 0 15.19 15.19h1.17a12.42 12.42 0 0 0 6.7-2l19.06-12.73 2.88 12.73-18.49 10a24.72 24.72 0 0 1 -11.78 3 24.73 24.73 0 0 1 -24.73-24.73v-9.27a26 26 0 0 1 26-26z" fill="#b72e37"/><ellipse cx="28" cy="9" fill="#601b2a" rx="5" ry="7"/><path d="m28 2a3.75 3.75 0 0 0 -1.87.51 8.78 8.78 0 0 0 -1.23 4.59c0 3.86 2.24 7 5 7a3.83 3.83 0 0 0 1.87-.51 8.78 8.78 0 0 0 1.23-4.59c0-3.87-2.24-7-5-7z" fill="#70222f"/><path d="m54.12 36.27-19.06 12.73a12.42 12.42 0 0 1 -6.7 2h-1.17a15.17 15.17 0 0 1 -15.19-14.65 5.87 5.87 0 0 0 0 .65c-.24 5.17 0 10.69 3.7 14.74 3.42 3.78 8.82 5.53 13.81 5.82 10.86.63 18.25-6.66 26.79-11.78z" fill="#d83f4e"/><ellipse cx="57" cy="42" fill="#601b2a" rx="5" ry="7"/><path d="m57 35a3.76 3.76 0 0 0 -1.82.49 8.7 8.7 0 0 0 -1.18 4.51c0 3.87 2.24 7 5 7a3.75 3.75 0 0 0 1.82-.48 8.74 8.74 0 0 0 1.18-4.52c0-3.87-2.24-7-5-7z" fill="#70222f"/><path d="m2 28v2c5.79-.3 8.41-5.53 11.13-10 1.82-3 4.23-4.71 6.41-7.34s2.26-5.66 3.12-8.66a5.26 5.26 0 0 0 .2-1.48 26 26 0 0 0 -20.86 25.48z" fill="#ffa4ad" opacity=".2"/><path d="m40.58 57.89a39.43 39.43 0 0 1 -7.44 1.32c-9 .38-21.73-2.55-28.09-10a24.72 24.72 0 0 0 21.68 12.79 24.72 24.72 0 0 0 11.78-3z" fill="#70222f" opacity=".3"/></g></svg>