<svg height="512" viewBox="0 0 64 64" width="512" xmlns="http://www.w3.org/2000/svg"><g id="Artboard_05" data-name="Artboard 05"><path d="m24 2h16v60h-16z" fill="#696a6c"/><path d="m2 57h10.07a1.93 1.93 0 0 0 1.93-1.91v-4.57a2.5 2.5 0 0 0 -2.5-2.52h-.5a2.19 2.19 0 0 0 -2.19 2.2 2.81 2.81 0 0 1 -2.81 2.8h-4z" fill="#c2c3c5"/><path d="m62 57h-10.07a1.93 1.93 0 0 1 -1.93-1.91v-4.57a2.5 2.5 0 0 1 2.5-2.52h.5a2.19 2.19 0 0 1 2.19 2.19 2.81 2.81 0 0 0 2.81 2.81h4z" fill="#c2c3c5"/><path d="m55.19 50.2a2.19 2.19 0 0 0 -2.19-2.2h-.5a2.5 2.5 0 0 0 -1.76.72c-.32 1.68.78 3.93 2.26 5.26 1.29 1.15 3.19 1.43 7 2 .84.13 1.48.19 2 .23v-3.21h-4a2.81 2.81 0 0 1 -2.81-2.8z" fill="#d5d6d8"/><path d="m62 43h-10.07a1.92 1.92 0 0 1 -1.93-1.92v-4.57a2.5 2.5 0 0 1 2.5-2.51h.5a2.19 2.19 0 0 1 2.19 2.19 2.81 2.81 0 0 0 2.81 2.81h4z" fill="#c2c3c5"/><path d="m55.19 36.19a2.19 2.19 0 0 0 -2.19-2.19h-.5a2.55 2.55 0 0 0 -1.76.72c-.32 1.68.78 3.94 2.26 5.26 1.29 1.15 3.19 1.44 7 2 .84.13 1.48.2 2 .23v-3.21h-4a2.81 2.81 0 0 1 -2.81-2.81z" fill="#d5d6d8"/><path d="m62 28h-10.07a1.92 1.92 0 0 1 -1.93-1.92v-4.57a2.5 2.5 0 0 1 2.5-2.51h.5a2.19 2.19 0 0 1 2.19 2.19 2.81 2.81 0 0 0 2.81 2.81h4z" fill="#c2c3c5"/><path d="m55.19 21.19a2.19 2.19 0 0 0 -2.19-2.19h-.5a2.55 2.55 0 0 0 -1.76.72c-.32 1.68.78 3.94 2.26 5.26 1.29 1.15 3.19 1.44 7 2 .84.13 1.48.2 2 .23v-3.21h-4a2.81 2.81 0 0 1 -2.81-2.81z" fill="#d5d6d8"/><path d="m62 14h-10.07a1.92 1.92 0 0 1 -1.93-1.92v-4.57a2.5 2.5 0 0 1 2.5-2.51h.5a2.19 2.19 0 0 1 2.19 2.19 2.81 2.81 0 0 0 2.81 2.81h4z" fill="#c2c3c5"/><path d="m55.19 7.19a2.19 2.19 0 0 0 -2.19-2.19h-.5a2.55 2.55 0 0 0 -1.76.72c-.32 1.69.78 3.95 2.26 5.28 1.29 1.15 3.19 1.44 7 2 .84.13 1.48.2 2 .23v-3.23h-4a2.81 2.81 0 0 1 -2.81-2.81z" fill="#d5d6d8"/><path d="m11.5 48h-.5a2.19 2.19 0 0 0 -2.19 2.2 2.81 2.81 0 0 1 -2.81 2.8h-1.75a15.47 15.47 0 0 0 3.75 2c1.95.82 3.81 1.59 5.35 1.52a1.91 1.91 0 0 0 .65-1.43v-4.57a2.5 2.5 0 0 0 -2.5-2.52z" fill="#d5d6d8"/><path d="m2 43h10.07a1.92 1.92 0 0 0 1.93-1.93v-4.57a2.5 2.5 0 0 0 -2.5-2.5h-.5a2.19 2.19 0 0 0 -2.19 2.19 2.81 2.81 0 0 1 -2.81 2.81h-4z" fill="#c2c3c5"/><path d="m11.5 34h-.5a2.19 2.19 0 0 0 -2.19 2.19 2.81 2.81 0 0 1 -2.81 2.81h-1.75a15.14 15.14 0 0 0 3.75 2c1.95.83 3.81 1.6 5.35 1.52a1.89 1.89 0 0 0 .65-1.45v-4.57a2.5 2.5 0 0 0 -2.5-2.5z" fill="#d5d6d8"/><path d="m2 28h10.07a1.92 1.92 0 0 0 1.93-1.93v-4.57a2.5 2.5 0 0 0 -2.5-2.5h-.5a2.19 2.19 0 0 0 -2.19 2.19 2.81 2.81 0 0 1 -2.81 2.81h-4z" fill="#c2c3c5"/><path d="m11.5 19h-.5a2.19 2.19 0 0 0 -2.19 2.19 2.81 2.81 0 0 1 -2.81 2.81h-1.75a15.14 15.14 0 0 0 3.75 2c1.95.83 3.81 1.6 5.35 1.52a1.89 1.89 0 0 0 .65-1.45v-4.57a2.5 2.5 0 0 0 -2.5-2.5z" fill="#d5d6d8"/><path d="m2 14h10.07a1.92 1.92 0 0 0 1.93-1.93v-4.57a2.5 2.5 0 0 0 -2.5-2.5h-.5a2.19 2.19 0 0 0 -2.19 2.18 2.81 2.81 0 0 1 -2.81 2.82h-4z" fill="#c2c3c5"/><path d="m11.5 5h-.5a2.19 2.19 0 0 0 -2.19 2.18 2.81 2.81 0 0 1 -2.81 2.82h-1.75a15.14 15.14 0 0 0 3.75 2c1.95.83 3.81 1.6 5.35 1.52a1.89 1.89 0 0 0 .65-1.45v-4.57a2.5 2.5 0 0 0 -2.5-2.5z" fill="#d5d6d8"/><path d="m40 2h-15.18a3.49 3.49 0 0 0 .93 2.38c.91.91 1.89.55 6 .59a75.49 75.49 0 0 0 7.79-.23h.46z" fill="#77787c"/><g fill="#5a5b5d"><path d="m40 14.5h-15.18a3.49 3.49 0 0 0 .93 2.38c.91.91 1.89.56 6 .59a75.49 75.49 0 0 0 7.79-.23h.46z"/><path d="m40 28h-15.18a3.49 3.49 0 0 0 .93 2.38c.91.91 1.89.55 6 .59a75.49 75.49 0 0 0 7.79-.23h.46z"/><path d="m40 43h-15.18a3.49 3.49 0 0 0 .93 2.38c.91.91 1.89.55 6 .59a75.49 75.49 0 0 0 7.79-.23l.46-.05z"/><path d="m40 57h-15.18a3.49 3.49 0 0 0 .93 2.38c.91.91 1.89.55 6 .59a75.49 75.49 0 0 0 7.79-.23l.46-.05z"/></g><path d="m42 12v2l-3.44 1a22.72 22.72 0 0 1 -13.12 0l-3.44-1v-2h-5v-5h5v-2l3.44 1a22.89 22.89 0 0 0 13.12 0l3.44-1v2h5v5z" fill="#c2c3c5"/><path d="m28.54 13.31-6.54-1.31v2l3.44 1a22.72 22.72 0 0 0 13.12 0l3.44-1v-2l-6.54 1.3a17.52 17.52 0 0 1 -6.92.01z" fill="#9a9b9f"/><path d="m42 5-3.44 1a22.89 22.89 0 0 1 -13.12 0 1.77 1.77 0 0 0 -2.1 2.5 5.42 5.42 0 0 0 1 1.35c1 .94 2.07 1.15 3.94 1.49a21.6 21.6 0 0 0 8.11-.19l4.77-1.1c2.38-.55 3.15-.73 4.31-.57a13.46 13.46 0 0 1 1.53.41v-2.89h-5z" fill="#d5d6d8"/><path d="m42 26v2l-3.44 1a22.89 22.89 0 0 1 -13.12 0l-3.44-1v-2h-5v-5h5v-2l3.44 1a22.72 22.72 0 0 0 13.12 0l3.44-1v2h5v5z" fill="#c2c3c5"/><path d="m28.54 27.31-6.54-1.31v2l3.44 1a22.89 22.89 0 0 0 13.12 0l3.44-1v-2l-6.54 1.3a17.9 17.9 0 0 1 -6.92.01z" fill="#9a9b9f"/><path d="m42 19-3.44 1a22.72 22.72 0 0 1 -13.12 0 1.77 1.77 0 0 0 -2.1 2.5 5.24 5.24 0 0 0 1 1.35c1 .95 2.07 1.15 3.94 1.5a21.34 21.34 0 0 0 8.11-.2l4.77-1.1c2.38-.55 3.15-.73 4.31-.56a13.92 13.92 0 0 1 1.52.35v-2.84h-4.99z" fill="#d5d6d8"/><path d="m42 41v2l-3.44 1a22.89 22.89 0 0 1 -13.12 0l-3.44-1v-2h-5v-5h5v-2l3.44 1a22.72 22.72 0 0 0 13.12 0l3.44-1v2h5v5z" fill="#c2c3c5"/><path d="m28.54 42.31-6.54-1.31v2l3.44 1a22.89 22.89 0 0 0 13.12 0l3.44-1v-2l-6.54 1.3a17.9 17.9 0 0 1 -6.92.01z" fill="#9a9b9f"/><path d="m42 34-3.44 1a22.72 22.72 0 0 1 -13.12 0 1.77 1.77 0 0 0 -2.1 2.5 5.24 5.24 0 0 0 1 1.35c1 1 2.07 1.15 3.94 1.5a21.34 21.34 0 0 0 8.11-.2l4.77-1.1c2.38-.55 3.15-.73 4.31-.56a13.92 13.92 0 0 1 1.52.35v-2.84h-4.99z" fill="#d5d6d8"/><path d="m42 55v2l-3.44 1a22.89 22.89 0 0 1 -13.12 0l-3.44-1v-2h-5v-5h5v-2l3.44 1a22.72 22.72 0 0 0 13.12 0l3.44-1v2h5v5z" fill="#c2c3c5"/><path d="m28.54 56.3-6.54-1.3v2l3.44 1a22.89 22.89 0 0 0 13.12 0l3.44-1v-2l-6.54 1.3a17.9 17.9 0 0 1 -6.92 0z" fill="#9a9b9f"/><path d="m42 48-3.44 1a22.72 22.72 0 0 1 -13.12 0 1.77 1.77 0 0 0 -2.1 2.5 5.24 5.24 0 0 0 1 1.35c1 .95 2.07 1.15 3.94 1.49a21.6 21.6 0 0 0 8.11-.19l4.77-1.1c2.38-.55 3.15-.73 4.31-.56a13.92 13.92 0 0 1 1.52.35v-2.84h-4.99z" fill="#d5d6d8"/></g></svg>