<svg height="512" viewBox="0 0 64 64" width="512" xmlns="http://www.w3.org/2000/svg"><g id="Artboard_28" data-name="Artboard 28"><path d="m47.92 31.81a4.28 4.28 0 0 0 .08-.81 4 4 0 0 0 -4-4 4 4 0 0 0 -4-4 3.89 3.89 0 0 0 -2 .54 4 4 0 0 0 -7.75-.86 4 4 0 0 0 -2.25-.68 4 4 0 0 0 -4 4v.13l.18.95a4 4 0 0 0 -.72 7.61l24.54 1.31-.1-4.1z" fill="#fed8d9"/><path d="m62 35a5 5 0 0 0 -4.17-4.92h.06a5 5 0 0 0 -2.89-9.08 5 5 0 0 0 -4-8 5 5 0 0 0 -5-5 4.93 4.93 0 0 0 -2 .43 5 5 0 0 0 -9-2.31v.07a5 5 0 0 0 -8-3.19 4.94 4.94 0 0 0 -3-1 5 5 0 0 0 -4.78 3.52 5.1 5.1 0 0 0 -2.22-.52 5 5 0 0 0 -5 5v.41a5 5 0 0 0 -3 4.59 5 5 0 0 0 -3.71 8.34 5 5 0 0 0 -1.17 8.75 4.91 4.91 0 0 0 -.12.91 5 5 0 0 0 8.09 3.93 5 5 0 0 0 8.91 2.07 5 5 0 0 0 4 4.9 11.55 11.55 0 0 0 3 8.1 11.82 11.82 0 0 0 12 3l11-12h5.87a3.13 3.13 0 0 0 3.13-3.13v-.87a5 5 0 0 0 2-4zm-22.29-1h-13.71a5 5 0 0 0 -2.56.72 4 4 0 0 1 .72-7.61l-.16-.98v-.13a4 4 0 0 1 4-4 4 4 0 0 1 2.25.7 4 4 0 0 1 7.75.86 3.89 3.89 0 0 1 2-.56 4 4 0 0 1 4 4 4 4 0 0 1 4 4 4.28 4.28 0 0 1 -.08.81v.09l-1.92.8a15.91 15.91 0 0 1 -6.29 1.3z" fill="#f9b9bd"/><path d="m25.41 10-2.7-2.71-1.42 1.42 2.3 2.29-2.3 2.29 1.42 1.42 2.7-2.71h7.59v-2z" fill="#f28d8f"/><g fill="#f7a1aa" opacity=".5"><path d="m13.52 18.83c5.15 0 5.16-8 0-8s-5.15 8 0 8z"/><path d="m17 14.54c5.79 0 5.8-9 0-9s-5.8 9 0 9z"/><path d="m9.12 24.61c5.79 0 5.8-9 0-9s-5.8 9 0 9z"/><path d="m7.07 32.49c5.79 0 5.8-9 0-9s-5.81 9 0 9z"/><path d="m9 37.38c5.79 0 5.8-9 0-9s-5.8 9 0 9z"/><path d="m16.85 40.41c5.79 0 5.8-9 0-9s-5.8 9 0 9z"/></g><g opacity=".5"><path d="m26 43.54c5.8 0 5.81-9 0-9s-5.8 9 0 9z" fill="#f7a1aa"/></g><g fill="#f28d8f"><path d="m28.71 36.29-1.42 1.42 1.3 1.29-1.3 1.29 1.42 1.42 1.7-1.71h7.59v-2h-7.59z"/><path d="m40 38h2v2h-2z"/><path d="m52.72 29.3-1.44 1.4c.36.36 2.12 2.3 1.74 4.09-.45 2.21-3.4 3.21-9.02 3.21v2c4.28 0 10.07-.5 11-4.79.55-2.72-1.61-5.21-2.28-5.91z"/></g><g opacity=".6"><path d="m12.64 33c5.15 0 5.16-8 0-8s-5.15 8 0 8z" fill="#fed8d9"/></g><path d="m21.72 22.88c1-2.37-.15-5.74-3.5-5.74-4.09 0-4.92 5-2.53 7.11-1 2.36.15 5.73 3.51 5.73 4.08.02 4.92-4.98 2.52-7.1z" fill="#fed8d9" opacity=".6"/><path d="m19 31a5 5 0 0 1 -5-5 5.21 5.21 0 0 1 .28-1.66 5 5 0 0 1 3.72-8.34v2a3 3 0 0 0 -3 3 3 3 0 0 0 1.11 2.33 1 1 0 0 1 .25 1.25 2.91 2.91 0 0 0 -.36 1.42 3 3 0 0 0 3 3 2.94 2.94 0 0 0 1.83-.63l1.23 1.63a5 5 0 0 1 -3.06 1z" fill="#f28d8f"/><path d="m62 35a5 5 0 0 0 -4.17-4.92h.06a5 5 0 0 0 -2.89-9.08 5 5 0 0 0 -4-8 5 5 0 0 0 -5-5 4.93 4.93 0 0 0 -2 .43 5 5 0 0 0 -9-2.31v.07a5 5 0 0 0 -8-3.19 4.94 4.94 0 0 0 -3-1 5 5 0 0 0 -4.78 3.52 5.1 5.1 0 0 0 -2.22-.52 5 5 0 0 0 -5 5v.41a5 5 0 0 0 -3 4.59 5 5 0 0 0 -3.71 8.34 5 5 0 0 0 -1.17 8.75 4.91 4.91 0 0 0 -.12.91 5 5 0 0 0 8.09 3.93 5 5 0 0 0 8.91 2.07 5 5 0 0 0 4 4.9 11.55 11.55 0 0 0 3 8.1 11.82 11.82 0 0 0 12 3l11-12h5.87a3.13 3.13 0 0 0 3.13-3.13v-.87a5 5 0 0 0 2-4zm-5 4a4 4 0 0 1 -1.82-.44l-.91 1.78a6 6 0 0 0 2.73.66 5.74 5.74 0 0 0 1.82-.29 2.11 2.11 0 0 1 -2 1.29h-5.82a1 1 0 0 0 -.74.32l-10.81 11.8a10.86 10.86 0 0 1 -10.72-2.81 10.08 10.08 0 0 1 -2.73-6.31 6 6 0 0 0 2.1-.39l-.71-1.87a4 4 0 0 1 -5.39-3.74 4 4 0 0 1 4-4h13.71a16.83 16.83 0 0 0 6.71-1.38l4-1.7-.78-1.84-1.63.7v.22a4.28 4.28 0 0 1 -.08.81v.09l-1.93.8a15.91 15.91 0 0 1 -6.29 1.3h-13.71a5 5 0 0 0 -2.56.72 4 4 0 0 1 -.95-.56 6 6 0 0 0 -2.49 4.43 4 4 0 0 1 -3 1.41 4 4 0 0 1 -3.93-3.25 1 1 0 0 0 -1.6-.6 3.94 3.94 0 0 1 -2.47.85 4 4 0 0 1 -4-4 3.81 3.81 0 0 1 .07-.75 1 1 0 0 0 -.4-1 4 4 0 0 1 -1.67-3.25 4 4 0 0 1 2.06-3.5 5.92 5.92 0 0 0 2 1.18l.65-1.89a4 4 0 0 1 .4-7.68 6.08 6.08 0 0 0 1.27 2.72l1.54-1.28a4 4 0 0 1 1.49-6.22 1 1 0 0 0 .6-1c0-.11 0-.22 0-.33a4 4 0 0 1 7-2.59l1.53-1.3a6.34 6.34 0 0 0 -1.09-1 4 4 0 0 1 3.55-2.11 4 4 0 0 1 3.67 2.4l1.83-.8a6.37 6.37 0 0 0 -.84-1.37 4.06 4.06 0 0 1 1.34-.23 4 4 0 0 1 4 4 3.83 3.83 0 0 1 -.12 1l1.94.49a5.88 5.88 0 0 0 .18-1.49q0-.3 0-.6a4 4 0 0 1 7 2.14 1.12 1.12 0 0 0 .11.34 1 1 0 0 0 1.3.46 4.05 4.05 0 0 1 1.59-.34 4 4 0 0 1 4 4 3.9 3.9 0 0 1 -.59 2.08l1.71 1a5.89 5.89 0 0 0 .76-2 4 4 0 0 1 2.32 6.32 1 1 0 0 0 -.09 1.05 1 1 0 0 0 .89.55 4 4 0 0 1 2.6 7q-.3 0-.6 0a5.82 5.82 0 0 0 -1.5.19l.5 1.94a3.76 3.76 0 0 1 1-.13 4 4 0 0 1 0 8z" fill="#f28d8f"/><path d="m48.2 50 4.8 12h-6l-1.37-3.19a6.29 6.29 0 0 0 -5.78-3.81 5.85 5.85 0 0 1 -5.85-5.85v-2.15a4 4 0 0 1 4-4h5z" fill="#70222f"/><path d="m53 62-4.8-12-5.2-7h-3.22c-2.19 1.81-2.5 5.24.58 7.34 2.44 1.66 4.77 1.24 6.46 4.14a43.23 43.23 0 0 1 3 7.52z" fill="#8d2830"/><rect fill="#fed8d9" height="7" rx="3.5" width="15" x="40" y="43"/><path d="m12.81 34a5.27 5.27 0 0 1 -3.48-1.25 5.55 5.55 0 0 1 -1.26-6.11l1.86.72a3.51 3.51 0 0 0 .74 3.89 3.27 3.27 0 0 0 2.33.75l.1 2z" fill="#f28d8f"/><path d="m47.11 19.35a4.55 4.55 0 0 0 -1.75.34 4.15 4.15 0 0 0 -4.25-3.54c-5.79 0-5.8 9 0 9a4.55 4.55 0 0 0 1.75-.34 4.15 4.15 0 0 0 4.25 3.54c5.79 0 5.8-9 0-9z" fill="#fed8d9" opacity=".6"/><path d="m51 24.05a4.57 4.57 0 0 0 -1.63-3.27 4.76 4.76 0 0 0 -4.1-.82 1 1 0 0 1 -.87-.16 1 1 0 0 1 -.4-.8c0-2-2.88-2-3-2v-2c1.5 0 4.15.63 4.83 2.85a6.59 6.59 0 0 1 4.8 1.37 6.71 6.71 0 0 1 2.37 4.78z" fill="#f28d8f"/><path d="m41 31a22.17 22.17 0 0 1 -4.16-.34 4.45 4.45 0 0 1 -2.73-1.54 4.66 4.66 0 0 1 -1.67 1.35 4.54 4.54 0 0 1 -2.44.53v-2a2.91 2.91 0 0 0 3-2.15 1 1 0 0 1 1.89-.28l.06.14a3 3 0 0 0 2.2 2 20.45 20.45 0 0 0 3.85.29z" fill="#f28d8f"/></g></svg>