<svg height="512" viewBox="0 0 64 64" width="512" xmlns="http://www.w3.org/2000/svg"><g id="Artboard_10" data-name="Artboard 10"><path d="m33 25.43-2.66 1.31a27.69 27.69 0 0 1 -7 2.78 3 3 0 0 0 -2.34 2.92 3 3 0 0 0 .27 1.25 9.29 9.29 0 0 0 1.25 2l3.75 2.94a14.5 14.5 0 0 0 5.28 1.37h1.8l-1.14 4h-2.5a14 14 0 0 1 -8.34-3l-4-5a13.85 13.85 0 0 1 -1.37-6h-14v-4h17.35a15.35 15.35 0 0 0 4.65-.69 23.58 23.58 0 0 0 3.53-1.46l2-1.24z" fill="#8d2830"/><path d="m23.33 39.52a27.6 27.6 0 0 0 8.88-3.93l2.79-1.59-.18-3.31-3 .12a21.13 21.13 0 0 1 -7.82 4.5 15.35 15.35 0 0 1 -4.62.69h-17.38v4h14a14 14 0 0 0 6.19 11.62l2.89-3.62a10.19 10.19 0 0 1 -3.81-4.28 3 3 0 0 1 -.27-1.28 3 3 0 0 1 2.33-2.92z" fill="#164672"/><path d="m33.72 30.85h-1.92a21.13 21.13 0 0 1 -7.8 4.46 15.35 15.35 0 0 1 -4.62.69h-17.38v2.83h14.33a28.26 28.26 0 0 0 6.48-.75 27.88 27.88 0 0 0 6.9-2.64l2.38-1.28 2-.86z" fill="#2963a3"/><path d="m3.74 38.45h11a1 1 0 0 0 0-2h-11a1 1 0 0 0 0 2z" fill="#337fcf"/><path d="m22.81 28a27.85 27.85 0 0 0 6.9-2.63l1.94-1.05-2.12-1.71-2 1.24a23.58 23.58 0 0 1 -3.53 1.46 15.35 15.35 0 0 1 -4.62.69h-17.38v2.76h14.33a28.27 28.27 0 0 0 6.48-.76z" fill="#b72e37"/><path d="m3.74 28.4h11a1 1 0 0 0 0-2h-11a1 1 0 0 0 0 2z" fill="#d83f4e"/><path d="m32 32c.68 4.22-.05 10.37-4 14-2.1 1.93-3.56 1.71-5 4-1.15 1.81-1.94 4.66-1 7 1.58 3.93 7.34 5 10 5 5 0 16.1-.64 23-8 7.67-8.17 7-18 7-22 0-3.39-1.34-17.08-13-25-1.48-1-9-5-17-5-3.14 0-7.77.4-11 4-.49.55-3.42 3.68-3 8a10.92 10.92 0 0 0 4 7c2.88 2.5 4.68 1.69 7 4s2.69 5.09 3 7z" fill="#70222f"/><path d="m49 7c-1.48-1-9-5-17-5h-1.32c-2.84 5.75-2.61 9.51-1.68 12 .61 1.64 1.26 2 3 5 .48.82 3.93 6.83 5 12 1.29 6.24.09 16-7 22a20.59 20.59 0 0 1 -7.93 4.14c1.66 3.86 7.3 4.86 9.93 4.86 5 0 16.1-.64 23-8 7.67-8.17 7-18 7-22 0-3.39-1.34-17.08-13-25z" fill="#8d2830"/><path d="m32 62c5 0 16.1-.64 23-8 7.67-8.17 7-18 7-22 0-3.24-1.24-15.93-11.57-23.95-2.5 4.7-2.75 8.35-2.43 11 .61 4.87 3.3 6.61 3 12a17.83 17.83 0 0 1 -4 10 18.74 18.74 0 0 1 -9 6 21.16 21.16 0 0 1 -3.7.84 19.91 19.91 0 0 1 -4.3 5.11 20.59 20.59 0 0 1 -7.93 4.14c1.66 3.86 7.3 4.86 9.93 4.86z" fill="#b72e37"/><path d="m41 57a1 1 0 0 1 .76-1.14 18.39 18.39 0 0 0 11.88-8.46 1 1 0 0 1 1.36-.4 1 1 0 0 1 .39 1.38 20.32 20.32 0 0 1 -4.75 5.41 20.58 20.58 0 0 1 -8.43 4 1 1 0 0 1 -1.21-.79z" fill="#d83f4e"/><path d="m54.55 14.55a24.77 24.77 0 0 0 -5.33-5.31c-1.6-1.24-6.22-4.77-9.22-3.05-2.58 1.45-2.5 5.78-2.49 6.27.09 2.75 1.44 4.77 3.17 7.34 2.4 3.59 3.47 3.49 4.24 5.79 1.13 3.34-.68 4.85.49 6.73 1.79 2.85 8.7 3.72 12.13.28 3-3 1.94-7.88 1.64-9.29-.64-2.76-1.64-4.8-4.63-8.76z" fill="#ffa4ad" opacity=".2"/></g></svg>