<svg height="512" viewBox="0 0 64 64" width="512" xmlns="http://www.w3.org/2000/svg"><g id="Artboard_09" data-name="Artboard 09"><path d="m54.88 24.33 5.12-4.51a6.12 6.12 0 0 0 2-4.56 6.07 6.07 0 0 0 -1.47-4l-2.68-3.1c-1.19-1.39-1.85-2.16-1.85-4.01v-.15a2 2 0 0 0 -2-2h-1a2 2 0 0 0 -2 2c0 3 0 3.09 1 5s4 4 4 7c0 1.95-2.36 3.42-4.12 4.47z" fill="#b72e37"/><path d="m57.85 8.16c-1.19-1.39-1.85-2.16-1.85-4.01v-.15a2 2 0 0 0 -2-2h-1a9.13 9.13 0 0 0 .47 3.72c.66 1.9 1.55 2 3 4.64 1 1.9 1.88 3.41 1.71 5.34a8.37 8.37 0 0 1 -2.54 4.79 12.17 12.17 0 0 1 -2.25 2l1.46 1.87 5.15-4.54a6.1 6.1 0 0 0 .58-8.53z" fill="#d83f4e"/><path d="m9.12 24.33-5.07-4.51a6.12 6.12 0 0 1 -2-4.56h-.05a6.07 6.07 0 0 1 1.47-4l2.68-3.1c1.19-1.39 1.85-2.16 1.85-4.01v-.15a2 2 0 0 1 2-2h1a2 2 0 0 1 2 2c0 3 0 3.09-1 5s-4 4-4 7c0 1.95 2.36 3.42 4.12 4.47z" fill="#b72e37"/><path d="m6.15 8.16c1.19-1.39 1.85-2.16 1.85-4.01v-.15a2 2 0 0 1 2-2h1a9.13 9.13 0 0 1 -.47 3.72c-.66 1.9-1.55 2-3 4.64-1 1.9-1.88 3.41-1.71 5.34a8.37 8.37 0 0 0 2.54 4.79 12.17 12.17 0 0 0 2.25 2l-1.49 1.84-5.07-4.51a6.1 6.1 0 0 1 -.58-8.53z" fill="#d83f4e"/><path d="m28 62v-1c0-1.26-.13-6.24-3-10a9.85 9.85 0 0 0 -.82-1c-9.98-2.44-17.18-9.58-17.18-18 0-10.49 11.19-19 25-19s25 8.51 25 19c0 8-6.53 14.88-15.78 17.67a9.41 9.41 0 0 0 -1.22 1.33c-2.87 3.76-3 8.74-3 10v1z" fill="#8d2830"/><ellipse cx="32" cy="32" fill="#601b2a" rx="20" ry="15"/><path d="m41.22 49.67c-2 .46-7.74.54-10.43.56a1.42 1.42 0 0 0 -1.15 2.25c1.14 1.66 1.63 7.41 1.77 9.52h5.59v-1c0-1.26.13-6.24 3-10a9.88 9.88 0 0 1 1.22-1.33z" fill="#b72e37"/><ellipse cx="32" cy="33.92" fill="#70222f" rx="19.82" ry="13.08"/><path d="m41 37c-2.51-.11-6-2-10-3-8.88-2.22-9-2-10-2a15.92 15.92 0 0 0 -8.43 3.5c2.11 6.59 10 11.5 19.43 11.5 10.7 0 19.41-6.31 20-14.23-4.62 3.62-8.32 4.35-11 4.23z" fill="#f4b55d"/><path d="m41 37c-2.51-.11-6-2-10-3-8.88-2.22-9-2-10-2a15.92 15.92 0 0 0 -8.43 3.5c2.11 6.59 10 11.5 19.43 11.5 10.7 0 19.41-6.31 20-14.23-4.62 3.62-8.32 4.35-11 4.23z" fill="#dd933c"/><path d="m50.37 33.93a35.07 35.07 0 0 0 -18 .46c3.41 1 6.39 2.51 8.6 2.61 2.4.1 5.55-.45 9.4-3.07z" fill="#dd933c"/><path d="m41 37c-2.51-.11-6-2-10-3-8.88-2.22-9-2-10-2a15.59 15.59 0 0 0 -7.37 2.72c3.06 5.35 10.12 9.1 18.37 9.1 8.85 0 16.33-4.32 19-10.3-4.16 2.97-7.51 3.59-10 3.48z" fill="#f4b55d"/><g opacity=".5"><path d="m21.09 35.6a28.85 28.85 0 0 1 5.1 1.12c1.79.46 3.57.93 5.33 1.52a1.5 1.5 0 0 0 .79-2.9c-1.81-.6-3.67-1.09-5.52-1.56a31.89 31.89 0 0 0 -5.7-1.18 1.51 1.51 0 0 0 -1.5 1.5 1.53 1.53 0 0 0 1.5 1.5z" fill="#ffe4a5"/></g><g opacity=".5"><path d="m35.27 39.14a1.5 1.5 0 0 0 0-3 1.5 1.5 0 0 0 0 3z" fill="#ffe4a5"/></g><path d="m35.09 53a26 26 0 0 0 -1.27 7.43 1 1 0 0 0 1 1 1 1 0 0 0 1-1 23.8 23.8 0 0 1 1.18-6.9 1 1 0 0 0 -.69-1.23 1 1 0 0 0 -1.23.7z" fill="#d83f4e"/></g></svg>