<svg height="512" viewBox="0 0 64 64" width="512" xmlns="http://www.w3.org/2000/svg"><g id="Artboard_06" data-name="Artboard 06"><path d="m12 62 3-11.83a3.83 3.83 0 0 0 0-1.17l-.75-1.51c-.52-1.63-.3-3.69 1-4.76a3.52 3.52 0 0 1 2.27-.73h3.65a3.84 3.84 0 0 1 3.83 3.83 3.85 3.85 0 0 1 -1.86 3.29l-1.65 1a3.8 3.8 0 0 0 -1.8 2.6l-1.69 9.28z" fill="#aba39b"/><path d="m25 45.83a3.84 3.84 0 0 0 -3.83-3.83h-3.65a3.52 3.52 0 0 0 -2.24.73 2.57 2.57 0 0 0 -.28.27 4.93 4.93 0 0 0 0 2c.55 2.37 2.79 2.31 4 5a8.23 8.23 0 0 1 .49 3.81l.2-1.1a3.8 3.8 0 0 1 1.8-2.6l1.65-1a3.85 3.85 0 0 0 1.86-3.28z" fill="#968d86"/><path d="m42 28.38a8.68 8.68 0 0 1 4.39 3 8.11 8.11 0 0 1 -.88 10.79l-.8.78a11.75 11.75 0 0 0 -3.71 8.05v11h-18v-11a8.82 8.82 0 0 0 -.16-1.7l-4.53-7.3a8.12 8.12 0 0 1 -2.31-6.38z" fill="#acadb1"/><path d="m41 51a11.75 11.75 0 0 1 3.66-8l.8-.78a8.11 8.11 0 0 0 .88-10.79c-.09-.11-.19-.2-.28-.31a10.55 10.55 0 0 0 -1.06.88c-1.93 1.82-1.31 3.09-3 5a9.09 9.09 0 0 1 -7 3c-2.42-.16-3.13-1.52-5-1a4.25 4.25 0 0 0 -3 3c-.31 1.62 1 2.5 2 5a16.12 16.12 0 0 1 1 6c.22 4.77-1.06 7-.48 9h11.48z" fill="#c2c3c5"/><g opacity=".5"><path d="m37 52h-2c0-.14 0-.31 0-.53a13.91 13.91 0 0 1 1.13-6.92 11.78 11.78 0 0 1 4.41-4.42l1 1.75a10 10 0 0 0 -3.59 3.57 12.05 12.05 0 0 0 -.95 5.93z" fill="#f1f1f3"/></g><path d="m17 2v11a11.73 11.73 0 0 1 -3.66 8l-.81.78a8.11 8.11 0 0 0 -.88 10.79 8.86 8.86 0 0 0 10.22 2.83l.93-.4a8.94 8.94 0 0 1 6.4 0l.93.36a8.86 8.86 0 0 0 10.22-2.83 8.11 8.11 0 0 0 -.88-10.79l-.81-.74a11.73 11.73 0 0 1 -3.66-8v-11z" fill="#d5d6d8"/><path d="m38.66 21a11.73 11.73 0 0 1 -3.66-8v-11h-14.46c-.73 2.48 1.46 4.92.46 12a29.77 29.77 0 0 1 -2 8c-1.25 3-1.12 3.5-1 5 .25 3.22 3.57 5.32 7 7l.93.45a9 9 0 0 1 3.27.55l.93.36a8.86 8.86 0 0 0 10.22-2.83 8.11 8.11 0 0 0 -.88-10.79z" fill="#e4e5e7"/><path d="m44.89 21.6 1.11 3.31a2.72 2.72 0 0 0 .71 1.09l4.78 4.62a1.52 1.52 0 0 0 1.7.26 1.42 1.42 0 0 0 .81-1.64l-1.39-5.24a4.26 4.26 0 0 0 -1.54-2.3l-3-2.29a2.1 2.1 0 0 0 -1.92-.33 2 2 0 0 0 -1.26 2.52z" fill="#d3ccca"/><g opacity=".5"><path d="m31.17 31.55a5.63 5.63 0 0 0 -5.09-2.55 5.86 5.86 0 0 0 -4.24 2.55l-1.68-1.1a7.87 7.87 0 0 1 5.76-3.45 7.66 7.66 0 0 1 6.91 3.45z" fill="#f1f1f3"/></g><g opacity=".5"><path d="m35.57 24.88a12 12 0 0 1 -4.41-4.43 13.88 13.88 0 0 1 -1.16-6.92c0-.22 0-.39 0-.53h2v.62a11.82 11.82 0 0 0 1 5.93 10.1 10.1 0 0 0 3.59 3.58z" fill="#f1f1f3"/></g><path d="m53.6 30.55a1.39 1.39 0 0 0 .4-1.31l-1.39-5.24a4.26 4.26 0 0 0 -1.54-2.3l-3-2.29a2.13 2.13 0 0 0 -1.42-.41 6.51 6.51 0 0 0 .35 3 7.2 7.2 0 0 0 2 3c1.37 1.28 2 .95 3 2 1.34 1.37 1.07 2.7 1.6 3.55z" fill="#e2dad7"/><ellipse cx="37.15" cy="25.27" fill="#f1f1f3" opacity=".8" rx="2.29" ry="4.59" transform="matrix(.905 -.425 .425 .905 -7.21 18.16)"/></g></svg>