<svg height="512" viewBox="0 0 64 64" width="512" xmlns="http://www.w3.org/2000/svg"><g id="Artboard_04" data-name="Artboard 04"><ellipse cx="52" cy="51.8" fill="#8d2830" rx="11.89" ry="7.92" transform="matrix(.689 -.725 .725 .689 -21.37 53.82)"/><path d="m36.31 34.93a8.58 8.58 0 0 0 4-10.93l-8.31-22-8.33 22a8.58 8.58 0 0 0 4 10.93 9.31 9.31 0 0 0 8.64 0z" fill="#70222f"/><path d="m61.68 47.75a5 5 0 0 0 -1.36-4.43 2 2 0 0 0 -2-.49l-.3.1a3 3 0 0 0 -2.08 3.19v.24.33a6.65 6.65 0 0 1 -1.78 6.41c-3.36 3.45-6.16 3.54-6.76 3.66h-.14l-1.65.24a1.71 1.71 0 0 0 -1.5 1.5v.05a1.94 1.94 0 0 0 .89 1.62 6.67 6.67 0 0 0 6.68.45 20.52 20.52 0 0 0 8.75-7.73 14.65 14.65 0 0 0 1.25-5.14z" fill="#b72e37"/><g opacity=".8"><path d="m52.53 57.29a1 1 0 0 1 .52-1.21 7.9 7.9 0 0 0 4.4-5.9 1 1 0 0 1 1-.83 1 1 0 0 1 1 1.19 9.88 9.88 0 0 1 -5.52 7.35 1 1 0 0 1 -1.4-.6z" fill="#f24855"/></g><ellipse cx="51.34" cy="51.16" fill="#70222f" rx="5.58" ry="2.55" transform="matrix(.707 -.707 .707 .707 -21.14 51.29)"/><ellipse cx="12" cy="51.8" fill="#8d2830" rx="7.92" ry="11.89" transform="matrix(.725 -.689 .689 .725 -32.38 22.51)"/><path d="m2.32 47.75a5.32 5.32 0 0 1 1-4 5.34 5.34 0 0 1 .39-.44 2 2 0 0 1 1.95-.49h.05l.3.1a3 3 0 0 1 2.08 3.19v.24c0 .11 0 .22-.05.33a6.65 6.65 0 0 0 1.78 6.41c3.42 3.44 6.23 3.53 6.82 3.65h.14l1.65.19a1.71 1.71 0 0 1 1.5 1.5v.05a1.94 1.94 0 0 1 -.93 1.69 6.67 6.67 0 0 1 -6.68.45 20.52 20.52 0 0 1 -8.75-7.73 14.65 14.65 0 0 1 -1.25-5.14z" fill="#b72e37"/><g opacity=".8"><path d="m11.47 57.29a1 1 0 0 0 -.47-1.22 7.9 7.9 0 0 1 -4.4-5.9 1 1 0 0 0 -1-.83 1 1 0 0 0 -1 1.19 9.88 9.88 0 0 0 5.52 7.35 1 1 0 0 0 1.35-.59z" fill="#f24855"/></g><ellipse cx="12.66" cy="51.16" fill="#70222f" rx="2.55" ry="5.58" transform="matrix(.707 -.707 .707 .707 -32.47 23.94)"/><ellipse cx="32" cy="46" fill="#8d2830" rx="9" ry="6"/><ellipse cx="32" cy="45" fill="#70222f" rx="5" ry="3"/><path d="m25.06 49.09a11.19 11.19 0 0 0 6.6 2.26 10.86 10.86 0 0 0 3.52-.57 14.38 14.38 0 0 0 3.36-1.34c1.65-1 .14-3.6-1.51-2.6a10.66 10.66 0 0 1 -2.45 1 8.68 8.68 0 0 1 -2.71.52 7.89 7.89 0 0 1 -4.68-1.36 1.56 1.56 0 0 0 -2.13 0 1.51 1.51 0 0 0 0 2.12z" fill="#b72e37"/><path d="m37.11 47.34c-.39.22-.78.41-1.18.59-.21.1.09 0-.11 0l-.35.13-.57.21a8.88 8.88 0 0 1 -1.2.32c-.06 0-.28 0-.11 0h-.39a3.91 3.91 0 0 1 -.68 0 1 1 0 0 0 0 2 7 7 0 0 0 2.91-.41 16.5 16.5 0 0 0 2.69-1.18 1 1 0 1 0 -1-1.73z" fill="#f24855"/><g opacity=".5"><path d="m25.7 42.3a4 4 0 0 0 -1.15 1.2 4 4 0 0 0 -.35.75 3 3 0 0 0 -.15.59 1.17 1.17 0 0 0 .11.77 1 1 0 0 0 .61.45 1 1 0 0 0 .77-.11 1 1 0 0 0 .44-.61 3.69 3.69 0 0 1 .18-.65l-.1.24a2.7 2.7 0 0 1 .36-.64l-.15.21a2.52 2.52 0 0 1 .5-.53l-.2.16.17-.12a1.11 1.11 0 0 0 .45-.61 1 1 0 0 0 -1.49-1.1z" fill="#f24855"/></g><path d="m40.33 24-7.25-19.16-6.8 17.93a8.58 8.58 0 0 0 4 10.93 9.21 9.21 0 0 0 6.88.69 8.54 8.54 0 0 0 3.17-10.39z" fill="#8d2830"/><path d="m33.34 5.54c-.57 1.34.4 4.37-1.28 10.22-1.24 4.34-2.56 5.37-2.48 8.68 0 1.36.12 5.25 3 7.43a7.83 7.83 0 0 0 6.08 1.25 8.46 8.46 0 0 0 1.67-9.12z" fill="#b72e37"/><g opacity=".5"><path d="m32.93 31.91a1 1 0 0 1 .57-1.17 4.36 4.36 0 0 0 1.65-1.34 4.44 4.44 0 0 0 .85-2.4 1 1 0 0 1 .86-.95 1 1 0 0 1 1.14.95 6.29 6.29 0 0 1 -3.68 5.55 1 1 0 0 1 -1.39-.64z" fill="#f24855"/></g></g></svg>