<svg height="512" viewBox="0 0 64 64" width="512" xmlns="http://www.w3.org/2000/svg"><g id="Artboard_22" data-name="Artboard 22"><path d="m38 24 2.64-2.2a12.08 12.08 0 0 1 7.73-2.8 12.09 12.09 0 0 1 10.19 5.59l1.82 2.86a10.39 10.39 0 0 1 1.62 5.55 10.34 10.34 0 0 1 -3.89 8.09l-3.49 2.81a7 7 0 0 0 -2.62 5.46 2.64 2.64 0 0 1 -2.64 2.64h-.43a2.59 2.59 0 0 1 -1.65-.58l-2.45-2a6.68 6.68 0 0 0 -4.18-1.42h-1.65a6.74 6.74 0 0 0 -3.72 1.12 5.12 5.12 0 0 1 -2.89.88h-.84a5.12 5.12 0 0 1 -2.89-.88 6.74 6.74 0 0 0 -3.66-1.12h-1.65a6.68 6.68 0 0 0 -4.18 1.47l-2.45 2a2.59 2.59 0 0 1 -1.65.58h-.43a2.64 2.64 0 0 1 -2.64-2.69 7 7 0 0 0 -2.62-5.46l-3.49-2.79a10.34 10.34 0 0 1 -3.89-8.11 10.39 10.39 0 0 1 1.62-5.57l1.82-2.86a12.09 12.09 0 0 1 10.19-5.57 12.08 12.08 0 0 1 7.73 2.8l2.64 2.2z" fill="#acadb1"/><path d="m60.38 27.45-1.82-2.86a12.08 12.08 0 0 0 -17.92-2.79l-2.64 2.2h-12l-2.64-2.2a12 12 0 0 0 -10.48-2.47 17.25 17.25 0 0 0 -4.88 4.9c-1 1.7-3.7 5.82-2.35 9.49 1.21 3.32 4.41 2.78 7.53 7.83 1.26 2 1.21 2.9 2.4 3.52 2.2 1.15 3.88-1 8.36-1.08 2.81 0 2.84.84 6.36.89 2.72 0 2.72-.49 5.92-.64s3.77.37 8.21.34c2.82 0 4.23 0 5.19-.49 2.58-1.24 2.38-3.29 5.18-4.84 2.21-1.21 3.06-.36 4.6-1.37a6.8 6.8 0 0 0 2.6-4.63c0-.08 0-.15 0-.23a10.39 10.39 0 0 0 -1.62-5.57z" fill="#c2c3c5"/><path d="m36 32h3.07a4.72 4.72 0 0 1 4.24 2.62 5.06 5.06 0 0 1 .65 3l-.09.52a4.93 4.93 0 0 1 -4.87 3.86h-14a4.93 4.93 0 0 1 -4.89-3.91l-.11-.52a5.06 5.06 0 0 1 .65-3 4.72 4.72 0 0 1 4.28-2.57z" fill="#5a5b5d"/><path d="m55.29 37.2a9 9 0 0 0 4.94-2.84 7.29 7.29 0 0 0 1.48-3.66 10.23 10.23 0 0 0 -1.33-3.25l-1.82-2.86a12.08 12.08 0 0 0 -17.92-2.79l-.22.18a7.72 7.72 0 0 0 -.14.79 8.67 8.67 0 0 0 1.72 6.23c1.51 1.82 2.77 1.39 4 3.28s.33 3.17 1.52 4.45c2.01 2.15 6.73.77 7.77.47z" fill="#f1f1f3" opacity=".5"/><path d="m57 34h-.1a1 1 0 0 1 -.82-1 7.63 7.63 0 0 0 -6.32-7.88 1 1 0 0 1 -.77-1v-.12a1 1 0 0 1 1.15-.87 9.63 9.63 0 0 1 7.93 9.93 1 1 0 0 1 -1.07.94z" fill="#f2f2f2"/><rect fill="#acadb1" height="6" rx="2" width="12" x="26" y="22"/><g fill="#968d86"><path d="m29 8h6v4h-6z"/><path d="m29 18h6v4h-6z"/><path d="m36 28v5.59a3.41 3.41 0 0 1 -1 2.41 3.41 3.41 0 0 0 -1 2.41v3.59h-4v-3.59a3.41 3.41 0 0 0 -1-2.41 3.41 3.41 0 0 1 -1-2.41v-5.59z"/></g><path d="m50 62v-2.47a4.3 4.3 0 0 0 -3.46-4.22l-.71-.14a4.34 4.34 0 0 1 -1.54-.64l-1.21-.81a4.27 4.27 0 0 0 -2.38-.72h-1.23a4.38 4.38 0 0 0 -3.75 1.92 4.27 4.27 0 0 0 -.72 2.38v4.7z" fill="#c2c3c5"/><path d="m46.54 55.31-.71-.14a4.34 4.34 0 0 1 -1.54-.64l-1.21-.81a4.27 4.27 0 0 0 -2.38-.72h-1.23a4.68 4.68 0 0 0 -2.08.47 18 18 0 0 0 -.78 3.1c-.34 1.67-.51 2.51-.15 3.08s1.23.71 5.65.73c6.42 0 7.49-.08 7.89-.05v-.8a4.3 4.3 0 0 0 -3.46-4.22z" fill="#d5d6d8"/><path d="m14 62v-2.47a4.3 4.3 0 0 1 3.46-4.22l.71-.14a4.34 4.34 0 0 0 1.54-.64l1.21-.81a4.27 4.27 0 0 1 2.38-.72h1.23a4.38 4.38 0 0 1 3.75 1.92 4.27 4.27 0 0 1 .72 2.38v4.7z" fill="#c2c3c5"/><path d="m17.46 55.31.71-.14a4.34 4.34 0 0 0 1.54-.64l1.21-.81a4.27 4.27 0 0 1 2.38-.72h1.23a4.68 4.68 0 0 1 2.08.47 18 18 0 0 1 .78 3.1c.34 1.67.51 2.51.15 3.08s-1.23.71-5.65.73c-6.42 0-7.49-.08-7.89-.05v-.8a4.3 4.3 0 0 1 3.46-4.22z" fill="#d5d6d8"/><path d="m24.17 27c-.13-2-.61-2.26-.39-3.26a2.59 2.59 0 0 1 .54-1.13l-1-.8a12.08 12.08 0 0 0 -7.69-2.81h-.27a15.6 15.6 0 0 0 -3.78 2.82c-2.31 2.18-4.82 4.49-4.73 7.65.07 2.26 1.65 3.93 4.8 7.27 2.22 2.36 3.07 2.49 3.58 2.35s.83-.71 2.09-3.39c1.82-3.87 2.05-4.23 2.58-4.57 1.61-1.05 3.11-.07 4-1.21.43-.59.37-1.37.27-2.92z" fill="#f1f1f3" opacity=".5"/><path d="m7 34a1 1 0 0 1 -1.11-.92 9.63 9.63 0 0 1 7.93-9.93 1 1 0 0 1 1.18.85v.08a1 1 0 0 1 -.77 1 7.63 7.63 0 0 0 -6.31 7.92 1 1 0 0 1 -.82 1z" fill="#f2f2f2"/><path d="m35 36a3.41 3.41 0 0 0 1-2.41v-3.59h-4.36a1.63 1.63 0 0 0 -1.64 1.64v2a3.41 3.41 0 0 0 1 2.36 3.41 3.41 0 0 1 1 2.41v3.59h2v-3.59a3.41 3.41 0 0 1 1-2.41z" fill="#aba39b"/><path d="m36 22h-8a2.3 2.3 0 0 0 -.45.05 2.3 2.3 0 0 0 -.05.45v2a2 2 0 0 0 2 2h8a2.3 2.3 0 0 0 .45-.05 2.3 2.3 0 0 0 .05-.45v-2a2 2 0 0 0 -2-2z" fill="#f1f1f3" opacity=".5"/><rect fill="#acadb1" height="6" rx="2" width="12" x="26" y="12"/><path d="m36 12h-8a2.3 2.3 0 0 0 -.45.05 2.3 2.3 0 0 0 -.05.45v2a2 2 0 0 0 2 2h8a2.3 2.3 0 0 0 .45-.05 2.3 2.3 0 0 0 .05-.45v-2a2 2 0 0 0 -2-2z" fill="#f1f1f3" opacity=".5"/><rect fill="#acadb1" height="6" rx="2" width="12" x="26" y="2"/><path d="m36 2h-8a2.3 2.3 0 0 0 -.45 0 2.3 2.3 0 0 0 -.05.45v2a2 2 0 0 0 2 2h8a2.3 2.3 0 0 0 .45 0 2.3 2.3 0 0 0 .05-.45v-2a2 2 0 0 0 -2-2z" fill="#f1f1f3" opacity=".5"/><path d="m35 22v-2.51h-3.24a1.59 1.59 0 0 0 -1.59 1.59v.92z" fill="#aba39b"/><path d="m35 12v-2.51h-3.24a1.59 1.59 0 0 0 -1.59 1.59v.92z" fill="#aba39b"/></g></svg>