<svg height="512" viewBox="0 0 64 64" width="512" xmlns="http://www.w3.org/2000/svg"><g id="Artboard_25" data-name="Artboard 25"><path d="m32 2h1.07a8.32 8.32 0 0 1 5.22 1.83 8.37 8.37 0 0 1 3.08 5.63l2.24 20.94a6.63 6.63 0 0 0 3.63 5.22 41.44 41.44 0 0 1 8.76 5.89 11.7 11.7 0 0 1 4 8.8 11.7 11.7 0 0 1 -11.69 11.69h-32.62a11.7 11.7 0 0 1 -11.69-11.69 11.7 11.7 0 0 1 4-8.8 41.44 41.44 0 0 1 8.77-5.89 6.63 6.63 0 0 0 3.63-5.22l2.23-20.94a8.37 8.37 0 0 1 3.08-5.63 8.32 8.32 0 0 1 5.22-1.83z" fill="#ecbe9f"/><path d="m60 50.31a11.7 11.7 0 0 0 -4-8.8 41.44 41.44 0 0 0 -8.77-5.89 6.63 6.63 0 0 1 -3.63-5.22l-2.23-20.94a8.37 8.37 0 0 0 -3.08-5.63 8.28 8.28 0 0 0 -3.29-1.6 8.28 8.28 0 0 0 -3.29 1.6 8.37 8.37 0 0 0 -3.08 5.63l-2.24 20.94a6.63 6.63 0 0 1 -3.63 5.22 41.44 41.44 0 0 0 -8.76 5.89 11.69 11.69 0 0 0 7.69 20.49h26.62a11.7 11.7 0 0 0 11.69-11.69z" fill="#f4c8ad"/><path d="m39 23h-2a48.59 48.59 0 0 0 -1-10.76 16.94 16.94 0 0 0 -2.84-5.65l1.63-1.16-.79.57.84-.54a18.93 18.93 0 0 1 3.16 6.3 49.52 49.52 0 0 1 1 11.24z" fill="#fbdac2"/><path d="m42 62 7.75-3.1a3.57 3.57 0 0 0 2.25-3.32 3.58 3.58 0 0 0 -3.58-3.58h-2.42a6.47 6.47 0 0 0 -5.78 3.57l-1.28 2.57a7 7 0 0 1 -6.25 3.86h-1.38a7 7 0 0 1 -6.24-3.86l-1.28-2.57a6.47 6.47 0 0 0 -5.79-3.57h-2.42a3.58 3.58 0 0 0 -3.58 3.58 3.57 3.57 0 0 0 2.25 3.32l7.75 3.1z" fill="#c68a61"/></g></svg>